<?xml version="1.0" encoding="utf-8"?>

<!DOCTYPE svg PUBLIC "-//W3C//DTD SVG 1.1//EN" "http://www.w3.org/Graphics/SVG/1.1/DTD/svg11.dtd">
<svg version="1.1" id="Layer_1" xmlns="http://www.w3.org/2000/svg" xmlns:xlink="http://www.w3.org/1999/xlink" x="0px" y="0px"
	 viewBox="0 0 1459.044 1664.289" enable-background="new 0 0 1459.044 1664.289" xml:space="preserve">
<g>
	<path fill="#020403" d="M332.423,32.314c92.266-4.284,396.674,73.887,456.578,88.381c29.75,7.198,46.27,16.219,59.613,10.448
		c3.924-1.736,8.369-1.592,12.337-3.206c27.926-11.357,60.479-16.195,89.645-23.914c296.178-78.389,517.573-136.375,475.018,187.486
		c-0.024-3.245-0.048-6.49-0.071-9.735c-20.97,206.384-210.441,467.172-208.053,462.776c-2.222,4.09-0.896,8.888-2.443,13.133
		c-17.574,48.206-19.222,101.732-31.756,151.437c0.089-1.419,0.178-2.838,0.267-4.257c-0.951,7.61-51.394,253.121-87.584,386.665
		c-22.256,82.126-56.634,158.201-101.602,230.15c-20.018,28.648-43.259,53.896-67.743,78.701
		c-27.618,27.981-31.873,37.483-61.452,24.917c-17.982-7.64-41.89-11.039-50.934-60.026
		c-11.58-62.721,38.449-299.303-47.983-513.574c-7.06-17.503-31.386-68.469-37.369-72.032c-8.069-2.017-34.22,1.901-59.375,34.822
		c-78.985,103.368-96.605,221.108-122.866,337.019c-6.691,29.533-4.87,34.258-19.777,149.123
		c-2.118,16.323,1.8,88.674-76.374,125.01c-18.334,8.315-23.886,15.219-63.635-22.977c-93.666-90.006-72.382-213.721-68.957-502.035
		c1.082-91.082-11.545-179.666-27.412-347c-3.582-37.776,8.663-9.306-30.425-77.449C107.652,444.502,92.031,432.289,61.943,374.552
		c-39.359-75.528-49.232-174.259,0.132-242.066c49.432-67.902,164.856-94.125,247.82-98.226
		C316.764,33.919,326.194,35.461,332.423,32.314 M117.987,241.342c-14.029,55.729,16.482,107.024,42.865,153.273
		c84.295,147.77,188.969,279.085,198.865,311.209c8.963,29.095-7.007,15.859-4.852,99.186
		c3.935,152.14,17.508,240.221,17.508,353.26c2.996,105.79,0.938,218.612,34.953,316.395c4.081,11.733,27.118,72.116,39.488,80.527
		c1.938,1.318,14.615-23.531,15.603-26.003c4.791-11.992,1.702,2.5,33.546-204.344c36.758-238.764,97.272-322.19,172.474-392.176
		c4.099-2.715,25.771-12.095,25.147-16.851c-0.652-4.965-32.642-39.07-35.281-45.586c2.711-0.689,5.765,0.33,8.75,0.944
		c29.987,6.167,54.489,21.631,80.488,36.313c8.162,4.455,54.262,69.089,64.936,101.405c0.564,0.32,1.128,0.663,1.724,1.006
		c1.986,9.535,18.903,44.847,20.197,54.323c0.31,0.177,0.918,0.531,1.216,0.708c-0.099,5.527,4.124,9.828,3.947,15.422
		c2.366,2.476,2.686,5.704,2.885,8.976c1.957,3.88,1.935,8.291,3.427,12.337c7.233,18.834,8.873,42.45,13.17,62.264
		c13.707,80.516,15.035,162.421,16.196,241.814c0.967,66.155-5.387,37.74,9.357,112.048c1.091,5.499,1.355,12.554,3.562,17.696
		c4.91,11.461,10.184-1.196,14.735-7.401c96.545-131.633,137.112-259.255,227.353-608.577c8.219-31.815,17.542-62.292,21.397-95.166
		c-12.578,12.897-25.474,26.03-41.568,34.125c34.423-80.324,186.052-319.916,237.76-514.3
		c10.282-38.652,27.185-118.998,10.969-156.485c-21.76-50.304-50.036-50.557-84.582-56.885
		c-84.109-15.406-224.767,15.767-328.921,33.487c1.871-0.011,3.741-0.021,5.612-0.032c-12.795,0-8.222,1.298-86.955,13.732
		c-246.971,39.001-277.544,30.519-376.493,14.825c114.133-5.522,206.351-24.09,211.992-26.71
		c-1.026-6.665-5.596-4.554-124.297-27.419c-38.164-7.351-206.424-39.676-246.252-33.991
		C240.936,117.247,139.665,155.234,117.987,241.342z"/>
	<path fill="#303030" stroke="#303030" stroke-width="0.1036" d="M30.351,220.212c0.752,3.073,1.006,6.257,0.011,9.319
		c-1.105,3.493-0.354,7.119,0.122,10.646c0.597,3.571-0.884,6.987-1.647,10.414c-1.503-5.019,0.354-10.148-0.31-15.222
		C27.632,230.206,29.843,225.286,30.351,220.212z"/>
	<path fill="#8FC8F2" stroke="#8FC8F2" stroke-width="0.1036" d="M502.832,267.637c12.26-2.078,24.929-1.183,36.945,1.868
		c7.771,2.852,15.377,6.257,22.463,10.546c16.052,10.69,29.362,25.669,37.443,43.235c11.862,21.678,14.106,47.381,11.475,71.591
		c-4.731,31.407-21.104,62.139-48.177,79.694c-11.696,8.07-25.802,11.32-39.576,13.686c-20.12,1.503-40.671-4.3-56.877-16.372
		c-4.112-3.261-8.578-6.08-12.381-9.695c-10.303-11.696-19.224-24.851-24.542-39.587c-2.299-7.584-5.03-15.134-6.102-23.016
		c-0.321-5.594-2.543-10.922-2.266-16.571c0.166-6.666-0.619-13.476,1.271-19.976c0.995-3.526,0.708-7.241,1.47-10.801
		c3.051-10.602,5.174-21.656,10.756-31.307c8.976-18.318,23.536-33.85,41.301-43.887
		C484.095,271.893,493.414,269.019,502.832,267.637 M502.832,321.85c-8.225,1.758-15.797,5.66-22.795,10.226
		c-18.484,13.642-29.759,35.906-31.418,58.668c-0.63,14.073,0.254,28.72,6.6,41.555c1.935,3.991,3.151,8.379,5.892,11.95
		c4.997,6.334,9.717,13.078,16.35,17.853c18.008,15.676,45.899,18.583,66.627,6.688c6.036-3.184,11.232-7.738,16.273-12.293
		c4.134-5.052,8.402-10.104,11.795-15.709c3.847-8.424,8.015-16.936,9.286-26.211c1.857-7.805,1.183-15.897,1.172-23.845
		c-1.758-24.022-14.371-47.657-34.834-60.801C534.593,321.573,518.11,318.334,502.832,321.85z"/>
	<path fill="#8FC8F2" stroke="#8FC8F2" stroke-width="0.1036" d="M860.952,267.516c22.95-3.781,47.06,3.471,65.146,17.887
		c20.904,15.996,33.927,40.394,40.029,65.643c0.608,5.505,2.62,10.834,2.388,16.438c-0.077,7.031,0.044,14.062-0.044,21.104
		c-2.388,24.873-12.16,49.238-28.621,68.186c-7.462,8.534-16.339,15.886-26.377,21.214c-10.369,6.135-22.441,8.136-34.104,10.292
		c-13.52,0.73-27.692-0.409-39.852-6.821c-18.981-8.413-34.491-23.458-45.081-41.157c-8.733-14.791-13.763-31.561-16.339-48.453
		c0.077-12.89-1.393-26.067,1.901-38.692c2.753-12.901,7.053-25.559,13.818-36.923c2.83-4.488,4.798-9.607,8.59-13.421
		c4.013-4.112,7.484-8.744,11.851-12.525C827.323,278.615,843.485,270.058,860.952,267.516 M853.479,324.138
		c-19.246,8.158-36.105,24.519-41.091,45.236c-0.365-0.531-0.718-1.05-1.061-1.559c0.166,4.134-2.067,7.805-2.542,11.851
		c-3.018,13.553-2.487,27.781,0.818,41.234c3.781,12.171,9.054,24.387,18.251,33.485c6.301,6.71,13.454,12.89,22.01,16.516
		c13.089,5.981,28.51,7.009,42.163,2.355c17.102-5.163,31.009-18.307,39.344-33.85c11.729-21.513,13.343-47.967,5.34-70.994
		c-2.521-3.604-3.239-8.081-5.671-11.729c-3.56-5.527-6.898-11.309-11.807-15.775c-7.407-7.893-16.427-14.858-27.261-17.024
		c0.442-0.409,0.895-0.807,1.371-1.205c-2.078,0.022-4.179,0.033-6.169-0.52C876.097,319.02,864.257,320.667,853.479,324.138z"/>
	<path fill="#3B3B3B" stroke="#3B3B3B" stroke-width="0.1036" d="M118.381,298.557c0.486,2.532,0.884,5.096,1.139,7.672
		c-0.398,0.42-1.194,1.249-1.603,1.669C117.419,304.781,117.419,301.586,118.381,298.557z"/>
	<path fill="#3B3B3B" stroke="#3B3B3B" stroke-width="0.1036" d="M120.702,311.292c0.564,1.725,1.006,3.493,1.338,5.284
		C119.453,317.163,119.011,312.564,120.702,311.292z"/>
	<path stroke="#000000" stroke-width="0.1036" d="M502.832,321.85c15.278-3.515,31.76-0.276,44.949,8.081
		c20.462,13.144,33.076,36.779,34.834,60.801c0.011,7.948,0.685,16.04-1.172,23.845c-1.271,9.275-5.439,17.787-9.286,26.211
		c-3.394,5.605-7.661,10.657-11.795,15.709c-5.041,4.555-10.237,9.109-16.273,12.293c-20.728,11.895-48.619,8.988-66.627-6.688
		c-6.633-4.776-11.353-11.519-16.35-17.853c-2.742-3.571-3.958-7.959-5.892-11.95c-6.345-12.835-7.23-27.482-6.6-41.555
		c1.658-22.762,12.934-45.026,31.418-58.668C487.035,327.51,494.608,323.607,502.832,321.85 M518.188,435.194
		c-3.935,1.736-7.418,4.842-8.811,8.988c-4.4,9.64,3.969,23.458,15.123,21.247c10.878-2.93,14.283-18.285,6.743-26.167
		C528.126,435.57,522.875,433.006,518.188,435.194z"/>
	<path stroke="#000000" stroke-width="0.1036" d="M853.479,324.138c10.778-3.471,22.618-5.118,33.695-1.979
		c1.99,0.553,4.09,0.542,6.169,0.52c-0.475,0.398-0.929,0.796-1.371,1.205c10.834,2.167,19.854,9.131,27.261,17.024
		c4.908,4.466,8.247,10.248,11.807,15.775c2.432,3.648,3.151,8.125,5.671,11.729c8.004,23.027,6.39,49.481-5.34,70.994
		c-8.335,15.543-22.242,28.687-39.344,33.85c-13.653,4.654-29.074,3.626-42.163-2.355c-8.556-3.626-15.709-9.806-22.01-16.516
		c-9.198-9.098-14.471-21.314-18.251-33.485c-3.305-13.454-3.836-27.681-0.818-41.234c0.475-4.046,2.708-7.716,2.542-11.851
		c0.343,0.508,0.696,1.028,1.061,1.559C817.374,348.658,834.232,332.297,853.479,324.138 M869.785,435.404
		c-3.305,1.614-6.025,4.433-7.584,7.749c-4.134,8.479,0.486,21.004,10.469,22.375c5.273,0.995,9.872-2.697,12.647-6.81
		c4.046-6.323,2.985-15.432-2.609-20.496C879.446,434.874,874.096,433.204,869.785,435.404z"/>
	<path fill="#FEFEFE" stroke="#FEFEFE" stroke-width="0.1036" d="M518.188,435.194c4.687-2.189,9.938,0.376,13.056,4.068
		c7.539,7.882,4.135,23.237-6.743,26.167c-11.154,2.211-19.523-11.608-15.123-21.247C510.77,440.036,514.252,436.93,518.188,435.194
		z"/>
	<path fill="#FEFEFE" stroke="#FEFEFE" stroke-width="0.1036" d="M869.785,435.404c4.311-2.2,9.662-0.531,12.923,2.819
		c5.594,5.063,6.655,14.172,2.609,20.496c-2.775,4.112-7.374,7.805-12.647,6.81c-9.982-1.371-14.603-13.896-10.469-22.375
		C863.76,439.837,866.479,437.018,869.785,435.404z"/>
	<path stroke="#000000" stroke-width="0.1036" d="M1054.112,488.744c0.564,0.155,1.139,0.309,1.747,0.486
		c-8.535,5.362-15.063,9.052-21.786,16.702c-7.09,8.068-14.008,16.287-20.747,24.65c-26.683,33.113-50.336,68.512-73.494,104.136
		c-22.623,34.8-43.978,71.225-69.701,103.846c-17.956,22.771-37.979,44.194-61.203,61.681
		c-22.064,16.613-48.397,25.762-74.138,34.946c-2.169,0.774-4.338,1.548-6.506,2.321c0.473-0.053,0.947-0.107,1.42-0.16
		c-14.027,0-27.998,2.069-42.059,1.87c-14.473-0.205-28.981-1.649-42.997-5.379c-1.322-0.352-2.64-0.721-3.953-1.106
		c-74.671-21.925-112.987-96.006-145.069-160.542c-24.16-48.601-42.077-100.584-68.086-147.977
		c-2.355-4.477-5.726-8.313-8.037-12.812c1.47,0.144,3.106-0.022,4.4,0.917c11.961,7.031,24.254,13.487,36.735,19.545
		c10.613,5.483,21.358,10.734,32.313,15.51c12.525,6.058,25.15,11.939,38.15,16.914c38.445,14.711,76.249,26.735,117.445,31.538
		c22.183,2.586,44.569,3.432,66.884,2.512c83.562-3.444,168.99-25.862,244.94-60.633c9.191-4.208,18.281-8.634,27.448-12.894
		c12.227-5.903,24.763-11.198,36.547-17.942c5.815-3.228,11.099-7.385,17.246-9.993c3.659-2.399,7.396-4.687,11.386-6.522
		C1053.272,489.96,1053.835,489.153,1054.112,488.744 M932.233,562.192c-24.486,11.088-49.481,21.181-75.095,29.317
		c-4.555,1.47-9.153,3.173-13.984,3.184c0.542,0.376,1.106,0.763,1.68,1.172c-3.007-0.055-6.014,0.254-8.645,1.791
		c-17.378,4.157-34.59,9.717-52.389,11.806c-3.803,1.216-7.794,1.703-11.762,1.725c-4.112-0.122-7.959,1.603-12.061,1.47
		c-7.451,0.188-14.681,2.388-22.154,2.056c-9.518,1.393-19.147,1.017-28.731,1.183c-8.479-0.276-16.991,0.066-25.415-1.028
		c-10.292-0.21-20.595-0.089-30.887-0.508c-4.157-2.852-9.75-1.282-14.471-2.067c-12.89-2.498-25.901-3.969-38.67-7.053
		c-8.125-1.857-16.45-2.83-24.365-5.538c-13.332-3.748-26.498-8.048-39.62-12.47c-4.035-1.846-8.567-2.145-12.636-3.924
		c-13.841-5.627-28.223-9.817-41.787-16.107c-0.719-0.066-2.156-0.199-2.874-0.265c1.835,6.003,6.224,10.845,9.441,16.184
		c3.272,5.771,7.838,10.646,12.094,15.698c6.434,7.23,13.321,14.747,22.629,18.207c10.425,5.196,21.546,8.645,32.28,13.089
		c4.621,1.769,9.673,2.454,13.984,5.03c4.168,1.315,8.413,3.117,12.879,2.587c-0.564,0.398-1.128,0.796-1.669,1.205
		c1.78,0.166,3.582,0.365,5.362,0.785c8.512,2.863,17.234,5.715,26.277,6.323c1.15,0.752,2.288,1.669,3.737,1.835
		c9.198,1.57,18.484,2.509,27.67,4.146c8.004,0.608,16.04,0.951,24.011,2.012c3.416,0.453,6.898,0.409,10.336-0.055
		c7.573,0.763,15.233,0.387,22.85,0.531c14.062-0.21,28.223,0.497,42.141-1.901c2.498-0.509,5.141-0.133,7.617-0.73
		c4.157-3.117,9.684-0.917,14.338-2.675c17.433-3.007,34.734-6.976,51.637-12.293c20.606-6.6,41.334-13.255,60.602-23.215
		c4.344-2.421,9.507-3.427,13.233-6.887c2.112-1.946,4.234-3.88,6.611-5.505c10.005-7.163,18.97-15.62,28.157-23.779
		c7.02-6.467,15.233-12.182,19.865-20.761C939.949,557.394,936.345,560.478,932.233,562.192 M741.56,692.693
		c-3.847,0.973-7.694,1.901-11.353,3.46c-8.755,2.996-15.3,9.927-21.181,16.77c-2.023,0.708-4.09-0.365-5.848-1.249
		c-11.431-6.058-23.668-10.403-36.072-13.907c-4.953-0.166-9.363-3.106-14.415-2.476c-7.13,0.365-15.443-1.592-21.38,3.438
		c-7.44,5.251-6.71,15.576-6.898,23.657c-0.663,6.699,2.697,13.023,7.252,17.721c6.953,7.539,16.66,11.84,26.399,14.493
		c4.134,2.167,8.954,0.84,13.221,2.476c5.782,1.901,11.95,0.829,17.92,1.172c11.928,0.464,23.878-0.011,35.718-1.459
		c20.606-3.361,40.947-10.38,58.17-22.364c6.511-5.704,14.382-12.58,13.995-22.032c0.376-7.175-6.301-11.84-11.331-15.797
		c-7.937-6.401-18.594-4.621-28.024-4.941C752.35,691.986,746.8,691.19,741.56,692.693 M804.031,776.522
		c-13.155,7.595-27.394,13.023-41.743,17.853c-10.193,3.571-20.595,6.489-31.097,8.977c-6.39,0.254-12.492,2.277-18.793,3.184
		c-14.747,0.918-29.549,0.531-44.197-1.371c-10.491-0.542-20.684-3.316-30.843-5.793c-9.783-2.664-19.523-5.605-28.809-9.728
		c-2.952-1.094-5.804-3.416-9.109-2.454c0.475,1.481,0.873,3.073,1.736,4.444c10.126,16.991,27.98,27.758,46.607,33.208
		c3.891,2.067,8.302,2.31,12.636,1.99c-2.2,0.409-4.4,0.807-6.589,1.227c2.465-0.155,4.986-0.343,7.429,0.254
		c15.432,2.31,31.241,2.874,46.762,0.829c12.403-0.321,24.287-4.356,36.26-7.23c21.314-5.859,42.097-16.118,57.319-32.479
		c4.82-5.019,10.038-10.281,12.249-17.002C810.067,772.155,807.259,775.029,804.031,776.522z"/>
	<path fill="#D2DEDA" stroke="#D2DEDA" stroke-width="0.1036" d="M932.233,562.192c4.112-1.714,7.716-4.798,12.216-5.428
		c-4.632,8.578-12.846,14.294-19.865,20.761c-9.187,8.158-18.152,16.615-28.157,23.779c-2.377,1.625-4.499,3.56-6.611,5.505
		c-3.725,3.46-8.888,4.466-13.233,6.887c-19.268,9.96-39.996,16.615-60.602,23.215c-16.903,5.317-34.203,9.286-51.637,12.293
		c-4.654,1.758-10.181-0.442-14.338,2.675c-2.476,0.597-5.118,0.221-7.617,0.73c-13.918,2.399-28.079,1.691-42.141,1.901
		c-7.617-0.144-15.278,0.232-22.85-0.531c-4.267-0.818-8.556-1.415-12.846-1.957c4.742-0.188,9.507-0.265,14.239,0.431
		c4.588,0.84,9.319-1.426,12.702-4.333c1.161-7.584-0.376-15.256-1.548-22.74c-4.632-1.006-9.374-0.708-14.062-0.641
		c-5.97,0.122-11.818-1.26-17.765-1.559c-8.479-0.542-17.069,0.155-25.47-1.382c-4.123-0.774-8.214-1.691-12.293-2.62
		c-1.338,3.316-0.188,6.876-0.188,10.314c0.299,4.356-0.144,9.408,3.162,12.813c4.632,5.483,12.514,4.665,18.649,7.274
		c-4.731,0.575-9.352-0.409-13.885-1.581c-5.494-0.575-10.999-1.006-16.45-1.957c-9.043-0.608-17.765-3.46-26.277-6.323
		c-1.78-0.42-3.582-0.619-5.362-0.785c0.542-0.409,1.105-0.807,1.669-1.205c-4.466,0.531-8.711-1.271-12.879-2.587
		c-4.311-2.576-9.363-3.261-13.984-5.03c-10.734-4.444-21.855-7.893-32.28-13.089c-9.308-3.46-16.195-10.977-22.629-18.207
		c-4.256-5.052-8.822-9.927-12.094-15.698c-3.217-5.339-7.606-10.182-9.441-16.184c0.719,0.066,2.156,0.199,2.874,0.265
		c13.564,6.29,27.946,10.48,41.787,16.107c4.068,1.78,8.601,2.078,12.636,3.924c13.122,4.422,26.288,8.722,39.62,12.47
		c7.915,2.708,16.239,3.681,24.365,5.538c12.768,3.084,25.78,4.555,38.67,7.053c4.72,0.785,10.314-0.785,14.471,2.067
		c10.292,0.42,20.595,0.298,30.887,0.508c8.424,1.094,16.936,0.752,25.415,1.028c9.584-0.166,19.213,0.21,28.731-1.183
		c7.473,0.332,14.703-1.868,22.154-2.056c4.101,0.133,7.948-1.592,12.061-1.47c3.969-0.022,7.96-0.508,11.762-1.725
		c17.798-2.089,35.011-7.65,52.389-11.806c2.631-1.537,5.638-1.846,8.645-1.791c-0.575-0.409-1.139-0.796-1.68-1.172
		c4.831-0.011,9.43-1.713,13.984-3.184C882.752,583.373,907.747,573.28,932.233,562.192 M860.344,598.352
		c-8.402,3.571-17.798,5.505-24.851,11.663c-3.648,3.316-7.794,6.688-9.076,11.685c2.034,1.592,4.477,3.283,7.219,2.764
		c5.273-0.984,10.447-2.841,14.924-5.848c5.66-3.869,11.917-6.987,16.748-11.961c3.681-3.615,9.629-6.445,9.573-12.359
		C869.707,594.096,865.009,596.484,860.344,598.352 M536.693,600.883c0.133,3.692,3.073,6.279,5.284,8.932
		c4.897,5.03,9.352,10.624,15.211,14.614c5.947,4.444,13.94,6.832,21.236,4.93c0.918-6.058-1.526-12.746-6.931-15.919
		c-5.472-2.675-11.696-3.35-17.157-6.091C548.566,604.996,543.116,601.005,536.693,600.883 M782.96,617.432
		c-9.474,1.979-19.114,2.963-28.687,4.389c-13.741,2.509-27.759,1.083-41.632,1.437c-1.769,8.556-1.271,17.511-3.195,26.1
		c6.301,1.968,13.111,0.409,19.622,0.862c5.317,0.564,10.093-2.576,15.399-2.222c5.881,0.387,11.497-1.614,17.212-2.686
		c7.009-1.603,14.316-2.963,20.518-6.832c6.677-5.041,11.829-13.1,10.889-21.767C789.704,616.902,786.299,616.824,782.96,617.432z"
		/>
	<path fill="#FCFDFD" stroke="#FCFDFD" stroke-width="0.1036" d="M860.344,598.352c4.665-1.868,9.363-4.256,14.537-4.057
		c0.055,5.914-5.892,8.744-9.573,12.359c-4.831,4.975-11.088,8.092-16.748,11.961c-4.477,3.007-9.651,4.864-14.924,5.848
		c-2.742,0.52-5.185-1.172-7.219-2.764c1.282-4.997,5.428-8.368,9.076-11.685C842.546,603.857,851.942,601.922,860.344,598.352z"/>
	<path fill="#FBFDFC" stroke="#FBFDFC" stroke-width="0.1036" d="M536.693,600.883c6.423,0.122,11.873,4.112,17.643,6.467
		c5.461,2.742,11.685,3.416,17.157,6.091c5.406,3.173,7.849,9.861,6.931,15.919c-7.296,1.901-15.289-0.486-21.236-4.93
		c-5.859-3.991-10.314-9.585-15.211-14.614C539.766,607.162,536.826,604.576,536.693,600.883z"/>
	<path fill="#FDFEFE" stroke="#FDFEFE" stroke-width="0.1036" d="M782.96,617.432c3.339-0.608,6.744-0.531,10.126-0.719
		c0.94,8.667-4.212,16.726-10.889,21.767c-6.202,3.869-13.509,5.229-20.518,6.832c-5.715,1.072-11.331,3.073-17.212,2.686
		c-5.306-0.354-10.082,2.786-15.399,2.222c-6.511-0.453-13.321,1.105-19.622-0.862c1.924-8.59,1.426-17.544,3.195-26.1
		c13.874-0.354,27.891,1.072,41.632-1.437C763.847,620.395,773.486,619.411,782.96,617.432z"/>
	<path fill="#FEFEFE" stroke="#FEFEFE" stroke-width="0.1036" d="M620.168,629.493c0-3.438-1.15-6.998,0.188-10.314
		c4.079,0.929,8.169,1.846,12.293,2.62c8.402,1.537,16.991,0.84,25.47,1.382c5.948,0.299,11.795,1.68,17.765,1.559
		c4.687-0.066,9.43-0.365,14.062,0.641c1.172,7.484,2.708,15.156,1.548,22.74c-3.383,2.907-8.114,5.174-12.702,4.333
		c-4.731-0.696-9.496-0.619-14.239-0.431c-7.539-0.696-15.046-1.714-22.574-2.443c-6.135-2.609-14.017-1.791-18.649-7.274
		C620.024,638.901,620.466,633.849,620.168,629.493z"/>
	<path fill="#FFFFFF" stroke="#FFFFFF" stroke-width="0.1036" d="M741.56,692.693c5.24-1.503,10.789-0.708,16.173-1.039
		c9.43,0.321,20.087-1.459,28.024,4.941c5.03,3.958,11.707,8.623,11.331,15.797c0.387,9.452-7.484,16.328-13.995,22.032
		c-17.223,11.983-37.564,19.003-58.17,22.364c-11.84,1.448-23.79,1.924-35.718,1.459c-5.97-0.343-12.138,0.73-17.92-1.172
		c-4.267-1.636-9.087-0.31-13.221-2.476c-9.739-2.653-19.445-6.953-26.399-14.493c-4.555-4.698-7.915-11.022-7.252-17.721
		c0.188-8.081-0.542-18.406,6.898-23.657c5.936-5.03,14.25-3.073,21.38-3.438c5.052-0.63,9.463,2.31,14.415,2.476
		c12.403,3.504,24.641,7.849,36.072,13.907c1.758,0.884,3.825,1.957,5.848,1.249c5.881-6.843,12.426-13.774,21.181-16.77
		C733.866,694.595,737.713,693.666,741.56,692.693z"/>
	<path fill="#FDFDFD" stroke="#FDFDFD" stroke-width="0.1036" d="M804.031,776.522c3.228-1.492,6.036-4.367,9.817-4.09
		c-2.211,6.721-7.429,11.983-12.249,17.002c-15.222,16.361-36.005,26.62-57.319,32.479c-11.972,2.874-23.856,6.909-36.26,7.23
		c-15.521,2.045-31.329,1.481-46.762-0.829c-2.443-0.597-4.964-0.409-7.429-0.254c2.189-0.42,4.389-0.818,6.589-1.227
		c-4.333,0.321-8.744,0.077-12.636-1.99c-18.627-5.45-36.481-16.217-46.607-33.208c-0.862-1.371-1.26-2.963-1.736-4.444
		c3.305-0.962,6.158,1.36,9.109,2.454c9.286,4.123,19.025,7.064,28.809,9.728c10.159,2.476,20.352,5.251,30.843,5.793
		c14.648,1.901,29.45,2.288,44.197,1.371c6.301-0.906,12.404-2.93,18.793-3.184c10.502-2.487,20.905-5.406,31.097-8.977
		C776.637,789.544,790.876,784.116,804.031,776.522z"/>
</g>
</svg>
