<?xml version="1.0" encoding="utf-8"?>

<!DOCTYPE svg PUBLIC "-//W3C//DTD SVG 1.1//EN" "http://www.w3.org/Graphics/SVG/1.1/DTD/svg11.dtd">
<svg version="1.1" id="Layer_1" xmlns="http://www.w3.org/2000/svg" xmlns:xlink="http://www.w3.org/1999/xlink" x="0px" y="0px"
	 viewBox="0 0 1865.736 1686.806" enable-background="new 0 0 1865.736 1686.806" xml:space="preserve">
<g>
	<path fill="#3B3B3B" stroke="#3B3B3B" d="M115.511,61.572c22.247-6.821,45.171-11.143,67.535-17.574
		c3.085-1.237,6.392-0.651,7.589,2.747c18.485,35.277,37.191,70.451,55.493,105.806c6.86,11.963,12.406,24.642,19.604,36.41
		c-1.497,0.534-2.968,1.172-4.374,1.901c-1.953-5.585-4.595-10.883-7.498-16.025c-18.693-35.525-37.347-71.062-56.053-106.574
		c-3.801-7.068-7.082-14.41-11.325-21.232c-10.323,2.408-20.724,4.569-30.891,7.628c6.027,15.504,12.9,30.669,18.42,46.381
		c4.022,11.612,8.461,23.093,12.184,34.822c3.072,8.917,5.22,18.68,11.963,25.71c7.003,8.253,17.17,13.239,23.588,22.013
		c3.541,4.843-1.901,9.49-4.947,12.861c-9.425,10.544-22.82,16.78-36.54,19.409c-15.738,1.796-31.567,0.247-47.175-1.875
		c-0.443-1.614-0.95-3.202-1.458-4.79c-0.534,4.856-1.08,9.711-1.692,14.554c0.495-10.089-2.786-19.891-2.239-29.992
		c0.443-8.8-3.111-17.196-2.525-26.009c0.56-8.813-2.721-17.248-2.512-26.035c0.052-5.311-0.312-10.622-1.445-15.816
		c-1.731-8.396-0.456-17.079-2.239-25.462c-1.875-9.633-0.833-19.539-2.59-29.185C115.849,68.041,115.628,64.813,115.511,61.572
		 M133.84,60.062c-4.712,1.211-9.828,1.432-14.072,4.022c-0.469,2.838,0.104,5.702,0.351,8.539c1.041,7.55,0.169,15.27,1.888,22.729
		c1.822,8.722,0.599,17.73,2.421,26.451c1.77,9.646,0.898,19.539,2.538,29.198c1.536,9.464,1.106,19.136,2.59,28.612
		c1.211,7.98,1.028,16.103,2.031,24.108c0.417,2.304,1.015,5.467,3.697,6.118c19.396,4.504,40.628,6.222,59.373-1.796
		c10.206-4.205,18.42-12.197,24.954-20.906c-4.179-7.068-11.755-10.883-17.404-16.571c-5.689-5.793-12.119-11.573-14.567-19.578
		c-2.447-7.394-4.699-14.866-7.537-22.13c-4.257-11.052-7.394-22.507-12.054-33.39c-5.233-13.135-9.893-26.491-15.946-39.287
		C145.764,56.026,139.932,58.773,133.84,60.062z"/>
	<path fill="#E3E4E6" stroke="#E3E4E6" d="M155.592,54.659c10.167-3.059,20.568-5.22,30.891-7.628
		c4.244,6.821,7.524,14.163,11.325,21.232c18.706,35.512,37.36,71.049,56.053,106.574c2.903,5.142,5.545,10.44,7.498,16.025
		c-11.586,11.911-24.785,22.455-39.794,29.719c-18.185,7.928-38.532,12.067-58.318,9.177c-10.167-1.289-20.633-2.59-29.901-7.264
		c-0.039-2.851-0.078-5.689-0.26-8.513c15.608,2.122,31.437,3.671,47.175,1.875c13.72-2.63,27.115-8.865,36.54-19.409
		c3.046-3.372,8.487-8.019,4.947-12.861c-6.418-8.774-16.584-13.759-23.588-22.013c-6.743-7.029-8.891-16.793-11.963-25.71
		c-3.723-11.729-8.162-23.21-12.184-34.822C168.492,85.329,161.619,70.163,155.592,54.659z"/>
	<path fill="#FFFFFF" stroke="#FFFFFF" d="M133.84,60.062c6.092-1.289,11.924-4.035,18.264-3.879
		c6.053,12.796,10.713,26.152,15.946,39.287c4.66,10.883,7.797,22.338,12.054,33.39c2.838,7.264,5.09,14.736,7.537,22.13
		c2.447,8.006,8.878,13.786,14.567,19.578c5.65,5.689,13.226,9.503,17.404,16.571c-6.535,8.709-14.749,16.701-24.954,20.906
		c-18.745,8.019-39.977,6.3-59.373,1.796c-2.682-0.651-3.28-3.814-3.697-6.118c-1.002-8.006-0.82-16.129-2.031-24.108
		c-1.484-9.477-1.054-19.149-2.59-28.612c-1.64-9.659-0.768-19.552-2.538-29.198c-1.822-8.722-0.599-17.73-2.421-26.451
		c-1.718-7.459-0.846-15.178-1.888-22.729c-0.247-2.838-0.82-5.702-0.351-8.539C124.011,61.494,129.127,61.272,133.84,60.062z"/>
	<path fill="#3C191D" stroke="#3C191D" d="M261.359,190.861c1.406-0.729,2.877-1.367,4.374-1.901
		c6.938,0.729,13.759,2.525,20.776,2.734c-0.534,0.495-1.08,0.976-1.601,1.484c7.667,0.547,15.322,2.135,22.403,5.194
		c11.599,5.155,23.523,9.711,34.405,16.337c9.477,5.376,17.86,12.367,26.504,18.953c15.022,12.367,27.61,27.506,38.219,43.752
		c6.287,8.982,10.128,19.318,15.387,28.886c3.007,6.196,4.296,13.031,6.782,19.448c4.738,13.773,5.754,28.443,9.594,42.463
		c2.942,5.78,2.486,12.432,4.764,18.42c6.157,17.821,10.726,36.176,15.829,54.322c6.183,21.492,11.455,43.231,17.652,64.723
		c4.895,15.686,8.578,31.737,13.499,47.436c10.167,40.094,21.882,79.784,32.895,119.657c8.722,33.741,18.511,67.196,27.818,100.781
		c3.215,13.59,8.097,26.725,10.896,40.432c8.019,29.445,16.194,58.839,24.564,88.167c9.607,36.137,19.669,72.143,29.875,108.123
		c4.074,12.21,6.613,24.837,9.932,37.269c16.597,57.915,31.867,116.22,48.308,174.187c3.332,11.208,6.418,22.494,9.373,33.819
		c3.176,13.408,7.915,26.373,10.818,39.859c11.547,39.951,21.869,80.214,33.26,120.203c2.981,11.989,7.186,23.64,9.828,35.72
		c0,1.289-0.013,2.59-0.026,3.918c-0.612,0.013-1.862,0.039-2.473,0.052c-5.806,0.182-11.195,2.564-16.688,4.205
		c-30.018,8.865-60.154,17.326-90.328,25.671c-9.529,2.447-18.771,5.871-28.378,7.954c-15.217,3.332-30.201,7.602-45.223,11.716
		c-13.044,3.046-25.97,6.548-38.974,9.763c-10.818,3.58-22.117,5.311-33.038,8.513c-44.286,10.466-88.428,21.57-132.583,32.609
		c-8.448,2.486-17.066,4.296-25.71,5.962c-2.851,0.378-4.96,2.369-6.574,4.608c-0.495,0.625-1.484,1.875-1.979,2.512
		c-2.278-8.11-3.684-16.428-5.897-24.538c-1.432-5.129-2.174-10.427-2.304-15.738c-0.508,0.521-1.002,1.068-1.497,1.627
		c-1.146-14.02-6.066-27.337-8.552-41.122c-3.554-17.86-8.579-35.382-12.119-53.255c-2.317-11.39-5.91-22.494-7.784-33.976
		c-6.548-29.966-13.955-59.737-20.516-89.704c-1.276-8.539-4.478-16.623-5.793-25.137c-1.588-10.583-4.986-20.776-7.446-31.164
		c-2.968-16.727-7.199-33.195-10.948-49.753c-2.604-12.184-5.48-24.317-8.657-36.358c-6.3-28.534-13.096-56.952-19.175-85.525
		c-6.457-26.478-12.223-53.085-18.628-79.576c-5.012-22.95-9.958-45.9-15.361-68.771c-1.979-9.529-5.324-18.732-6.652-28.404
		c-7.967-33.429-14.827-67.118-22.95-100.508c-2.812-11.026-5.624-22.078-7.029-33.377c-0.547,0.521-1.067,1.041-1.601,1.588
		c0.521-7.719-2.005-15.113-3.684-22.533c-2.512-10.727-4.452-21.583-7.602-32.14c-8.644-40.497-18.42-80.721-27.519-121.102
		c-5.754-21.544-9.047-43.648-15.217-65.074c-1.862-11.794-5.181-23.262-8.058-34.822c-2.89-15.647-7.199-30.982-10.271-46.59
		c-1.028-5.103-2.981-9.932-4.517-14.879c-3.619-11.677-5.78-23.757-7.368-35.863c-0.716-9.542-0.195-19.136-0.364-28.704
		c-0.156-8.513,0.573-17.105,3.098-25.293c-0.052,4.569,0.065,9.151,0.104,13.72c0.039,13.981-1.315,28.066,0.937,41.942
		c1.901,13.017,4.257,26.022,8.526,38.493c3.15,9.021,5.142,18.368,7.238,27.662c80.721,353.19,161.547,706.368,242.294,1059.558
		c2.148,9.958,4.986,19.787,6.248,29.94c11.768-1.106,22.95-5.181,34.418-7.797c97.761-24.004,195.666-47.501,292.698-74.304
		c10.596-2.578,20.815-6.86,31.698-8.162c1.914,0.065,3.814,0.247,5.741,0.443c-0.221-1.315-0.443-2.604-0.664-3.853
		c4.764-0.365,9.529-1.172,14.046-2.786c12.64-4.4,25.827-7.081,38.362-11.807c-0.299-5.298-1.367-10.479-3.085-15.465
		c-29.719-106.73-58.904-213.604-88.532-320.36c-65.452-237.348-131.06-474.643-196.525-711.978
		c-4.53-17.86-10.466-35.368-13.994-53.476c-6.86-40.927-27.506-79.485-58.084-107.59c-24.304-22.533-54.504-38.558-86.749-46.16
		c-6.405-1.471-12.952-3.319-19.578-2.669c-3.762,1.028-6.431,4.153-9.281,6.626c-18.576,18.094-43.01,30.37-68.823,33.468
		c-15.738,1.237-31.971,0.807-46.98-4.582c-3.918-1.054-8.526-3.736-12.262-0.742c-32.335,23.874-56.86,58.188-68.876,96.564
		c-2.773,9.242-5.142,18.615-6.925,28.092c-0.612-2.083-1.315-4.127-1.927-6.183c-0.234-1.536-0.13-3.046,0.312-4.53
		c5.975-23.77,14.71-47.175,28.743-67.431c6.261-11.143,15.217-20.359,23.692-29.797c8.058-7.758,16.337-15.504,26.035-21.219
		c0.612-4.842,1.159-9.698,1.692-14.554c0.508,1.588,1.015,3.176,1.458,4.79c0.182,2.825,0.221,5.663,0.26,8.513
		c9.268,4.673,19.735,5.975,29.901,7.264c19.787,2.89,40.133-1.25,58.318-9.177C236.574,213.316,249.773,202.772,261.359,190.861z"
		/>
	<path fill="#AE343F" stroke="#AE343F" d="M256.946,200.104c2.851-2.473,5.519-5.598,9.281-6.626
		c6.626-0.651,13.174,1.198,19.578,2.669c32.244,7.602,62.445,23.627,86.749,46.16c30.578,28.105,51.224,66.663,58.084,107.59
		c3.528,18.107,9.464,35.616,13.994,53.476c65.465,237.335,131.073,474.63,196.525,711.978
		c29.628,106.756,58.813,213.63,88.532,320.36c1.718,4.986,2.786,10.167,3.085,15.465c-12.536,4.725-25.723,7.407-38.362,11.807
		c-4.517,1.614-9.281,2.421-14.046,2.786c-20.06-103.788-52.877-204.414-82.856-305.598c-11.963-40.758-23.34-81.711-33.156-123.041
		c-4.179-15.426-13.942-28.352-21.557-42.138c-5.428-9.321-8.761-19.604-11.846-29.875
		c-39.039-119.097-65.374-242.125-108.943-359.777c-23.614-63.07-52.356-124.59-90.016-180.579
		c-24.915-36.553-62.77-62.77-103.775-78.378c-25.462-9.542-51.732-18.459-79.12-19.813c-7.85-0.508-15.673,0.677-23.484,1.393
		c-14.254,1.119-28.014,5.558-41.239,10.818c-10.831,4.335-20.659,10.635-30.786,16.324c-0.13-0.547-0.391-1.653-0.508-2.2
		c1.783-9.477,4.153-18.849,6.925-28.092c12.015-38.376,36.54-72.69,68.876-96.564c3.736-2.994,8.344-0.312,12.262,0.742
		c15.009,5.389,31.242,5.819,46.98,4.582C213.936,230.474,238.37,218.198,256.946,200.104z"/>
	<path fill="#5D5D5D" stroke="#5D5D5D" d="M695.778,200.026c4.764-0.651,9.503-1.666,14.358-1.679
		c19.5-0.13,39.013,0.013,58.527-0.091c4.114-0.039,8.24,0.26,12.328,0.898c-2.525,0.885-4.973,1.901-7.472,2.773
		c-14.176-1.211-28.404-0.586-42.593-0.755c-10.297-0.169-20.516,1.237-30.773,1.835c-5.038-1.731-10.362-1.77-15.517-0.638
		C688.046,200.494,692.016,200.585,695.778,200.026z"/>
	<path fill="#6E6E6E" stroke="#6E6E6E" d="M780.991,199.153c2.161-0.807,4.478-0.052,6.678,0.221
		c11.078,1.914,22.703,1.979,33.312,5.936c-5.363-0.963-10.805-1.484-16.233-1.224c2.643,1.159,5.337,2.239,8.149,2.968
		c-8.722-0.989-17.3-3.111-26.087-3.359c-4.491-0.156-8.904-0.95-13.291-1.77C776.018,201.054,778.465,200.039,780.991,199.153
		 M786.666,201.991c4.79,1.692,9.945,1.523,14.801,0.143C796.573,201.236,791.561,201.106,786.666,201.991z"/>
	<path fill="#020202" stroke="#020202" d="M1178.415,201.523c12.744-0.599,25.293-3.697,38.115-3.15
		c19.643,0.299,39.339-0.651,58.956,0.586c-1.731,0.794-3.398,1.666-5.077,2.473c-14.501-0.794-29.016-0.352-43.517-0.456
		c-9.203,0.169-18.511-0.586-27.558,1.393c-6.587-0.495-13.174-0.638-19.76-0.703L1178.415,201.523z"/>
	<path fill="#656565" stroke="#656565" d="M1275.486,198.958c4.14-0.664,8.318,1.276,12.523,1.406
		c8.058,0.456,15.973,2.122,23.835,3.97l-1.133-0.013c-3.333-0.104-6.678-0.13-9.998-0.182c2.278,0.963,4.569,1.979,6.925,2.864
		c-8.318-0.82-16.48-2.734-24.824-3.293c-4.218-0.286-8.331-1.25-12.406-2.278C1272.088,200.624,1273.755,199.752,1275.486,198.958
		 M1281.396,202.382c4.478,0.651,9.36,1.731,13.642-0.377C1290.508,201.288,1285.77,200.755,1281.396,202.382z"/>
	<path fill="#F2F2F2" stroke="#F2F2F2" d="M668.429,204.282c4.751-2.851,10.857-1.953,16.207-1.914
		c5.09,1.211,10.336,1.263,15.517,0.638c10.258-0.599,20.477-2.005,30.773-1.835c14.189,0.169,28.417-0.456,42.593,0.755
		c4.387,0.82,8.8,1.614,13.291,1.77c8.787,0.247,17.365,2.369,26.087,3.359c17.782,3.02,35.134,8.058,52.135,13.968
		c37.894,13.72,77.832,24.226,118.433,22.846c16.558-0.338,33.247,1.041,49.675-1.705c25.723-3.046,50.964-9.503,75.254-18.459
		c27.636-10.323,56.548-17.678,85.954-20.411c1.653-0.26,3.307-0.612,4.986-0.924c9.047-1.979,18.355-1.224,27.558-1.393
		c14.501,0.104,29.016-0.338,43.517,0.456c4.074,1.028,8.188,1.992,12.406,2.278c8.344,0.56,16.506,2.473,24.824,3.293
		c49.219,9.36,96.46,29.576,136.566,59.737c54.322,40.172,94.338,97.722,118.199,160.545c2.864,7.654,5.637,15.348,8.67,22.95
		c0.716,6.769-2.643,12.9-5.012,19.005c-4.687,11.104-8.579,22.52-13.304,33.611c-3.567,8.813-7.654,17.456-10.114,26.673
		c-2.109,8.045-6.118,15.387-8.839,23.223c-15.751,39.026-30.669,78.404-46.72,117.327c-2.786,6.73-4.166,14.358-1.601,21.401
		c6.535,18.836,11.833,38.128,15.23,57.785c1.744,17.522,5.441,34.835,6.483,52.435c0.052,15.608,0.013,31.216,0.026,46.837
		c-0.898,19.123-5.754,37.725-9.268,56.457c-7.055,22.468-16.988,43.895-25.137,65.973c-5.012,13.746-11.377,26.946-16.311,40.719
		c-9.399,25.15-20.19,49.74-29.511,74.915c-0.638,1.367-1.224,2.773-1.783,4.192c-5.832,15.504-12.497,30.682-18.094,46.277
		c-4.686,11.039-7.849,22.937-15.113,32.7c-13.46,19.149-26.49,38.597-39.899,57.772c-7.849,11.703-16.311,23.002-23.757,34.978
		c-5.636,9.815-8.409,20.932-12.939,31.255c-10.492,27.519-22.013,54.608-32.531,82.114c-4.973,13.017-10.075,26.009-15.608,38.805
		c-10.518,27.922-21.83,55.546-32.817,83.286c-1.862,4.895-4.96,10.401-2.369,15.647c4.348,9.425,12.809,16.142,21.049,22.078
		c7.771,5.22,15.933,11.507,25.801,11.247c7.563,0.221,14.905-4.088,18.407-10.779c4.166-8.11,6.769-16.897,10.245-25.293
		c11.664-27.259,21.453-55.272,32.908-82.609c8.175-21.323,16.962-42.398,25.085-63.734c10.974-27.285,22.117-54.517,32.465-82.036
		c15.543-37.568,29.771-75.645,45.288-113.213c12.249-31.828,24.603-63.642,37.672-95.145
		c10.661-27.714,21.648-55.311,32.674-82.882c0.26,4.101,0.286,8.227-0.26,12.314l-0.182,0.729
		c-1.354,4.895-2.083,9.932-2.851,14.957l-0.156,0.755c-0.95,4.634-1.966,9.281-2.343,14.02l-0.156,1.341
		c-3.307,11.885-3.905,24.278-4.947,36.514c-0.182,1.822-0.351,3.671-0.521,5.532c-0.638,4.361-1.497,8.709-1.94,13.121
		c-0.351,3.437-0.547,6.899-0.781,10.362c-0.638,3.398-1.432,6.756-1.809,10.206c-2.369,28.443-7.55,56.561-11.182,84.861
		c-5.116,31.75-10.063,63.538-16.871,94.975c-5.454,28.43-12.002,56.665-19.891,84.51c-3.385,14.475-7.901,28.651-12.341,42.828
		c-3.189,9.88-5.949,19.904-9.724,29.589c-5.637,14.189-10.375,28.743-17.092,42.489c-8.214,19.266-17.691,38.011-28.964,55.689
		c-21.44,34.835-50.599,67.574-89.834,82.153c-21.57,7.915-44.481,13.825-67.639,12.171c-21.856-1.809-43.231-11.859-57.511-28.704
		c-18.706-21.531-28.339-49.193-34.405-76.647c-5.025-20.125-6.509-40.849-9.203-61.351c-0.065-10.844-0.352-21.7-1.289-32.492
		c-0.911-6.144-1.276-12.354-1.276-18.55c-0.026-7.446-1.849-14.697-2.577-22.078c-3.515-30.188-11.013-59.828-21.388-88.376
		c-13.538-35.72-32.804-70.255-61.56-95.978c-11.585-10.128-26.972-16.194-42.424-15.66c-10.427-0.391-21.088,0.742-30.526,5.441
		c-12.406,5.363-21.908,15.283-30.76,25.176c-12.965,15.009-23.952,31.737-32.57,49.61c-9.568,17.521-16.194,36.475-22.234,55.454
		c-5.597,18.433-8.709,37.451-12.731,56.261c-1.445,7.993-1.185,16.181-2.395,24.225c-1.263,7.889-1.276,15.881-1.575,23.848
		c-1.12,8.305-2.421,16.61-2.135,25.02c0.273,7.563-0.768,15.061-1.992,22.52c-1.705,20.047-5.22,39.886-9.867,59.451
		c-3.228,13.2-7.823,26.1-14.176,38.141c-8.618,18.355-22.273,34.809-40.25,44.559c-19.032,10.336-41.708,12.471-62.783,8.553
		c-14.462-2.512-28.586-6.639-42.359-11.625c-21.101-8.761-39.86-22.677-55.285-39.456c-8.526-9.659-17.665-19.162-23.418-30.812
		c28.482-7.121,56.86-14.697,85.473-21.388c20.698-5.871,41.721-10.466,62.575-15.777c0.026-8.917-3.814-17.105-6.027-25.566
		c-3.84-14.332-7.446-28.73-12.015-42.84c-2.643-12.08-6.847-23.731-9.828-35.72c-11.39-39.99-21.713-80.253-33.26-120.203
		c-2.903-13.486-7.641-26.452-10.818-39.859c-2.955-11.325-6.04-22.611-9.373-33.819c-16.441-57.967-31.711-116.272-48.308-174.187
		c-3.32-12.432-5.858-25.059-9.932-37.269c-10.206-35.98-20.268-71.987-29.875-108.123c-8.37-29.328-16.545-58.722-24.564-88.167
		c-2.799-13.707-7.68-26.842-10.896-40.432c-9.307-33.585-19.097-67.04-27.818-100.781c-11.013-39.873-22.729-79.563-32.895-119.657
		c-4.921-15.699-8.605-31.75-13.499-47.436c-6.196-21.492-11.468-43.231-17.652-64.723c-5.103-18.146-9.672-36.501-15.829-54.322
		c-0.508-4.478-1.25-9.373,1.198-13.46c19.045-33.39,43.036-64.176,72.026-89.547c43.244-38.284,96.876-64.632,153.554-75.71
		c4.348-0.768,8.657-1.901,12.666-3.814C677.762,203.449,673.037,203.449,668.429,204.282 M778.231,362.119
		c-13.603,4.634-25.306,14.319-32.817,26.543c2.148,1.419,4.309,2.825,6.496,4.218c3.84-4.322,6.235-9.932,11.091-13.317
		c5.129-3.736,10.297-7.654,16.35-9.737c10.336-3.827,21.674-2.955,32.375-1.38c18.927,3.424,34.822,14.723,50.69,24.863
		c1.848-1.822,4.895-5.103,2.2-7.472c-12.25-10.076-26.894-16.675-41.604-22.299C808.575,359.321,792.811,357.472,778.231,362.119
		 M1140.599,364.085c-11.455,4.777-21.557,13.668-26.751,25.033c1.705,0.898,3.424,1.835,5.129,2.812
		c3.528-3.476,6.665-7.316,10.141-10.857c6.977-7.068,16.22-12.119,26.191-13.148c16.988-2.512,34.288,1.731,49.323,9.698
		c8.748,4.882,17.795,9.529,25.215,16.402c1.914-1.875,5.025-5.233,2.369-7.719c-16.493-12.367-35.069-23.132-55.793-26.1
		C1164.395,358.188,1151.976,359.893,1140.599,364.085 M791.04,446.382c-14.593,5.376-25.814,16.675-35.629,28.326
		c-11.455,14.501-18.615,31.789-24.837,49.037c-3.059,12.158-6.834,24.33-7.967,36.853c-2.187,6.912-3.007,14.241-2.174,21.466
		c-0.781,5.48-0.299,11.039-0.391,16.545c0.091,10.063-0.156,20.372,2.812,30.096c-0.286,4.53,0.976,8.969,1.862,13.395
		c2.669,14.02,6.821,27.74,11.768,41.122c8.305,18.407,18.979,36.514,35.017,49.245c6.105,4.855,12.64,9.425,20.034,12.106
		c14.319,4.725,30.396,4.569,44.338-1.419c10.284-3.619,18.667-10.909,26.491-18.251c9.269-10.726,17.704-22.403,23.34-35.473
		c3.905-9.125,7.836-18.29,10.805-27.766c1.757-8.904,4.738-17.534,5.845-26.556c4.686-28.43,4.14-57.746-1.575-85.994
		c-2.512-17.951-8.917-35.082-16.779-51.328c-7.889-15.517-17.847-30.578-31.841-41.226c-9.672-6.795-20.503-13.577-32.752-13.473
		C809.89,443.088,799.879,442.06,791.04,446.382 M1127.516,457.642c-8.54,7.134-15.751,15.751-21.804,25.072
		c-12.809,18.706-19.904,40.641-24.838,62.588c-4.439,18.303-4.764,37.295-4.348,56.027c-0.599,18.368,2.604,36.566,6.509,54.439
		c4.035,13.343,7.927,26.907,14.918,39.078c8.709,18.589,22.663,35.082,40.563,45.34c6.235,4.908,14.397,5.832,21.947,7.238
		c12.783,1.119,26.803,0.195,37.751-7.16c15.231-7.928,26.764-21.518,35.382-36.111c8.93-12.236,13.33-26.933,18.264-41.07
		c3.931-16.91,8.813-33.924,8.331-51.458c-0.156-14.332,0.313-28.677-0.273-42.984c-3.332-26.777-10.128-53.567-23.405-77.233
		c-10.167-18.862-25.124-36.293-45.301-44.624c-11.26-5.285-24.082-3.866-36.097-3.202
		C1145.129,446.382,1135.678,451.25,1127.516,457.642 M880.301,819.515c-7.342,1.77-14.736,3.346-22,5.415
		c-5.689,1.666-11.69,2.447-16.975,5.246c-17.092,3.293-33.663,8.982-50.951,11.234c-11.494,2.499-23.327,2.083-34.9,3.97
		c0.117,2.291,0.794,4.504,1.953,6.509c3.853,7.042,7.199,14.358,11.065,21.414c11.286,21.713,25.592,41.734,41.239,60.505
		c16.467,18.303,34.054,35.824,54.621,49.532c21.427,15.061,45.379,26.556,70.776,33.116c3.619,2.929,8.526,2.877,12.874,3.97
		c8.305,1.276,16.519,3.554,24.968,3.476c7.823-0.026,15.621,1.445,23.445,0.625c7.693-0.924,15.543-0.117,23.171-1.718
		c5.389-1.185,11.13-1.172,16.194-3.606c9.269-1.458,17.951-5.233,26.881-7.967c12.979-4.725,25.814-10.036,37.608-17.326
		c11.078-5.819,20.776-13.773,30.877-21.075c8.318-5.91,14.749-13.981,22.885-20.138c22.768-23.418,42.619-49.779,58.24-78.495
		c5.324-9.099,10.362-18.446,13.746-28.456c-14.658-2.317-29.693-2.317-44.051-6.418c-11.507-1.796-22.781-4.751-34.158-7.147
		c-9.464-2.46-18.654-5.91-28.287-7.641c-11.429-2.304-22.716-6.131-34.418-6.522c-5.624-1.093-11.325-1.471-17.027-1.38
		c-3.554,0.13-7.368-0.521-10.557,1.393c-6.157-0.56-12.276,0.911-17.977,3.15c-12.562,4.96-25.605,9.542-39.235,9.867
		c-6.001,0.586-12.028,1.901-18.029,0.599c-13.538-1.289-26.725-4.921-39.339-9.906c-2.499-1.692-5.22-3.059-8.214-3.476
		c-10.115-1.679-20.398-3.411-30.656-2.044C896.143,817.354,888.073,817.549,880.301,819.515z"/>
	<path fill="#020202" stroke="#020202" d="M684.635,202.369c5.155-1.133,10.479-1.093,15.517,0.638
		C694.971,203.631,689.725,203.579,684.635,202.369z"/>
	<path fill="#0B0607" stroke="#0B0607" d="M786.666,201.991c4.895-0.885,9.906-0.755,14.801,0.143
		C796.612,203.514,791.457,203.684,786.666,201.991z"/>
	<path fill="#3B3B3B" stroke="#3B3B3B" d="M1179.573,201.666c6.587,0.065,13.174,0.208,19.76,0.703
		c-1.679,0.312-3.332,0.664-4.986,0.924c-29.406,2.734-58.318,10.089-85.954,20.411c-24.291,8.956-49.531,15.413-75.254,18.459
		c-16.428,2.747-33.117,1.367-49.675,1.705c-40.602,1.38-80.539-9.125-118.433-22.846c-17.001-5.91-34.353-10.948-52.135-13.968
		c-2.812-0.729-5.506-1.809-8.149-2.968c5.428-0.26,10.87,0.26,16.233,1.224c17.027,3.111,33.611,8.188,49.961,13.799
		c38.623,15.035,80.162,22.885,121.635,21.974c24.161,0.586,48.269-2.734,71.818-7.928c27.675-5.858,53.385-18.381,80.982-24.473
		C1156.597,205.532,1168.066,203.475,1179.573,201.666z"/>
	<path fill="#0C0708" stroke="#0C0708" d="M1281.396,202.382c4.374-1.627,9.112-1.093,13.642-0.377
		C1290.756,204.113,1285.874,203.033,1281.396,202.382z"/>
	<path fill="#252525" stroke="#252525" d="M649.254,208.969c6.444-1.302,12.874-2.773,19.175-4.686
		c4.608-0.833,9.333-0.833,13.981-0.182c-4.009,1.914-8.318,3.046-12.666,3.814c-56.678,11.078-110.31,37.425-153.554,75.71
		c-28.99,25.371-52.981,56.157-72.026,89.547c-2.447,4.087-1.705,8.982-1.198,13.46c-2.278-5.988-1.822-12.64-4.764-18.42
		c0.872,0.989,1.783,1.992,2.695,2.994c9.177-14.163,17.535-28.951,28.313-42.02c11.703-16.285,25.983-30.435,40.354-44.325
		C548.902,248.49,597.561,222.702,649.254,208.969z"/>
	<path fill="#212121" stroke="#212121" d="M1300.714,204.139c3.32,0.052,6.665,0.078,9.998,0.182
		c25.488,4.699,50.078,13.317,73.965,23.236c41.981,19.24,80.266,46.85,110.831,81.542c25.475,28.951,46.629,61.807,61.781,97.28
		c4.126,7.55,6.626,15.803,9.724,23.796c1.679,4.843,4.035,9.659,4.048,14.892c0,1.705-0.026,3.424,0.013,5.168
		c-3.033-7.602-5.806-15.296-8.67-22.95c-23.861-62.822-63.877-120.373-118.199-160.545
		c-40.107-30.161-87.347-50.378-136.566-59.737C1305.283,206.118,1302.992,205.102,1300.714,204.139z"/>
	<path fill="#29161B" stroke="#29161B" d="M1648.02,294.884c8.565-3.059,18.159-0.599,25.644,4.087
		c12.64,8.162,17.912,26.777,9.724,39.768c-0.325,0.573-0.989,1.718-1.315,2.291c0.781,1.146,1.614,2.317,2.447,3.476
		c-6.587,7.342-9.49,16.91-12.315,26.139c-0.768,1.614-1.679,3.163-2.473,4.764c-4.478,11.885-9.425,23.601-13.733,35.577
		c-0.963,1.705-2.005,3.359-2.942,5.077c-3.176,10.154-7.797,19.761-10.713,30.005c-0.404,1.015-0.807,2.031-1.198,3.046
		c-1.211,2.864-2.382,5.754-3.71,8.578c-1.484,2.773-3.098,5.48-4.244,8.409c-2.825,9.737-6.886,19.005-11.143,28.183
		c-0.859,2.512-1.458,5.103-2.239,7.641c-2.916,7.003-5.78,14.033-8.162,21.245c-0.573,1.315-1.184,2.617-1.77,3.918
		c-1.627,3.372-3.124,6.795-4.517,10.258c-1.146,2.786-2.226,5.597-3.332,8.409c-1.419,4.009-3.567,7.667-5.988,11.143
		c-1.028,3.606-1.133,7.394-1.185,11.13c-0.573-0.156-1.718-0.469-2.291-0.625c-0.117-1.692-0.208-3.359-0.286-5.012
		c-6.131,3.293-15.113,3.97-17.899,11.312c-9.32,23.275-18.407,46.655-27.61,69.982c-4.751,10.635-8.032,21.869-12.991,32.427
		c-3.398,7.029-0.729,14.762,1.406,21.726c9.438,29.888,14.905,60.909,17.574,92.112c0.234,15.074,0.742,30.201-0.156,45.275
		c1.549-1.653,3.267-3.424,5.78-2.929c-0.872,7.381-4.361,14.111-5.402,21.414c-0.091,15.178-3.567,30.044-5.793,45.001
		c-3.801,12.38-6.379,25.189-11.703,37.061c-3.176,9.568-7.199,18.797-11.052,28.105c-0.469,1.12-0.898,2.265-1.263,3.424
		c-1.12-0.13-2.213-0.26-3.281-0.352c7.485-20.021,16.35-39.612,21.479-60.44c4.751-18.628,7.472-37.738,9.086-56.873
		c0.625-28.066,0.846-56.353-3.827-84.132c-3.905-26.113-9.607-51.992-17.691-77.129c-2.291-6.027,1.237-11.898,3.319-17.404
		c10.037-25.514,20.464-50.872,30.344-76.439c2.994-8.474,7.16-16.519,9.581-25.189c-5.168-0.95-10.57-1.471-15.243-4.036
		c-4.517-2.538-7.98-6.483-11.651-10.049c-3.905,9.633-6.144,19.8-9.307,29.68c-8.643,29.367-18.016,58.514-26.881,87.816
		c-1.211,4.608-3.554,9.138-3.241,13.994c1.653,5.689,5.064,10.674,7.068,16.233c4.439,11.664,7.785,23.809,9.399,36.189
		c1.002,14.306,2.812,28.625,1.536,42.984c-0.95,20.971-4.856,41.812-11.573,61.703c-2.525,7.537-1.627,15.595-2.825,23.34
		c-2.135,13.252-4.543,26.504-8.409,39.378c-3.059,10.765-7.771,20.945-11.729,31.398c-15.66,40.185-31.789,80.175-47.592,120.295
		c-3.996,10.792-9.334,21.206-11.377,32.635c-0.104-2.265-0.274-4.491-0.43-6.704c-1.002,0.768-1.979,1.562-2.929,2.395
		c9.321-25.176,20.112-49.766,29.511-74.915c4.934-13.773,11.299-26.972,16.311-40.719c8.149-22.078,18.081-43.504,25.137-65.973
		c4.361-11.325,6.288-23.353,8.188-35.277c1.992-10.896,1.497-22.026,3.098-32.96c2.213-15.152-1.757-30.188-1.731-45.327
		c-1.484-14.15-3.215-28.365-6.795-42.164c-3.398-19.656-8.696-38.948-15.23-57.785c-2.564-7.042-1.185-14.671,1.601-21.401
		c16.051-38.922,30.969-78.3,46.72-117.327c2.721-7.837,6.73-15.178,8.839-23.223c2.46-9.216,6.548-17.86,10.114-26.673
		c4.725-11.091,8.618-22.507,13.304-33.611c2.369-6.105,5.728-12.236,5.012-19.005c-0.039-1.744-0.013-3.463-0.013-5.168
		c1.08,0.781,2.174,1.575,3.293,2.369c5.025-11.52,9.503-23.262,14.254-34.9c3.944-11.781,9.268-23.028,13.642-34.653
		c5.767-14.176,10.557-28.743,16.988-42.658c3.619-8.396,6.3-17.183,10.167-25.475
		C1632.894,302.213,1640.392,297.462,1648.02,294.884 M1651.756,297.162c-9.255,2.421-17.782,8.709-21.049,17.951
		c-28.235,71.18-56.457,142.372-84.653,213.565c-2.591,8.136-1.901,17.717,3.293,24.733c5.233,7.576,14.397,12.223,23.575,12.197
		c7.134-0.859,14.475-3.619,19.448-8.995c5.585-6.535,7.368-15.23,10.948-22.859c14.462-36.319,28.612-72.755,43.309-108.982
		c9.112-23.366,18.159-46.759,27.61-69.995c3.319-10.154,9.62-19.734,8.995-30.799
		C1684.534,307.797,1667.013,294.389,1651.756,297.162 M1528.299,575.84c-12.015,29.732-23.444,59.685-35.525,89.391
		c-3.554,7.85-7.056,16.714-3.944,25.332c8.709,25.488,14.801,51.849,18.758,78.469c0.391,8.344,3.111,16.428,2.773,24.824
		c-0.26,8.748,1.237,17.404,1.458,26.139c-0.078,2.421,0.69,4.725,1.992,6.782c3.397-16.832,7.042-33.859,6.483-51.12
		c-0.26-12.497,0.872-25.15-1.797-37.451c-2.603-16.48-7.693-32.583-15.296-47.462c-2.89-5.259,0.391-11.039,1.601-16.285
		c12.184-40.575,25.098-80.956,36.944-121.648c0.859-2.955,0.417-6.04,0.143-9.021
		C1536.018,553.828,1532.959,565.218,1528.299,575.84z"/>
	<path fill="#D25D7A" stroke="#D25D7A" d="M1651.756,297.162c15.256-2.773,32.778,10.635,31.476,26.816
		c0.625,11.065-5.676,20.646-8.995,30.799c-9.451,23.236-18.498,46.629-27.61,69.995c-14.697,36.228-28.847,72.664-43.309,108.982
		c-3.58,7.628-5.363,16.324-10.948,22.859c-4.973,5.376-12.314,8.136-19.448,8.995c-9.177,0.026-18.342-4.621-23.575-12.197
		c-5.194-7.016-5.884-16.597-3.293-24.733c28.196-71.193,56.418-142.385,84.653-213.565
		C1633.974,305.871,1642.501,299.583,1651.756,297.162z"/>
	<path fill="#2C0D0F" stroke="#2C0D0F" d="M125.613,327.961c7.81-0.716,15.634-1.901,23.484-1.393
		c27.389,1.354,53.658,10.271,79.12,19.813c41.005,15.608,78.86,41.825,103.775,78.378c37.66,55.988,66.402,117.509,90.016,180.579
		c43.569,117.652,69.904,240.68,108.943,359.777c3.085,10.271,6.418,20.555,11.846,29.875c7.615,13.786,17.378,26.712,21.557,42.138
		c9.815,41.331,21.193,82.284,33.156,123.041c29.979,101.185,62.796,201.81,82.856,305.598c0.221,1.25,0.443,2.538,0.664,3.853
		c-1.927-0.195-3.827-0.377-5.741-0.443c1.25-7.433-1.146-14.684-2.538-21.882c-27.285-132.336-74.981-259.217-107.368-390.238
		c-2.877-11.078-4.673-22.598-10.089-32.817c-7.016-14.436-17.522-27.063-22.768-42.359
		c-21.778-64.515-39.495-130.292-57.889-195.822c-22.195-79.276-45.366-158.592-78.235-234.211
		c-18.849-43.596-41.239-85.668-67.548-125.215c-14.059-19.917-31.58-37.516-52.031-50.859
		c-28.704-19.435-61.56-31.893-95.041-40.302c-9.034-2.187-18.12-4.686-27.48-4.829c-12.21-0.208-24.577-0.586-36.566,2.109
		c-24.017,4.426-46.876,14.593-66.506,29.094c-0.039-4.569-0.156-9.151-0.104-13.72l0.026-1.406
		c0.612,2.057,1.315,4.101,1.927,6.183c0.117,0.547,0.378,1.653,0.508,2.2c10.128-5.689,19.956-11.989,30.786-16.324
		C97.599,333.52,111.358,329.081,125.613,327.961z"/>
	<path fill="#BD3B47" stroke="#BD3B47" d="M117.737,332.752c11.989-2.695,24.356-2.317,36.566-2.109
		c9.36,0.143,18.446,2.643,27.48,4.829c33.481,8.409,66.337,20.867,95.041,40.302c20.45,13.343,37.972,30.943,52.031,50.859
		c26.308,39.547,48.698,81.62,67.548,125.215c32.869,75.619,56.04,154.934,78.235,234.211
		c18.394,65.53,36.11,131.307,57.889,195.822c5.246,15.296,15.751,27.922,22.768,42.359c5.415,10.219,7.212,21.739,10.089,32.817
		c32.388,131.021,80.083,257.902,107.368,390.238c1.393,7.199,3.788,14.449,2.538,21.882c-10.883,1.302-21.101,5.584-31.698,8.162
		c-97.032,26.803-194.937,50.3-292.698,74.304c-11.468,2.617-22.65,6.691-34.418,7.797c-1.263-10.154-4.1-19.982-6.248-29.94
		c-80.747-353.19-161.573-706.368-242.294-1059.558c-2.096-9.294-4.088-18.641-7.238-27.662c-4.27-12.471-6.626-25.475-8.526-38.493
		c-2.252-13.877-0.898-27.962-0.937-41.942C70.861,347.344,93.72,337.178,117.737,332.752 M185.649,409.972
		c-11.481,18.303-14.462,40.224-17.704,61.169c-0.234,12.158-2.682,24.173-2.46,36.358c0.065,16.493-0.156,32.999,0.091,49.506
		c1.354,10.844,1.25,21.778,2.317,32.661c0.221,8.618,0.234,17.287,1.927,25.801c3.463,35.707,7.277,71.401,13.109,106.821
		c17.756,111.195,44.116,220.985,78.04,328.34c15.4,49.102,32.908,97.527,52.539,145.093c10.466,25.827,22.533,50.964,34.731,76.009
		c11.065,21.036,22.637,41.864,36.124,61.469c11.078,15.478,22.676,31.034,37.959,42.645c7.615,5.506,16.376,10.908,26.191,10.154
		c8.162,0.378,15.634-4.152,20.737-10.232c8.123-9.086,11.494-21.01,15.855-32.088l0.065,1.015
		c1.185-8.409,3.554-16.597,4.413-25.059c1.276-6.938,0.078-14.163,2.369-20.919c1.458-14.606,1.172-29.342,1.25-44.012
		c0-5.454,0.469-11-0.846-16.337c1.419-8.826,0.586-17.769,0.195-26.634c-0.299-6.3-0.065-12.627-0.872-18.875
		c-1.354-9.281-0.338-18.745-2.057-27.988c-1.666-9.346-0.82-18.927-2.89-28.196c-1.705-7.498-0.091-15.478-3.085-22.702
		c-0.469-7.42-0.417-14.905-2.486-22.104c-10.57-72.755-24.694-145.015-42.528-216.351
		c-18.342-74.916-40.523-148.881-66.506-221.492c-15.634-42.372-32.231-84.444-51.849-125.15
		c-12.315-24.551-24.317-49.388-39.703-72.208c-9.516-14.866-20.06-29.146-32.361-41.838c-6.509-6.157-13.356-12.197-21.336-16.389
		c-6.261-3.358-13.603-3.866-20.568-3.319C197.196,395.561,190.609,403.085,185.649,409.972z"/>
	<path fill="#262929" stroke="#262929" d="M1682.074,341.031c0.325-0.573,0.989-1.718,1.315-2.291
		c0.521,0.443,1.549,1.354,2.057,1.809c4.022-0.469,8.123-1.64,12.184-0.729c6.053,1.198,11.494,4.309,17.3,6.34
		c8.123,3.176,16.441,5.949,24.382,9.607c4.595,1.992,7.329,6.366,9.893,10.44c10.193-7.068,22.859-12.341,35.408-9.19
		c16.558,2.564,30.474,16.714,32.869,33.26c0.26,7.407,0.963,15.243-2.2,22.195c-4.999,11.729-9.841,23.549-14.098,35.577
		c-4.986,13.825-11.429,27.076-16.207,40.992c-11.052,27.207-21.492,54.66-32.557,81.88c-2.773,7.732-7.628,14.736-8.37,23.119
		c-0.69-2.851-1.432-5.689-1.94-8.565c5.233-10.766,9.932-21.804,13.994-33.091c4.413-12.601,10.518-24.525,14.762-37.204
		c3.098-9.112,7.641-17.652,10.818-26.751c5.676-16.181,12.536-31.906,18.719-47.904c3.359-8.774,7.602-17.235,10.232-26.269
		c1.471-4.244-1.888-7.941-4.374-10.948c-3.28-3.697-8.162-8.279-13.408-5.454c-20.49,8.631-38.375,22.911-52.539,39.964
		c-18.146,20.919-31.086,46.433-37.243,73.432c-0.677,1.914-1.406,3.801-2.122,5.689c-0.547-0.807-1.627-2.421-2.174-3.228
		c9.347-42.229,34.002-81.463,69.5-106.496c8.409-5.337,17.066-10.739,26.673-13.59c8.774-1.367,13.538,7.98,19.175,12.991
		c0.234-0.469,0.677-1.393,0.911-1.848c3.423-4.699,2.577-10.792-0.182-15.569c-4.14-9.021-8.787-18.576-17.756-23.705
		c-15.139-10.154-37.139-6.405-48.607,7.55c-5.181,6.313-7.706,14.202-10.935,21.583c-0.469-1.484-0.898-2.968-1.289-4.439
		c1.601-6.678,4.816-12.731,8.331-18.576c1.979-2.603,0.43-5.819-1.302-8.058c-3.411-4.634-9.281-6.131-14.371-8.149
		c-9.711-3.476-19.045-7.928-28.756-11.377c-5.103-2.005-10.557-0.703-15.647,0.482
		C1683.688,343.348,1682.855,342.177,1682.074,341.031z"/>
	<path fill="#A2DDF8" stroke="#A2DDF8" d="M1684.521,344.507c5.09-1.185,10.544-2.486,15.647-0.482
		c9.711,3.45,19.045,7.902,28.756,11.377c5.09,2.018,10.961,3.515,14.371,8.149c1.731,2.239,3.28,5.454,1.302,8.058
		c-3.515,5.845-6.73,11.898-8.331,18.576c-1.094,1.328-2.226,2.617-3.32,3.918c-10.779-2.551-20.828-7.329-31.19-11.117
		c-9.919-3.97-20.034-7.459-29.55-12.341C1675.032,361.416,1677.935,351.849,1684.521,344.507z"/>
	<path fill="#020202" stroke="#020202" d="M778.231,362.119c14.579-4.647,30.344-2.799,44.78,1.419
		c14.71,5.624,29.354,12.223,41.604,22.299c2.695,2.369-0.352,5.65-2.2,7.472c-15.868-10.141-31.763-21.44-50.69-24.863
		c-10.7-1.575-22.039-2.447-32.375,1.38c-6.053,2.083-11.221,6.001-16.35,9.737c-4.856,3.385-7.251,8.995-11.091,13.317
		c-2.187-1.393-4.348-2.799-6.496-4.218C752.925,376.439,764.628,366.754,778.231,362.119z"/>
	<path fill="#020202" stroke="#020202" d="M1140.599,364.085c11.377-4.192,23.796-5.897,35.824-3.879
		c20.724,2.968,39.3,13.734,55.793,26.1c2.656,2.486-0.456,5.845-2.369,7.719c-7.42-6.873-16.467-11.521-25.215-16.402
		c-15.035-7.967-32.335-12.21-49.323-9.698c-9.971,1.028-19.214,6.079-26.191,13.148c-3.476,3.541-6.613,7.381-10.141,10.857
		c-1.705-0.976-3.424-1.914-5.129-2.812C1119.042,377.753,1129.143,368.862,1140.599,364.085z"/>
	<path fill="#E6E7E9" stroke="#E6E7E9" d="M1748.489,373.041c11.468-13.955,33.468-17.704,48.607-7.55
		c8.969,5.129,13.616,14.684,17.756,23.705c0.078,5.181,0.091,10.375,0.182,15.569c-0.234,0.456-0.677,1.38-0.911,1.848
		c-5.636-5.012-10.401-14.358-19.175-12.991c-9.607,2.851-18.264,8.253-26.673,13.59c-35.499,25.033-60.154,64.267-69.5,106.496
		c-1.718,9.073-3.163,18.263-3.632,27.493c0.807,8.487,1.367,17.157,4.048,25.332c3.606,13.356,9.633,26.334,19.435,36.293
		c6.73,7.68,15.4,13.213,22.637,20.346c-9.255-3.658-17.457-9.36-26.1-14.189c-9.151-5.48-18.446-10.818-26.881-17.378
		c-7.862-6.313-13.056-15.933-13.655-26.035c-0.13-2.825-0.065-5.65,0.156-8.448c1.536-10.857,6.886-20.633,10.674-30.799
		c6.274-16.923,13.616-33.416,19.956-50.313c6.157-17.652,13.89-34.679,20.659-52.083c0.651-1.627,1.302-3.254,2.005-4.855
		c3.463-8.032,6.209-16.337,9.477-24.447C1740.783,387.243,1743.308,379.354,1748.489,373.041z"/>
	<path fill="#191B1C" stroke="#191B1C" d="M1672.207,370.646c9.516,4.882,19.63,8.37,29.55,12.341
		c10.362,3.788,20.411,8.566,31.19,11.117c1.093-1.302,2.226-2.59,3.32-3.918c0.39,1.471,0.82,2.955,1.289,4.439
		c-3.267,8.11-6.014,16.415-9.477,24.447c-0.456,0.651-1.354,1.966-1.809,2.617c-0.417-1.354-0.794-2.721-1.146-4.061
		c2.044-4.14,3.346-8.579,4.439-13.044c-2.76,2.656-5.506,5.48-6.912,9.112c-0.846,1.822-1.627,3.671-2.395,5.519
		c-0.117-2.721-0.234-5.428-0.195-8.123c2.577-4.908,6.613-8.813,9.906-13.226c-12.9-5.806-26.399-10.102-39.417-15.608
		c-6.912-2.343-13.291-6.834-20.815-6.847C1670.528,373.809,1671.439,372.26,1672.207,370.646z"/>
	<path fill="#C9A8B8" stroke="#C9A8B8" d="M1669.733,375.41c7.524,0.013,13.903,4.504,20.815,6.847
		c13.017,5.506,26.517,9.802,39.417,15.608c-3.293,4.413-7.329,8.318-9.906,13.226c-2.968,6.209-2.486,13.187-2.174,19.865
		c-0.443,2.512-0.872,5.025-1.315,7.537c-20.502-8.448-40.706-17.665-60.57-27.506
		C1660.309,399.011,1665.255,387.295,1669.733,375.41z"/>
	<path fill="#0E0E0E" stroke="#0E0E0E" d="M1814.853,389.196c2.76,4.777,3.606,10.87,0.182,15.569
		C1814.943,399.571,1814.931,394.377,1814.853,389.196z"/>
	<path fill="#1C1A1F" stroke="#1C1A1F" d="M185.649,409.972c4.96-6.886,11.546-14.41,20.659-14.853
		c6.964-0.547,14.306-0.039,20.568,3.319c7.98,4.192,14.827,10.232,21.336,16.389c12.302,12.692,22.846,26.972,32.361,41.838
		c15.387,22.82,27.389,47.657,39.703,72.208c19.617,40.706,36.215,82.778,51.849,125.15
		c25.983,72.612,48.165,146.577,66.506,221.492c17.834,71.336,31.958,143.596,42.528,216.351c2.07,7.198,2.018,14.684,2.486,22.104
		c0.495,5.975,0.807,11.963,0.768,17.977c-0.352,1.953-0.768,3.918-1.08,5.923c-2.421-29.719-7.732-59.086-11.755-88.584
		c-3.228-14.658-5.116-29.563-7.915-44.298c-4.595-18.615-6.405-37.803-11.442-56.314c-2.564-8.123-3.189-16.662-5.129-24.902
		c-2.369-8.566-4.27-17.235-6.366-25.866c-6.977-26.191-11.833-52.929-20.034-78.808c-3.385-10.102-4.921-20.711-8.5-30.747
		c-6.756-23.51-13.2-47.162-21.869-70.047c-2.981-8.917-4.673-18.224-8.123-26.985c-7.98-19.123-13.369-39.196-21.245-58.357
		c-6.248-18.133-14.619-35.395-21.297-53.346c-6.847-16.051-14.684-31.672-21.218-47.852c-10.818-20.333-20.932-41.07-32.635-60.922
		c-13.161-20.919-26.946-41.903-45.275-58.722c-8.787-7.654-19.383-15.348-31.659-14.462c-8.227,0.13-14.931,5.897-19.305,12.393
		c-6.444,9.776-10.883,20.841-13.213,32.309c-5.116,15.66-5.571,32.244-7.628,48.451c-1.276,8.539-1.067,17.183-1.028,25.788
		c0.312,19.774-0.885,39.638,1.419,59.334c0.846,7.108,1.146,14.267,1.237,21.414c0.104,7.862,1.822,15.569,2.291,23.405
		c0.612,10.935,2.356,21.765,3.814,32.609c0.417,3.606,1.028,7.173,1.653,10.753c0.299,1.705,0.586,3.424,0.833,5.155
		c1.848,18.602,4.1,37.191,7.784,55.533c4.426,28.638,9.893,57.108,15.152,85.59c1.614,10.401,4.777,20.516,7.329,30.721
		c0.13,0.586,0.364,1.757,0.482,2.356c1.705,10.466,4.127,20.815,6.795,31.086c6.587,32.739,16.09,64.788,24.551,97.071
		c4.947,16.402,8.813,33.103,14.15,49.388c3.632,13.707,9.034,26.855,12.874,40.497c17.183,54.348,37.048,107.889,60.102,160.037
		c16.923,37.686,35.212,74.994,58.435,109.256c1.536,2.213,3.085,4.426,4.699,6.626c7.134,9.346,14.397,18.641,22.65,27.063
		c2.59,2.669,5.337,5.22,8.253,7.576c7.797,5.402,16.272,11.677,26.256,11.234c7.719,0.221,14.593-4.556,19.305-10.31
		c8.448-11.195,11.625-25.098,16.09-38.141c0.495,2.916,1.119,5.845,1.25,8.826c-4.361,11.078-7.732,23.002-15.855,32.088
		c-5.103,6.079-12.575,10.609-20.737,10.232c-9.815,0.755-18.576-4.647-26.191-10.154c-15.283-11.612-26.881-27.168-37.959-42.645
		c-13.486-19.604-25.059-40.432-36.124-61.469c-12.197-25.046-24.265-50.182-34.731-76.009
		c-19.63-47.566-37.139-95.991-52.539-145.093c-33.924-107.355-60.284-217.145-78.04-328.34
		c-5.832-35.421-9.646-71.115-13.109-106.821c-1.692-8.513-1.705-17.183-1.927-25.801c-1.067-10.883-0.963-21.817-2.317-32.661
		c-0.247-16.506-0.026-33.012-0.091-49.506c-0.221-12.184,2.226-24.2,2.46-36.358C171.187,450.196,174.168,428.274,185.649,409.972z
		"/>
	<path fill="#FFFFFF" stroke="#FFFFFF" d="M1792.853,397.852c5.246-2.825,10.128,1.757,13.408,5.454
		c2.486,3.007,5.845,6.704,4.374,10.948c-2.63,9.034-6.873,17.496-10.232,26.269c-6.183,15.999-13.043,31.724-18.719,47.904
		c-3.176,9.099-7.719,17.639-10.818,26.751c-4.244,12.679-10.349,24.603-14.762,37.204c-4.062,11.286-8.761,22.325-13.994,33.091
		c-2.695,10.076-3.319,21.244,0.391,31.151c-0.443,0.286-1.328,0.872-1.77,1.172c-9.477-7.55-19.031-15.296-26.061-25.28
		c-6.574-8.93-10.127-19.578-13.187-30.109c-2.2-17.014-1.822-34.327,1.588-51.159c6.157-26.998,19.097-52.513,37.243-73.432
		C1754.477,420.763,1772.363,406.483,1792.853,397.852z"/>
	<path fill="#00ADEF" stroke="#00ADEF" d="M189.567,410.05c4.374-6.496,11.078-12.263,19.305-12.393
		c12.276-0.885,22.872,6.808,31.659,14.462c18.329,16.819,32.114,37.803,45.275,58.722c11.703,19.852,21.817,40.589,32.635,60.922
		c6.535,16.181,14.371,31.802,21.218,47.852c6.678,17.951,15.048,35.212,21.297,53.346c7.876,19.162,13.265,39.235,21.245,58.357
		c3.45,8.761,5.142,18.068,8.123,26.985c8.67,22.885,15.113,46.537,21.869,70.047c3.58,10.036,5.116,20.646,8.5,30.747
		c8.201,25.879,13.057,52.617,20.034,78.808c2.096,8.631,3.996,17.3,6.366,25.866c1.94,8.24,2.564,16.78,5.129,24.902
		c5.038,18.511,6.847,37.699,11.442,56.314c2.799,14.736,4.686,29.641,7.915,44.298c4.022,29.498,9.334,58.865,11.755,88.584
		c2.278,13.017,1.445,26.321,3.671,39.352c1.497,10.206,0.456,20.581,1.848,30.799c1.718,13.317,1.497,26.777,1.692,40.172
		c0.156,17.365-0.846,34.705-2.538,51.966c0.039,11.716-2.734,23.132-4.153,34.692c-4.465,13.044-7.641,26.946-16.09,38.141
		c-4.712,5.754-11.586,10.531-19.305,10.31c-9.984,0.443-18.459-5.832-26.256-11.234c-1.341-2.031-3.931-4.309-2.656-6.925
		c26.504-63.2,45.262-130.422,48.282-199.141c-0.013-15.452,0.117-30.904-0.078-46.342c-0.482-15.79-2.512-31.476-4.556-47.11
		c-1.107-14.449-4.257-28.625-5.884-42.997c-4.947-30.083-9.724-60.232-16.715-89.938c-6.925-28.834-14.684-57.55-25.462-85.212
		c-11.69-30.773-25.996-60.74-44.897-87.777c-22.052-32.075-50.365-60.193-84.08-79.862c-20.021-11.976-41.903-20.62-64.345-26.829
		c-7.993-2.265-16.415-2.434-24.642-1.848c-6.782,0.43-12.614,4.283-19.058,6.027c-0.625-3.58-1.237-7.147-1.653-10.753
		c-0.43-7.758-0.26-15.582-1.705-23.249c-1.979-10.31-0.898-20.88-2.851-31.177c-2.005-10.739-0.56-21.674-1.549-32.479
		c-1.002-10.948-1.185-21.947-2.044-32.908c-0.43-16.975,2.382-33.832,2.512-50.807c0.937-13.564,4.009-26.881,5.532-40.38
		C178.685,430.891,183.124,419.826,189.567,410.05z"/>
	<path fill="#F2F2F2" stroke="#F2F2F2" d="M1722.65,413.695c1.406-3.632,4.153-6.457,6.912-9.112
		c-1.093,4.465-2.395,8.904-4.439,13.044c-0.82,1.002-1.64,2.005-2.46,2.994C1722.585,418.303,1722.545,415.999,1722.65,413.695z"/>
	<path fill="#161819" stroke="#161819" d="M1656,410.987c19.865,9.841,40.068,19.058,60.57,27.506
		c0.443-2.512,0.872-5.025,1.315-7.537c1.224-3.788,3.671-7.511,8.188-7.029c-6.769,17.404-14.501,34.431-20.659,52.083
		c-6.339,16.897-13.681,33.39-19.956,50.313c-3.788,10.167-9.138,19.943-10.674,30.799c-0.69,0.078-2.083,0.221-2.786,0.299
		c-0.091-0.859-0.286-2.577-0.391-3.437c0.885-3.437,1.992-6.808,3.072-10.193c-9.867-4.66-20.841-5.884-31.242-8.852
		c-11.195-2.578-22.169-6.17-33.559-7.85c0.586-1.302,1.198-2.603,1.77-3.918c11.469,4.179,23.627,5.923,35.343,9.281
		c9.646,1.992,18.875,6.17,28.86,6.379c1.002-4.595,1.341-9.308,1.224-14.007c-8.709-4.426-18.016-7.381-27.037-11.039
		c-10.089-3.918-20.021-8.253-30.227-11.859c0.781-2.538,1.38-5.129,2.239-7.641c0.312,1.588,0.651,3.189,1.028,4.803
		c8.435,4.153,17.404,7.043,26.087,10.622c8.93,3.632,17.795,7.485,26.92,10.661c3.684-9.672,11.768-16.337,17.626-24.564
		c-7.394-5.363-15.751-9.099-23.562-13.759c-11.234-6.639-22.221-13.668-33.351-20.464c-1.25,1.484-2.473,2.968-3.606,4.517
		c1.146-2.929,2.76-5.637,4.244-8.409c10.063,7.003,20.724,13.083,31.229,19.422c8.5,4.96,16.91,10.115,25.866,14.254
		c3.905-5.194,6.014-11.377,7.784-17.574c-20.008-9.138-40.888-16.194-61.169-24.681c0.391-1.015,0.794-2.031,1.198-3.046
		c20.424,8.045,40.823,16.194,61.338,24.004c4.387-9.164,8.396-18.576,11.208-28.352c-15.66-7.147-31.646-13.59-47.084-21.179
		c-4.634-2.252-9.373-5.298-14.749-4.478C1653.995,414.345,1655.037,412.692,1656,410.987 M1680.278,528.691
		c4.647-6.118,6.222-14.007,8.618-21.206C1682.009,512.185,1678.703,520.516,1680.278,528.691z"/>
	<path fill="#6C5D64" stroke="#6C5D64" d="M1717.885,430.956c-0.313-6.678-0.794-13.655,2.174-19.865
		c-0.039,2.695,0.078,5.402,0.195,8.123c0.768-1.848,1.549-3.697,2.395-5.519c-0.104,2.304-0.065,4.608,0.013,6.925
		c0.82-0.989,1.64-1.992,2.46-2.994c0.351,1.341,0.729,2.708,1.146,4.061c0.456-0.651,1.354-1.966,1.809-2.617
		c-0.703,1.601-1.354,3.228-2.005,4.855C1721.556,423.445,1719.109,427.168,1717.885,430.956z"/>
	<path fill="#A1DDF8" stroke="#A1DDF8" d="M1653.058,416.064c5.376-0.82,10.115,2.226,14.749,4.478
		c15.439,7.589,31.424,14.033,47.084,21.179c-2.812,9.776-6.821,19.188-11.208,28.352c-20.516-7.811-40.914-15.959-61.338-24.004
		C1645.261,435.824,1649.882,426.217,1653.058,416.064z"/>
	<path fill="#03668D" stroke="#03668D" d="M168.726,490.81c2.057-16.207,2.512-32.791,7.628-48.451
		c-1.523,13.499-4.595,26.816-5.532,40.38c-0.13,16.975-2.942,33.832-2.512,50.807c0.859,10.961,1.041,21.96,2.044,32.908
		c0.989,10.805-0.456,21.739,1.549,32.479c1.953,10.297,0.872,20.867,2.851,31.177c1.445,7.667,1.276,15.491,1.705,23.249
		c-1.458-10.844-3.202-21.674-3.814-32.609c-0.469-7.837-2.187-15.543-2.291-23.405c-0.091-7.147-0.391-14.306-1.237-21.414
		c-2.304-19.695-1.107-39.56-1.419-59.334C167.659,507.993,167.451,499.35,168.726,490.81z"/>
	<path fill="#132730" stroke="#132730" d="M791.04,446.382c8.839-4.322,18.849-3.293,28.365-3.293
		c12.25-0.104,23.08,6.678,32.752,13.473c13.994,10.648,23.952,25.71,31.841,41.226c7.863,16.246,14.267,33.377,16.779,51.328
		c5.715,28.248,6.261,57.563,1.575,85.994c-1.106,9.021-4.088,17.652-5.845,26.556c-2.968,9.477-6.899,18.641-10.805,27.766
		c-5.637,13.07-14.072,24.746-23.34,35.473c-7.823,7.342-16.207,14.632-26.491,18.251c-0.195-1.276-0.364-2.525-0.521-3.775
		c0.547-0.365,1.627-1.094,2.174-1.458c9.763-1.679,15.959-10.05,22.95-16.246C875.25,705.911,885,686.02,891.6,665.596
		c8.8-25.644,10.909-53.059,10.44-79.992c-1.041-30.76-7.941-61.612-22.247-88.987c-7.537-13.89-16.806-27.233-29.341-37.061
		c-10.7-8.227-23.77-14.293-37.516-13.838c-16.662-0.573-32.179,7.954-43.999,19.097c-15.556,14.775-25.931,34.132-33.09,54.153
		c-4.973,14.319-9.347,29.016-10.453,44.207c-0.677,1.953-1.445,3.879-2.096,5.858c-0.208-2.825-0.521-5.637-0.69-8.435
		c1.133-12.523,4.908-24.694,7.967-36.853c6.222-17.248,13.382-34.535,24.837-49.037
		C765.227,463.057,776.448,451.758,791.04,446.382z"/>
	<path fill="#153839" stroke="#153839" d="M1127.516,457.642c8.162-6.392,17.613-11.26,27.597-14.059
		c12.015-0.664,24.837-2.083,36.097,3.202c20.177,8.331,35.134,25.762,45.301,44.624c13.278,23.666,20.073,50.456,23.405,77.233
		c0.586,14.306,0.117,28.651,0.273,42.984c0.482,17.535-4.4,34.548-8.331,51.458c-4.934,14.137-9.333,28.834-18.264,41.07
		c-8.618,14.593-20.151,28.183-35.382,36.111c-2.226,0.898-4.465,1.705-6.691,2.538c-0.364-1.185-0.716-2.343-1.041-3.489
		c1.094-0.781,2.213-1.536,3.319-2.317c2.395-0.169,5.012-0.156,7.016-1.731c19.891-14.124,33.416-35.447,42.398-57.785
		c7.915-21.088,12.77-43.374,14.098-65.855c-0.143-13.46,0.521-26.959-0.456-40.38c-2.968-25.866-9.06-51.77-21.427-74.863
		c-9.763-18.29-23.262-35.655-42.242-44.975c-11.443-5.806-24.876-6.99-37.347-4.374c-19.813,5.116-35.694,19.747-46.616,36.579
		c-10.974,15.855-18.029,34.054-22.82,52.643c-6.066,21.075-7.16,43.192-7.121,65.009c-0.69,0.013-2.07,0.052-2.76,0.065
		c-0.417-18.732-0.091-37.725,4.348-56.027c4.934-21.948,12.028-43.882,24.838-62.588
		C1111.765,473.393,1118.977,464.775,1127.516,457.642z"/>
	<path fill="#00ADEF" stroke="#00ADEF" d="M768.937,464.814c11.82-11.143,27.337-19.669,43.999-19.097
		c13.746-0.456,26.816,5.611,37.516,13.838c12.536,9.828,21.804,23.171,29.341,37.061c14.306,27.376,21.206,58.227,22.247,88.987
		c0.469,26.933-1.64,54.348-10.44,79.992c-6.6,20.424-16.35,40.315-31.125,56.079c-6.99,6.196-13.187,14.566-22.95,16.246
		c8.552-7.029,13.812-16.936,18.823-26.582c8.11-19.904,10.544-41.812,8.722-63.135c-1.471-13.512-3.502-27.259-9.789-39.495
		c-5.506-13.07-15.23-24.512-27.727-31.346c-10.492-5.858-24.199-5.012-34.054,1.796c-11.039,6.574-17.717,18.003-22.898,29.38
		c-3.528,8.409-7.446,16.845-8.761,25.957c-2.226,13.538-1.718,27.324-1.367,40.979c0.599,15.074,5.845,29.38,12.093,42.945
		c3.463,7.524,10.076,12.835,14.449,19.761c-9.177-2.929-15.985-10.206-22.663-16.78c-21.075-23.028-32.023-53.515-37.686-83.768
		c-1.653-7.446-1.093-15.139-2.643-22.585c-1.406-10.505-1.12-21.153-0.716-31.711c1.38-6.639,2.174-13.382,2.083-20.164
		c1.106-15.191,5.48-29.888,10.453-44.207C743.006,498.946,753.381,479.589,768.937,464.814z"/>
	<path fill="#00ADEF" stroke="#00ADEF" d="M1155.842,447.032c12.471-2.617,25.905-1.432,37.347,4.374
		c18.979,9.321,32.479,26.686,42.242,44.975c12.367,23.093,18.459,48.998,21.427,74.863c0.976,13.421,0.312,26.92,0.456,40.38
		c-1.328,22.481-6.183,44.767-14.098,65.855c-8.982,22.338-22.507,43.661-42.398,57.785c-2.005,1.575-4.621,1.562-7.016,1.731
		c12.224-10.349,19.149-25.462,23.041-40.706c4.322-9.841,3.554-20.789,4.139-31.281c-0.052-13.603,0.325-27.584-4.126-40.628
		c-2.395-8.631-5.246-17.287-10.583-24.59c-6.639-9.529-14.176-19.552-25.267-24.017c-7.355-2.395-15.647-3.437-22.976-0.443
		c-10.297,4.374-20.034,11.104-25.697,20.997c-6.196,10.674-10.622,22.377-13.733,34.301c-5.832,28.313-3.645,58.566,8.188,85.095
		c3.71,7.225,8.5,13.955,14.58,19.396c0.026,0.781,0.104,2.343,0.143,3.124c-19.018-10.44-32.205-28.534-41.877-47.488
		c-4.374-8.826-8.071-17.99-10.622-27.506c-6.131-20.086-9.594-40.966-9.724-61.989c-0.039-21.817,1.055-43.934,7.121-65.009
		c4.791-18.589,11.846-36.787,22.82-52.643C1120.148,466.78,1136.03,452.148,1155.842,447.032z"/>
	<path fill="#C9A8B8" stroke="#C9A8B8" d="M1641.147,449.115c20.281,8.487,41.161,15.543,61.169,24.681
		c-1.77,6.196-3.879,12.38-7.784,17.574c-8.956-4.14-17.365-9.294-25.866-14.254c-10.505-6.34-21.166-12.419-31.229-19.422
		C1638.765,454.869,1639.937,451.979,1641.147,449.115z"/>
	<path fill="#A1DCF8" stroke="#A1DCF8" d="M1633.193,466.103c1.132-1.549,2.356-3.033,3.606-4.517
		c11.13,6.795,22.117,13.825,33.351,20.464c7.811,4.66,16.168,8.396,23.562,13.759c-5.858,8.227-13.942,14.892-17.626,24.564
		c-9.125-3.176-17.99-7.029-26.92-10.661c-8.683-3.58-17.652-6.47-26.087-10.622c-0.377-1.614-0.716-3.215-1.028-4.803
		C1626.307,485.109,1630.369,475.84,1633.193,466.103z"/>
	<path fill="#C8A8B8" stroke="#C8A8B8" d="M1619.811,501.927c10.206,3.606,20.138,7.941,30.227,11.859
		c9.021,3.658,18.329,6.613,27.037,11.039c0.117,4.699-0.221,9.412-1.224,14.007c-9.984-0.208-19.214-4.387-28.86-6.379
		c-11.716-3.358-23.874-5.103-35.343-9.281C1614.032,515.96,1616.896,508.931,1619.811,501.927z"/>
	<path fill="#FCFCFC" stroke="#FCFCFC" d="M1680.278,528.691c-1.575-8.175,1.731-16.506,8.618-21.206
		C1686.5,514.684,1684.925,522.573,1680.278,528.691z"/>
	<path fill="#646464" stroke="#646464" d="M1700.949,516.936c0.716-1.888,1.445-3.775,2.122-5.689
		c-3.411,16.832-3.788,34.145-1.588,51.159c-1.875-6.079-2.083-12.471-2.786-18.732c-1.158,7.589-0.677,15.296,0.495,22.859
		c-2.682-8.175-3.241-16.845-4.048-25.332c0.469-9.229,1.914-18.42,3.632-27.493
		C1699.322,514.515,1700.403,516.129,1700.949,516.936 M1698.723,537.491c0.729-6.144,1.172-12.367,0.352-18.524
		C1696.628,524.799,1698.645,531.373,1698.723,537.491z"/>
	<path fill="#020202" stroke="#020202" d="M1698.723,537.491c-0.078-6.118-2.096-12.692,0.352-18.524
		C1699.895,525.124,1699.452,531.347,1698.723,537.491z"/>
	<path fill="#A1DDF8" stroke="#A1DDF8" d="M1609.879,527.09c11.39,1.679,22.364,5.272,33.559,7.85
		c10.401,2.968,21.375,4.192,31.242,8.852c-1.08,3.385-2.187,6.756-3.072,10.193c-1.172,3.788-1.887,7.719-2.265,11.677
		c-5.415,4.608-12.9,4.114-19.058,1.393c-11.625-4.999-23.614-9.112-35.173-14.241c-6.3-2.538-8.526-9.386-9.75-15.465
		C1606.755,533.885,1608.252,530.461,1609.879,527.09z"/>
	<path fill="#262626" stroke="#262626" d="M1602.03,545.757c1.106-2.812,2.187-5.624,3.332-8.409
		c1.224,6.079,3.45,12.926,9.75,15.465c11.56,5.129,23.549,9.242,35.173,14.241c6.157,2.721,13.642,3.215,19.058-1.393
		c1.679-0.859,3.528-0.495,5.285-0.091c0.599,10.102,5.793,19.722,13.655,26.035c8.436,6.561,17.73,11.898,26.881,17.378
		c8.644,4.829,16.845,10.531,26.1,14.189c-7.238-7.134-15.907-12.666-22.637-20.346c-9.802-9.958-15.829-22.937-19.435-36.293
		c-1.172-7.563-1.653-15.27-0.495-22.859c0.703,6.261,0.911,12.653,2.786,18.732c3.059,10.531,6.613,21.179,13.187,30.109
		c7.03,9.984,16.584,17.73,26.061,25.28c0.443-0.299,1.328-0.885,1.77-1.172c0.495-0.338,1.471-1.015,1.966-1.354
		c1.731,5.363,3.84,10.596,5.65,15.946c-4.504-1.106-8.539-3.411-12.523-5.65c-15.413-8.201-30.604-16.832-45.132-26.504
		c-10.518-6.314-18.55-16.819-20.854-28.964c-6.6,1.549-13.616,3.463-20.229,0.963c-8.8-3.189-17.391-6.938-26.152-10.219
		c-5.428-2.2-11.234-3.866-15.868-7.589C1606.612,551.029,1605.492,547.059,1602.03,545.757z"/>
	<path fill="#BF536F" stroke="#BF536F" d="M1528.299,575.84c4.66-10.622,7.719-22.013,13.59-32.049
		c0.273,2.981,0.716,6.066-0.143,9.021c-11.846,40.693-24.759,81.073-36.944,121.648c-1.211,5.246-4.491,11.026-1.601,16.285
		c7.602,14.879,12.692,30.982,15.296,47.462c2.669,12.302,1.536,24.955,1.797,37.451c0.56,17.261-3.085,34.288-6.483,51.12
		c-1.302-2.057-2.07-4.361-1.992-6.782c-0.221-8.735-1.718-17.391-1.458-26.139c0.339-8.396-2.382-16.48-2.773-24.824
		c-3.957-26.621-10.05-52.981-18.758-78.469c-3.111-8.618,0.391-17.482,3.944-25.332
		C1504.854,635.526,1516.283,605.572,1528.299,575.84z"/>
	<path fill="#546570" stroke="#546570" d="M1669.343,565.661c0.378-3.957,1.093-7.889,2.265-11.677
		c0.104,0.859,0.299,2.577,0.391,3.437c0.703-0.078,2.096-0.221,2.786-0.299c-0.221,2.799-0.286,5.624-0.156,8.448
		C1672.871,565.166,1671.022,564.802,1669.343,565.661z"/>
	<path fill="#D25C7A" stroke="#D25C7A" d="M1535.979,584.94c3.163-9.88,5.402-20.047,9.307-29.68
		c3.671,3.567,7.134,7.511,11.651,10.049c4.673,2.565,10.076,3.085,15.243,4.036c-2.421,8.67-6.587,16.714-9.581,25.189
		c-9.88,25.566-20.307,50.924-30.344,76.439c-2.083,5.506-5.61,11.377-3.319,17.404c8.084,25.137,13.786,51.016,17.691,77.129
		c4.673,27.779,4.452,56.066,3.827,84.132c-1.614,19.136-4.335,38.245-9.086,56.873c-5.129,20.828-13.994,40.419-21.479,60.44
		c-1.315,3.476-2.655,6.964-3.957,10.466c-11,24.707-19.839,50.326-30.175,75.332c-38.805,97.527-77.285,195.184-116.064,292.724
		c-23.939,60.974-48.451,121.726-72.299,182.752c-1.081,1.562-1.458,4.895-3.996,4.322c-8.266-1.549-15.803-5.793-22.715-10.427
		c-9.125-6.118-16.923-14.918-19.956-25.645c-2.33-10.466-1.315-21.974,4.478-31.177c10.362-17.352,26.126-30.513,37.621-47.045
		c64.853-84.171,111.052-183.052,131.659-287.426c1.979-11.429,4.725-22.755,5.428-34.353c0.13-1.874,0.273-3.736,0.443-5.571
		c2.044-11.429,7.381-21.843,11.377-32.635c15.803-40.12,31.932-80.109,47.592-120.295c3.957-10.453,8.67-20.633,11.729-31.398
		c3.866-12.874,6.274-26.126,8.409-39.378c1.198-7.745,0.3-15.803,2.825-23.34c6.717-19.891,10.622-40.732,11.573-61.703
		c1.276-14.358-0.534-28.677-1.536-42.984c-1.614-12.38-4.96-24.525-9.399-36.189c-2.005-5.558-5.415-10.544-7.068-16.233
		c-0.312-4.856,2.031-9.386,3.241-13.994C1517.963,643.453,1527.335,614.307,1535.979,584.94z"/>
	<path fill="#727272" stroke="#727272" d="M1594.857,568.03c0.052-3.736,0.156-7.524,1.185-11.13
		c0.937,10.531,2.304,21.101,1.159,31.698c-0.482-4.1-0.937-8.201-1.315-12.302c-1.106,20.737-1.041,41.539,0.026,62.276
		c0.417-4.348,0.794-8.683,1.276-13.004c0.547,10.154,1.133,20.685-1.992,30.526c-0.078-3.293-0.143-6.561-0.169-9.828
		c-0.612,0.078-1.823,0.247-2.421,0.339c2.682-26.334,2.578-52.877-0.039-79.198C1593.139,567.561,1594.284,567.874,1594.857,568.03
		z"/>
	<path fill="#666A6C" stroke="#666A6C" d="M720.433,582.063c-0.833-7.225-0.013-14.554,2.174-21.466
		c0.169,2.799,0.482,5.611,0.69,8.435c-0.286,1.471-0.56,2.968-0.807,4.465C721.839,576.361,721.045,579.186,720.433,582.063z"/>
	<path fill="#F2F2F2" stroke="#F2F2F2" d="M1574.38,573.706c2.786-7.342,11.768-8.019,17.899-11.312
		c0.078,1.653,0.169,3.319,0.286,5.012c2.616,26.321,2.721,52.864,0.039,79.198c-0.208,4.738-0.26,9.49-0.43,14.254
		c-2.864,10.232-2.252,20.997-4.699,31.333c-0.586,4.166-0.872,8.37-1.185,12.575c-3.944,16.714-6.743,33.65-11.013,50.273
		c-1.705,9.88-5.155,19.344-6.951,29.211c-3.775,14.827-8.357,29.472-11.443,44.468c0.625,0.664,1.888,1.979,2.525,2.643
		c0.365,0.378,1.107,1.133,1.484,1.51c-0.625-0.143-1.887-0.43-2.512-0.573c-2.512-0.495-4.231,1.276-5.78,2.929
		c0.898-15.074,0.391-30.201,0.156-45.275c-2.668-31.203-8.136-62.224-17.574-92.112c-2.135-6.964-4.803-14.697-1.406-21.726
		c4.96-10.557,8.24-21.791,12.991-32.427C1555.974,620.36,1565.06,596.981,1574.38,573.706z"/>
	<path fill="#026B95" stroke="#026B95" d="M723.297,569.032c0.651-1.979,1.419-3.905,2.096-5.858
		c0.091,6.782-0.703,13.525-2.083,20.164c-0.234-3.293-0.625-6.561-0.82-9.841C722.738,572,723.011,570.503,723.297,569.032z"/>
	<path fill="#182829" stroke="#182829" d="M720.433,582.063c0.612-2.877,1.406-5.702,2.057-8.566c0.195,3.28,0.586,6.548,0.82,9.841
		c-0.404,10.557-0.69,21.205,0.716,31.711c-0.208,4.556-0.794,9.099-1.172,13.655c-2.968-9.724-2.721-20.034-2.812-30.096
		C720.134,593.102,719.652,587.543,720.433,582.063z"/>
	<path stroke="#000000" d="M793.501,579.16c9.854-6.808,23.562-7.654,34.054-1.796c12.497,6.834,22.221,18.277,27.727,31.346
		c6.287,12.237,8.318,25.983,9.789,39.495c1.823,21.323-0.612,43.231-8.722,63.135c-5.012,9.646-10.271,19.552-18.823,26.582
		c-0.547,0.364-1.627,1.093-2.174,1.458c0.156,1.25,0.325,2.499,0.521,3.775c-13.942,5.988-30.018,6.144-44.338,1.419
		c-7.394-2.682-13.929-7.251-20.034-12.106c-16.038-12.731-26.712-30.838-35.017-49.245c-4.947-13.382-9.099-27.102-11.768-41.122
		c-0.885-4.426-2.148-8.865-1.862-13.395c0.378-4.556,0.963-9.099,1.172-13.655c1.549,7.446,0.989,15.139,2.643,22.585
		c5.663,30.253,16.61,60.74,37.686,83.768c6.678,6.574,13.486,13.851,22.663,16.78c-4.374-6.925-10.987-12.237-14.449-19.761
		c-6.248-13.564-11.495-27.87-12.093-42.945c-0.352-13.655-0.859-27.441,1.367-40.979c1.315-9.112,5.233-17.548,8.761-25.957
		C775.784,597.163,782.462,585.734,793.501,579.16z"/>
	<path stroke="#000000" d="M1158.029,575.333c7.329-2.994,15.621-1.953,22.976,0.443c11.091,4.465,18.628,14.488,25.267,24.017
		c5.337,7.303,8.188,15.959,10.583,24.59c4.452,13.044,4.075,27.024,4.126,40.628c-0.586,10.492,0.182,21.44-4.139,31.281
		c-3.892,15.243-10.818,30.357-23.041,40.706c-1.106,0.781-2.226,1.536-3.319,2.317c0.325,1.146,0.677,2.304,1.041,3.489
		c2.226-0.833,4.465-1.64,6.691-2.538c-10.948,7.355-24.967,8.279-37.751,7.16c-7.55-1.406-15.712-2.33-21.947-7.238
		c2.2,0.976,4.439,1.848,6.691,2.747c0.247-1.198,0.495-2.382,0.768-3.554c-1.549-1.432-3.098-2.838-4.608-4.257
		c-6.079-5.441-10.87-12.171-14.58-19.396c-11.833-26.53-14.02-56.782-8.188-85.095c3.111-11.924,7.537-23.627,13.733-34.301
		C1137.995,586.437,1147.732,579.707,1158.029,575.333z"/>
	<path fill="#0C0708" stroke="#0C0708" d="M1595.911,638.572c-1.067-20.737-1.133-41.539-0.026-62.276
		c0.378,4.101,0.833,8.201,1.315,12.302c0.638,12.289,0.625,24.668-0.013,36.97C1596.705,629.889,1596.328,634.224,1595.911,638.572
		z"/>
	<path fill="#737373" stroke="#737373" d="M1742.501,616.624c-3.71-9.906-3.085-21.075-0.391-31.151
		c0.508,2.877,1.25,5.715,1.94,8.565c1.015,6.912,1.979,14.449,0.416,21.232C1743.972,615.609,1742.996,616.286,1742.501,616.624z"
		/>
	<path fill="#182829" stroke="#182829" d="M1076.527,601.329c0.69-0.013,2.07-0.052,2.76-0.065
		c0.13,21.023,3.593,41.903,9.724,61.989c2.552,9.516,6.248,18.68,10.622,27.506c9.672,18.953,22.859,37.048,41.877,47.488
		c-0.039-0.781-0.117-2.343-0.143-3.124c1.51,1.419,3.059,2.825,4.608,4.257c-0.273,1.172-0.521,2.356-0.768,3.554
		c-2.252-0.898-4.491-1.77-6.691-2.747c-17.899-10.258-31.854-26.751-40.563-45.34c-6.99-12.171-10.883-25.736-14.918-39.078
		C1079.13,637.895,1075.928,619.696,1076.527,601.329z"/>
	<path fill="#161819" stroke="#161819" d="M1592.605,646.603c0.599-0.091,1.809-0.26,2.421-0.339
		c0.026,3.267,0.091,6.535,0.169,9.828c0,4.517-0.26,9.073-1.211,13.512c-0.547-2.942-1.263-5.832-1.809-8.748
		C1592.345,656.093,1592.397,651.342,1592.605,646.603z"/>
	<path fill="#041F2B" stroke="#041F2B" d="M178.112,664.112c6.444-1.744,12.276-5.598,19.058-6.027
		c8.227-0.586,16.649-0.417,24.642,1.848c22.442,6.209,44.325,14.853,64.345,26.829c33.715,19.669,62.028,47.787,84.08,79.862
		c18.901,27.037,33.208,57.004,44.897,87.777c10.779,27.662,18.537,56.379,25.462,85.212c6.99,29.706,11.768,59.855,16.715,89.938
		c1.627,14.371,4.777,28.547,5.884,42.997c2.044,15.634,4.074,31.32,4.556,47.11c-0.872-1.132-1.718-2.252-2.538-3.371
		c-2.551-11.872-2.447-24.069-4.452-36.019c-7.186-58.175-16.545-116.259-32.114-172.846c-10.909-37.92-24.212-75.449-43.648-109.92
		c-15.686-28.977-35.98-55.507-60.258-77.806c-27.558-25.202-61.052-43.7-96.85-54.257c-9.125-2.63-18.55-5.545-28.157-4.387
		c-7.563,0.703-14.528,4.087-20.789,8.214C178.698,667.536,178.411,665.817,178.112,664.112z"/>
	<path fill="#2190BE" stroke="#2190BE" d="M178.945,669.267c6.261-4.127,13.226-7.511,20.789-8.214
		c9.607-1.159,19.032,1.757,28.157,4.387c35.798,10.557,69.292,29.055,96.85,54.257c24.278,22.299,44.572,48.829,60.258,77.806
		c19.435,34.47,32.739,72,43.648,109.92c15.569,56.587,24.929,114.671,32.114,172.846c2.005,11.95,1.901,24.147,4.452,36.019
		c-0.221,16.714-0.13,33.442-0.065,50.156c-2.174,12.419-2.512,25.046-4.374,37.516c-6.808,53.163-22.195,104.973-42.58,154.453
		c-1.041,2.252-2.656,4.166-4.244,6.079c-8.253-8.422-15.517-17.717-22.65-27.063c1.51-8.696,5.702-16.571,8.097-25.007
		c9.477-29.758,16.155-60.414,19.708-91.435c2.018-12.562,1.692-25.319,3.202-37.933c0.885-15.985,0.82-32.062,0.026-48.047
		c-1.692-13.447-1.133-27.063-3.398-40.445c-7.706-69.409-28.014-137.204-58.175-200.131c-7.889-14.41-17.574-27.961-29.602-39.222
		c-16.142-15.165-36.254-26.998-58.462-30.044c-15.66-2.864-31.945-0.26-46.72,5.272c-6.17,2.473-12.523,5.324-16.767,10.674
		c-2.551-10.206-5.715-20.32-7.329-30.721c-5.259-28.482-10.726-56.952-15.152-85.59
		C183.046,706.458,180.794,687.869,178.945,669.267z"/>
	<path fill="#6F6F6F" stroke="#6F6F6F" d="M1587.476,692.191c2.447-10.336,1.835-21.101,4.699-31.333
		c0.547,2.916,1.263,5.806,1.809,8.748c-0.638,8.943-1.523,17.938-3.45,26.712c-0.052-1.666-0.091-3.332-0.117-4.986
		C1589.676,691.553,1588.218,691.969,1587.476,692.191z"/>
	<path fill="#424242" stroke="#424242" d="M1587.476,692.191c0.742-0.221,2.2-0.638,2.942-0.859c0.026,1.653,0.065,3.32,0.117,4.986
		c0.117,4.947-0.742,9.932-2.773,14.475c-0.482-2.031-1.028-4.022-1.471-6.027C1586.604,700.561,1586.89,696.356,1587.476,692.191z"
		/>
	<path fill="#444444" stroke="#444444" d="M1586.291,704.766c0.443,2.005,0.989,3.996,1.471,6.027
		c0.169,8.839-2.551,17.443-4.686,25.957c-6.379,31.893-14.788,63.33-23.666,94.611c-0.638-0.664-1.901-1.979-2.525-2.643
		c3.085-14.996,7.667-29.641,11.443-44.468c1.796-9.867,5.246-19.331,6.951-29.211
		C1579.548,738.416,1582.347,721.48,1586.291,704.766z"/>
	<path fill="#989A9A" stroke="#989A9A" d="M1500.714,749.259c3.58,13.799,5.311,28.014,6.795,42.164
		c-0.026,15.139,3.944,30.174,1.731,45.327c-1.601,10.935-1.106,22.065-3.098,32.96c-1.901,11.924-3.827,23.952-8.188,35.277
		c3.515-18.732,8.37-37.334,9.268-56.457c-0.013-15.621,0.026-31.229-0.026-46.837
		C1506.156,784.094,1502.459,766.781,1500.714,749.259z"/>
	<path fill="#929493" stroke="#929493" d="M880.301,819.515c7.771-1.966,15.842-2.161,23.77-3.293
		c10.258-1.367,20.542,0.365,30.656,2.044c2.994,0.417,5.715,1.783,8.214,3.476c-14.593-4.908-30.188-4.439-45.353-3.58
		c-19.24,1.419-37.399,8.552-56.262,12.015c5.285-2.799,11.286-3.58,16.975-5.246C865.565,822.86,872.959,821.285,880.301,819.515z"
		/>
	<path fill="#392227" stroke="#392227" d="M897.588,818.161c15.165-0.859,30.76-1.328,45.353,3.58
		c12.614,4.986,25.801,8.618,39.339,9.906c6.001,1.302,12.028-0.013,18.029-0.599c13.629-0.325,26.673-4.908,39.235-9.867
		c5.702-2.239,11.82-3.71,17.977-3.15c1.809,0.299,3.619,0.638,5.441,1.015c-1.861,0.547-3.723,1.106-5.584,1.601
		c-14.957,1.237-28.066,9.399-42.71,12.028c-11.325,1.888-22.898,4.582-34.379,2.343c-13.174-1.549-25.97-5.194-38.284-10.063
		c-13.681-5.467-28.743-5.22-43.179-4.113c-21.882,2.135-42.723,9.542-64.059,14.358c-20.008,5.103-40.237,9.373-60.701,12.223
		c6.431,3.84,14.007,4.4,21.153,5.988c44.442,9.321,89.378,16.246,134.588,20.411c9.984,1.783,20.125,1.731,30.227,1.823
		c22.976,1.38,46.017,0.69,68.993-0.117c11.416,0.651,22.559-2.356,33.937-2.643c9.88-0.482,19.604-2.473,29.42-3.632
		c37.516-4.647,74.681-11.703,111.638-19.591c3.072-0.846,5.975-2.174,8.943-3.306c4.335-0.338,8.696-0.495,13.057-0.612
		c-3.385,10.01-8.422,19.357-13.746,28.456c-15.621,28.717-35.473,55.077-58.24,78.495c-8.136,6.157-14.567,14.228-22.885,20.138
		c-10.102,7.303-19.8,15.256-30.877,21.075c-11.794,7.29-24.629,12.601-37.608,17.326c-8.93,2.734-17.613,6.509-26.881,7.967
		c-7.212,0.807-14.397,1.809-21.531,3.072c-8.878,1.549-17.912,1.107-26.868,1.172c-17.678,0.482-35.069-3.358-52.252-6.99
		c-25.397-6.561-49.349-18.055-70.776-33.116c-20.568-13.707-38.154-31.229-54.621-49.532
		c-15.647-18.771-29.953-38.792-41.239-60.505c-3.866-7.055-7.212-14.371-11.065-21.414c-1.159-2.005-1.835-4.218-1.953-6.509
		c11.573-1.888,23.405-1.471,34.9-3.97c17.287-2.252,33.859-7.941,50.951-11.234C860.189,826.713,878.349,819.58,897.588,818.161
		 M760.54,848.322c0.495,2.148,0.976,4.348,1.901,6.392c11.182,23.015,24.772,44.858,40.51,65.035
		c28.404,36.267,64.632,67.47,107.602,84.978c18.719,7.641,38.506,12.653,58.566,15.191c52.968,5.389,107.134-10.87,149.857-42.281
		c39.625-28.664,70.542-68.029,93.583-110.896c2.916-5.988,6.821-11.638,8.084-18.29c-4.673,0-8.735,2.343-12.666,4.569
		c-12.315,7.108-25.293,14.436-33.559,26.412c-15.894,20.464-31.19,41.461-48.763,60.544c-14.918,15.218-30.07,31.541-50.352,39.482
		c-28.99,12.002-60.844,20.229-92.346,15.282c-22.312-2.955-43.804-10.128-64.567-18.576c-9.945-4.127-20.203-7.81-29.185-13.864
		c-10.974-6.938-20.685-15.647-29.901-24.746c-18.667-17.886-34.939-38.024-51.562-57.785c-5.858-7.667-13.291-13.903-21.518-18.888
		C778.062,856.081,770.225,849.468,760.54,848.322 M783.087,853.959c3.085,3.059,6.795,5.324,10.492,7.576
		c8.344,5.311,14.41,13.278,20.685,20.763c7.693,8.422,14.163,17.873,22.169,26.022c17.522,20.242,36.384,39.925,59.347,54.049
		c9.503,6.118,20.633,8.774,30.838,13.408c9.698,4.465,20.099,7.095,30.305,10.141c27.558,7.381,57.095,9.177,84.809,1.471
		c14.58-4.257,29.302-8.683,42.762-15.855c21.336-13.694,38.375-32.778,54.309-52.252c13.864-16.181,25.853-33.871,39.625-50.143
		c4.53-5.402,11.117-8.357,16.246-13.083c-5.467-0.417-10.57,1.744-15.881,2.499c-5.676,0.82-11.338,1.705-16.845,3.28
		c-3.541,0.208-7.056,0.534-10.531,1.172c-14.345,2.721-28.795,4.83-43.192,7.186c-5.233,0.911-10.791,0.365-15.634,2.838
		c-21.518,1.862-42.919,5.038-64.501,5.975c-11.82-0.82-23.679-0.026-35.512-0.299c-13.135,0.26-26.282-0.482-39.391,0.273
		c-5.728-0.417-11.507-0.391-17.144-1.51c-8.422-1.77-17.092-0.638-25.553-1.875c-7.264-1.015-14.527-2.005-21.83-2.512
		c-4.543-2.213-9.659-2.031-14.527-2.695c-12.25-1.862-24.447-3.931-36.657-5.962c-10.531-1.471-20.815-4.725-31.489-5.025
		C798.161,858.385,790.715,855.833,783.087,853.959z"/>
	<path fill="#712530" stroke="#712530" d="M1057.521,818.031c3.189-1.914,7.003-1.263,10.557-1.393
		c5.702-0.091,11.403,0.286,17.027,1.38c-3.163,0.117-6.3,0.378-9.412,0.651c1.419,0.716,2.864,1.458,4.348,2.161
		c-7.563-0.078-15.113-0.143-22.663-0.182c1.861-0.495,3.723-1.054,5.584-1.601C1061.14,818.669,1059.331,818.33,1057.521,818.031z"
		/>
	<path fill="#492A2F" stroke="#492A2F" d="M1075.694,818.669c3.111-0.273,6.248-0.534,9.412-0.651
		c11.703,0.391,22.989,4.218,34.418,6.522c9.633,1.731,18.823,5.181,28.287,7.641c11.377,2.395,22.651,5.35,34.158,7.147
		c14.358,4.101,29.393,4.101,44.051,6.418c-4.361,0.117-8.722,0.273-13.057,0.612c-4.556,0.026-9.112-0.052-13.642-0.338
		c-27.766-3.996-54.947-11.065-82.062-18.12c-12.223-3.215-24.577-6.222-37.217-7.068
		C1078.557,820.126,1077.112,819.385,1075.694,818.669z"/>
	<path fill="#EF3E58" stroke="#EF3E58" d="M898.825,820.843c14.436-1.107,29.498-1.354,43.179,4.113
		c12.314,4.869,25.111,8.513,38.284,10.063c11.481,2.239,23.054-0.456,34.379-2.343c14.645-2.629,27.753-10.791,42.71-12.028
		c7.55,0.039,15.1,0.104,22.663,0.182c12.64,0.846,24.994,3.853,37.217,7.068c27.115,7.055,54.296,14.124,82.062,18.12
		c1.588,1.146,3.137,2.395,4.699,3.645c-36.957,7.889-74.122,14.944-111.638,19.591c-9.815,1.158-19.539,3.15-29.42,3.632
		c-11.377,0.286-22.52,3.293-33.937,2.643c-22.976,0.807-46.017,1.497-68.993,0.117c-10.102-0.091-20.242-0.039-30.227-1.823
		c-45.21-4.166-90.146-11.091-134.588-20.411c-7.147-1.588-14.723-2.148-21.153-5.988c20.463-2.851,40.693-7.121,60.701-12.223
		C856.102,830.384,876.943,822.977,898.825,820.843z"/>
	<path fill="#263C41" stroke="#263C41" d="M225.977,830.436c14.775-5.532,31.06-8.136,46.72-5.272
		c22.208,3.046,42.32,14.879,58.462,30.044c12.028,11.26,21.713,24.811,29.602,39.222c30.161,62.927,50.469,130.722,58.175,200.131
		c2.265,13.382,1.705,26.998,3.398,40.445c0.794,15.985,0.859,32.062-0.026,48.047c-1.51,12.614-1.185,25.371-3.202,37.933
		c-3.554,31.021-10.232,61.677-19.708,91.435c-2.395,8.435-6.587,16.311-8.097,25.007c-1.614-2.2-3.163-4.413-4.699-6.626
		c2.161-1.25,4.035-2.994,4.608-5.493c4.022-12.965,8.982-25.631,11.95-38.896c5.689-17.457,8.357-35.72,11.416-53.775
		c1.393-12.172,3.996-24.239,3.606-36.54c2.07-22.533,2.916-45.288,0.43-67.821c-0.859-7.537-0.13-15.165-1.107-22.69
		c-3.489-22.963-5.363-46.316-11.664-68.745c-2.76-11.208-5.324-22.468-7.993-33.689c-4.387-13.525-7.745-27.363-12.731-40.693
		c-4.816-13.187-9.516-26.426-15.243-39.248c-7.55-17.639-15.4-35.486-27.545-50.521c-15.608-19.565-36.54-35.954-61.13-42.125
		c-8.631-2.656-17.756-2.317-26.673-2.252c-16.116-0.13-31.75,6.04-44.832,15.152c-0.117-0.599-0.351-1.77-0.482-2.356
		C213.454,835.76,219.807,832.91,225.977,830.436z"/>
	<path fill="#FFFFFF" stroke="#FFFFFF" d="M209.692,843.467c13.083-9.112,28.717-15.283,44.832-15.152
		c8.917-0.065,18.042-0.404,26.673,2.252c24.59,6.17,45.522,22.559,61.13,42.125c12.145,15.035,19.995,32.882,27.545,50.521
		c5.728,12.822,10.427,26.061,15.243,39.248c4.986,13.33,8.344,27.167,12.731,40.693c2.669,11.221,5.233,22.481,7.993,33.689
		c1.185,12.054,4.374,23.783,5.897,35.785c1.067,8.644,2.851,17.209,3.293,25.931c0.351,8.279,2.356,16.376,2.538,24.681
		c0.221,8.839-0.391,17.717,0.703,26.543c0.794,6.118,0.794,12.328,0,18.459c-1.302,10.57-0.208,21.232-0.976,31.828
		c-2.656,24.473-5.832,48.972-11.69,72.924c-1.054,4.413-1.679,8.93-2.447,13.421c-2.968,13.265-7.928,25.931-11.95,38.896
		c-0.573,2.499-2.447,4.244-4.608,5.493c-23.223-34.262-41.513-71.57-58.435-109.256c-23.054-52.148-42.919-105.689-60.102-160.037
		c-3.84-13.642-9.242-26.79-12.874-40.497c-5.337-16.285-9.203-32.986-14.15-49.388c-8.461-32.283-17.964-64.332-24.551-97.071
		C213.819,864.282,211.398,853.933,209.692,843.467z"/>
	<path fill="#A32B3C" stroke="#A32B3C" d="M1199.321,846.018c4.53,0.286,9.086,0.365,13.642,0.338
		c-2.968,1.133-5.871,2.46-8.943,3.306C1202.458,848.414,1200.909,847.164,1199.321,846.018z"/>
	<path fill="#EF3E57" stroke="#EF3E57" d="M760.54,848.322c9.685,1.146,17.522,7.758,25.683,12.562
		c8.227,4.986,15.66,11.221,21.518,18.888c16.623,19.76,32.895,39.899,51.562,57.785c9.216,9.099,18.927,17.808,29.901,24.746
		c8.982,6.053,19.24,9.737,29.185,13.864c20.763,8.448,42.255,15.621,64.567,18.576c31.502,4.947,63.356-3.28,92.346-15.282
		c20.281-7.941,35.434-24.265,50.352-39.482c17.574-19.084,32.869-40.081,48.763-60.544c8.266-11.976,21.245-19.305,33.559-26.412
		c3.931-2.226,7.993-4.569,12.666-4.569c-1.263,6.652-5.168,12.302-8.084,18.29c-23.041,42.867-53.957,82.232-93.583,110.896
		c-42.723,31.411-96.889,47.67-149.857,42.281c-20.06-2.539-39.846-7.55-58.566-15.191c-42.971-17.508-79.198-48.711-107.602-84.978
		c-15.738-20.177-29.328-42.02-40.51-65.035C761.517,852.67,761.035,850.47,760.54,848.322z"/>
	<path fill="#F2F2F2" stroke="#F2F2F2" d="M783.087,853.959c7.628,1.875,15.074,4.426,22.898,5.441
		c10.258,2.773,20.802,4.244,31.229,6.222c17.118,2.643,34.132,6.261,51.445,7.459c7.303,0.508,14.567,1.497,21.83,2.512
		c8.461,1.237,17.131,0.104,25.553,1.875c5.637,1.12,11.416,1.093,17.144,1.51c16.923,2.617,34.067,1.718,51.12,1.848
		c7.967,0,15.868-1.041,23.783-1.822c21.583-0.937,42.984-4.114,64.501-5.975c13.486-0.898,26.79-3.398,40.146-5.428
		c9.763-1.783,19.669-2.942,29.211-5.767c5.506-1.575,11.169-2.46,16.845-3.28c5.311-0.755,10.414-2.916,15.881-2.499
		c-5.129,4.725-11.716,7.68-16.246,13.083c-13.773,16.272-25.762,33.963-39.625,50.143c-15.933,19.474-32.973,38.558-54.309,52.252
		c-13.46,7.173-28.183,11.599-42.762,15.855c-27.714,7.706-57.251,5.91-84.809-1.471c-10.206-3.046-20.607-5.676-30.305-10.141
		c-10.206-4.634-21.336-7.29-30.838-13.408c-22.963-14.124-41.825-33.807-59.347-54.049c-8.006-8.149-14.475-17.6-22.169-26.022
		c-6.274-7.485-12.341-15.452-20.685-20.763C789.882,859.283,786.172,857.018,783.087,853.959z"/>
	<path fill="#939695" stroke="#939695" d="M805.984,859.4c10.674,0.299,20.958,3.554,31.489,5.025
		c12.21,2.031,24.408,4.101,36.657,5.962c4.869,0.664,9.984,0.482,14.527,2.695c-17.313-1.198-34.327-4.816-51.445-7.459
		C826.786,863.644,816.242,862.173,805.984,859.4z"/>
	<path fill="#959897" stroke="#959897" d="M1151.416,863.006c3.476-0.638,6.99-0.963,10.531-1.172
		c-9.542,2.825-19.448,3.983-29.211,5.767c-13.356,2.031-26.66,4.53-40.146,5.428c4.843-2.473,10.401-1.927,15.634-2.838
		C1122.622,867.836,1137.071,865.727,1151.416,863.006z"/>
	<path fill="#8C8989" stroke="#8C8989" d="M953.186,878.979c13.109-0.755,26.256-0.013,39.391-0.273
		c11.833,0.273,23.692-0.521,35.512,0.299c-7.915,0.781-15.816,1.822-23.783,1.822C987.253,880.697,970.109,881.595,953.186,878.979
		z"/>
	<path fill="#686868" stroke="#686868" d="M1523.17,967.302c0.365-1.159,0.794-2.304,1.263-3.424
		c-0.521,7.641-2.747,15.009-4.113,22.507c-6.261,30.175-11.182,60.609-14.762,91.226c-0.338,4.96-0.443,10.024-2.096,14.801
		c-0.781-0.469-2.356-1.406-3.137-1.875c0.443-4.413,1.302-8.761,1.94-13.121c0.26,2.838,0.69,5.662,1.159,8.5
		c1.484-4.673,1.471-9.568-0.638-14.033c1.042-12.236,1.64-24.629,4.947-36.514c0.026,3.437,0.391,6.873,0.859,10.31
		c1.653-3.905,1.08-7.941-0.703-11.651c0.378-4.738,1.393-9.385,2.343-14.02c0.208,1.77-0.924,5.545,1.484,6.04
		c1.718-2.109-0.065-4.96-1.328-6.795c0.768-5.025,1.497-10.063,2.851-14.957c-0.313,2.213-0.898,4.582-0.104,6.808
		c1.12,1.992,2.356-1.315,1.823-2.291c-0.325-1.836-1.015-3.515-1.536-5.246c0.547-4.087,0.521-8.214,0.26-12.314
		c0.82-2.382,1.744-4.725,2.46-7.134c0.82,0.078,2.434,0.234,3.241,0.312C1520.618,978.719,1521.66,972.952,1523.17,967.302
		 M1516.27,992.673c-1.25,1.588-1.367,4.283-0.156,5.962C1518.015,998.102,1518.21,993.168,1516.27,992.673 M1505.817,1051.187
		c-0.729,3.775-0.82,7.641-0.273,11.468C1508.121,1059.557,1507.861,1054.506,1505.817,1051.187z"/>
	<path fill="#0C0708" stroke="#0C0708" d="M1519.889,966.951c1.068,0.091,2.161,0.221,3.281,0.352
		c-1.51,5.65-2.551,11.416-3.788,17.131c-0.807-0.078-2.421-0.234-3.241-0.312c-0.026-2.252-0.182-4.491-0.208-6.704
		C1517.234,973.915,1518.574,970.426,1519.889,966.951z"/>
	<path fill="#281318" stroke="#281318" d="M1485.757,1052.749c10.336-25.006,19.175-50.625,30.175-75.332
		c0.026,2.213,0.182,4.452,0.208,6.704c-0.716,2.408-1.64,4.751-2.46,7.134c-11.026,27.571-22.013,55.168-32.674,82.882
		c-13.069,31.502-25.423,63.317-37.672,95.145c-15.517,37.568-29.745,75.645-45.288,113.213
		c-10.349,27.519-21.492,54.752-32.465,82.036c-8.123,21.336-16.91,42.411-25.085,63.734c-11.455,27.337-21.245,55.35-32.908,82.609
		c-3.476,8.396-6.079,17.183-10.245,25.293c-3.502,6.691-10.844,11-18.407,10.779c-9.867,0.26-18.029-6.027-25.801-11.247
		c-8.24-5.936-16.702-12.653-21.049-22.078c-2.59-5.246,0.508-10.752,2.369-15.647c10.987-27.74,22.299-55.363,32.817-83.286
		c5.532-12.796,10.635-25.788,15.608-38.805c10.518-27.506,22.039-54.595,32.531-82.114c4.53-10.323,7.303-21.44,12.939-31.255
		c7.446-11.976,15.908-23.275,23.757-34.978c13.408-19.175,26.439-38.623,39.899-57.772c7.264-9.763,10.427-21.661,15.113-32.7
		c5.598-15.595,12.263-30.773,18.094-46.277c1.523,1.914,3.085,3.801,4.699,5.689c-0.703,11.599-3.449,22.924-5.428,34.353
		c-20.607,104.374-66.806,203.255-131.659,287.426c-11.495,16.532-27.259,29.693-37.621,47.045
		c-5.793,9.203-6.808,20.711-4.478,31.177c3.033,10.726,10.83,19.526,19.956,25.645c6.912,4.634,14.449,8.878,22.715,10.427
		c2.539,0.573,2.916-2.76,3.996-4.322c23.848-61.026,48.36-121.779,72.299-182.752
		C1408.473,1247.933,1446.952,1150.276,1485.757,1052.749 M1418.848,1116.066c-5.78,14.579-11.573,29.172-17.339,43.765
		c-3.281,8.305-9.203,15.139-13.942,22.611c-15.322,21.648-30.175,43.648-45.067,65.608c-5.246,7.863-11.768,15.074-15.035,24.095
		c-20.581,52.616-41.656,105.025-62.354,157.589c-3.306,9.034-8.188,17.587-9.841,27.142c6.066-5.077,10.01-12.093,15.504-17.73
		c7.602-8.084,14.775-16.571,21.179-25.644c14.332-18.901,27.649-38.545,40.315-58.592c41.682-68.758,72.898-144.299,88.324-223.354
		c1.523-9.438,4.686-18.745,4.218-28.391C1421.842,1106.954,1420.527,1111.627,1418.848,1116.066 M1235.015,1506.46
		c-2.044,7.537,5.22,13.122,9.802,18.003c7.094,6.587,14.996,12.38,23.627,16.819c7.915,4.009,18.302,2.46,24.369-4.166
		c-3.411-1.757-6.938-3.241-10.505-4.582c-12.002-4.556-22.95-12.575-29.823-23.536c-5.272-7.524-6.964-16.688-7.615-25.657
		C1240.469,1490.488,1237.683,1498.533,1235.015,1506.46z"/>
	<path fill="#212221" stroke="#212221" d="M1516.27,992.673c1.94,0.495,1.744,5.428-0.156,5.962
		C1514.904,996.956,1515.021,994.261,1516.27,992.673z"/>
	<path fill="#1F1F1F" stroke="#1F1F1F" d="M1513.42,1003.569c0.521,1.731,1.211,3.411,1.536,5.246
		c0.534,0.976-0.703,4.283-1.823,2.291c-0.794-2.226-0.208-4.595,0.104-6.808L1513.42,1003.569z"/>
	<path fill="#909292" stroke="#909292" d="M935.131,1016.456c17.183,3.632,34.574,7.472,52.252,6.99
		c8.956-0.065,17.99,0.378,26.868-1.172c7.134-1.263,14.319-2.265,21.531-3.072c-5.064,2.434-10.804,2.421-16.194,3.606
		c-7.628,1.601-15.478,0.794-23.171,1.718c-7.824,0.82-15.621-0.651-23.445-0.625c-8.448,0.078-16.662-2.2-24.968-3.476
		C943.657,1019.333,938.75,1019.385,935.131,1016.456z"/>
	<path fill="#191919" stroke="#191919" d="M1510.386,1019.255c1.263,1.836,3.046,4.686,1.328,6.795
		c-2.408-0.495-1.276-4.27-1.484-6.04L1510.386,1019.255z"/>
	<path fill="#1E1E1E" stroke="#1E1E1E" d="M1507.887,1034.03c1.783,3.71,2.356,7.745,0.703,11.651
		c-0.469-3.437-0.833-6.873-0.859-10.31L1507.887,1034.03z"/>
	<path fill="#9F9D9D" stroke="#9F9D9D" d="M405.84,1036.842c6.3,22.429,8.175,45.782,11.664,68.745
		c0.976,7.524,0.247,15.152,1.107,22.69c2.486,22.533,1.64,45.288-0.43,67.821c0.391,12.302-2.213,24.369-3.606,36.54
		c-3.059,18.055-5.728,36.319-11.416,53.775c0.768-4.491,1.393-9.008,2.447-13.421c5.858-23.952,9.034-48.451,11.69-72.924
		c0.768-10.596-0.325-21.258,0.976-31.828c0.794-6.131,0.794-12.34,0-18.459c-1.094-8.826-0.482-17.704-0.703-26.543
		c-0.182-8.305-2.187-16.402-2.538-24.681c-0.443-8.722-2.226-17.287-3.293-25.931
		C410.214,1060.625,407.024,1048.896,405.84,1036.842z"/>
	<path fill="#1D1D1D" stroke="#1D1D1D" d="M1505.817,1051.187c2.044,3.319,2.304,8.37-0.273,11.468
		C1504.997,1058.828,1505.088,1054.962,1505.817,1051.187z"/>
	<path fill="#242424" stroke="#242424" d="M1502.784,1071.885c2.109,4.465,2.122,9.359,0.638,14.033
		c-0.469-2.838-0.898-5.663-1.159-8.5C1502.433,1075.556,1502.602,1073.707,1502.784,1071.885z"/>
	<path fill="#0B0607" stroke="#0B0607" d="M1426.996,1086.594c0.95-0.833,1.927-1.627,2.929-2.395
		c0.156,2.213,0.325,4.439,0.43,6.704c-0.169,1.835-0.313,3.697-0.443,5.571c-1.614-1.887-3.176-3.775-4.699-5.689
		C1425.773,1089.367,1426.359,1087.961,1426.996,1086.594z"/>
	<path fill="#161819" stroke="#161819" d="M1500.324,1090.539c0.781,0.469,2.356,1.406,3.137,1.875
		c-0.286,3.229-0.443,6.483-1.028,9.698c-0.43,1.861-0.911,3.723-1.367,5.61c-0.547-2.278-1.106-4.543-1.523-6.821
		C1499.777,1097.438,1499.973,1093.975,1500.324,1090.539z"/>
	<path fill="#727272" stroke="#727272" d="M1497.734,1111.106c0.377-3.45,1.172-6.808,1.809-10.206
		c0.417,2.278,0.976,4.543,1.523,6.821c0.456-1.887,0.937-3.749,1.367-5.61c0.26,4.101-0.117,8.253-1.406,12.197
		C1499.894,1113.228,1498.801,1112.161,1497.734,1111.106z"/>
	<path fill="#BF536F" stroke="#BF536F" d="M1418.848,1116.066c1.679-4.439,2.994-9.112,5.962-12.9
		c0.469,9.646-2.695,18.953-4.218,28.391c-15.426,79.055-46.642,154.596-88.324,223.354c-12.666,20.047-25.983,39.69-40.315,58.592
		c-6.404,9.073-13.577,17.561-21.179,25.644c-5.493,5.637-9.438,12.653-15.504,17.73c1.653-9.555,6.535-18.107,9.841-27.142
		c20.698-52.565,41.773-104.973,62.354-157.589c3.267-9.021,9.789-16.233,15.035-24.095c14.892-21.96,29.745-43.96,45.067-65.608
		c4.738-7.472,10.661-14.306,13.942-22.611C1407.275,1145.238,1413.068,1130.646,1418.848,1116.066z"/>
	<path fill="#535353" stroke="#535353" d="M1497.734,1111.106c1.067,1.054,2.161,2.122,3.293,3.202
		c-0.273,5.246-0.586,10.531-1.757,15.686c-1.809,7.85-1.067,16.012-2.643,23.913c-4.647,22.299-5.806,45.184-10.87,67.418
		c-2.968,21.921-7.784,43.556-11.221,65.413c-6.339,25.41-10.648,51.315-17.704,76.556c-1.08,4.139-0.989,8.591-2.877,12.51
		c-0.508-1.289-0.976-2.564-1.419-3.814c0.078,3.059-0.078,6.131-0.39,9.216c-0.82-1.94-1.601-3.853-2.356-5.754
		c7.889-27.844,14.436-56.079,19.891-84.51c6.808-31.437,11.755-63.226,16.871-94.975
		C1490.183,1167.667,1495.364,1139.55,1497.734,1111.106z"/>
	<path fill="#020202" stroke="#020202" d="M483.645,1113.97c2.994,7.225,1.38,15.204,3.085,22.702
		c2.07,9.268,1.224,18.849,2.89,28.196c1.718,9.242,0.703,18.706,2.057,27.988c0.807,6.248,0.573,12.575,0.872,18.875
		c0.391,8.865,1.224,17.808-0.195,26.634c-3.15-12.158-0.312-24.746-1.211-37.087c-1.809-23.145-2.929-46.407-6.73-69.331
		C484.452,1125.933,484.14,1119.945,483.645,1113.97z"/>
	<path fill="#020202" stroke="#020202" d="M465.213,1116.287c0.82,1.12,1.666,2.239,2.538,3.371
		c0.195,15.439,0.065,30.891,0.078,46.342c-0.664,0.104-2.018,0.339-2.682,0.443
		C465.082,1149.729,464.991,1133.002,465.213,1116.287z"/>
	<path fill="#142A3A" stroke="#142A3A" d="M483.333,1137.87c0.312-2.005,0.729-3.97,1.08-5.923
		c3.801,22.924,4.921,46.186,6.73,69.331c0.898,12.341-1.94,24.928,1.211,37.087c1.315,5.337,0.846,10.883,0.846,16.337
		c-0.078,14.671,0.208,29.406-1.25,44.012c-2.291,6.756-1.093,13.981-2.369,20.919c-0.859,8.461-3.228,16.649-4.413,25.059
		l-0.065-1.015c-0.13-2.981-0.755-5.91-1.25-8.826c1.419-11.56,4.192-22.976,4.153-34.692c1.692-17.261,2.695-34.601,2.538-51.966
		c-0.195-13.395,0.026-26.855-1.692-40.172c-1.393-10.219-0.351-20.594-1.848-30.799
		C484.778,1164.192,485.611,1150.888,483.333,1137.87z"/>
	<path fill="#062D3E" stroke="#062D3E" d="M465.148,1166.444c0.664-0.104,2.018-0.339,2.682-0.443
		c-3.02,68.719-21.778,135.942-48.282,199.141c-1.276,2.616,1.315,4.895,2.656,6.925c-2.916-2.356-5.663-4.908-8.253-7.576
		c1.588-1.914,3.202-3.827,4.244-6.079c20.385-49.479,35.772-101.289,42.58-154.453
		C462.635,1191.489,462.974,1178.862,465.148,1166.444z"/>
	<path fill="#353535" stroke="#353535" d="M962.038,1205.978c9.438-4.699,20.099-5.832,30.526-5.441
		c15.452-0.534,30.839,5.532,42.424,15.66c28.756,25.723,48.021,60.258,61.56,95.978c10.375,28.547,17.873,58.188,21.388,88.376
		c0.729,7.381,2.551,14.632,2.577,22.078c0,6.196,0.365,12.406,1.276,18.55c0.937,10.792,1.224,21.648,1.289,32.492
		c-0.651-0.182-1.966-0.573-2.63-0.755c-1.328-5.806-0.625-11.833-1.25-17.704c-1.614-15.048-1.159-30.266-3.437-45.249
		c-3.02-27.571-8.292-55.025-17.378-81.268c-7.056-23.991-17.964-46.746-31.047-68.003c-6.379-9.919-13.278-19.539-21.205-28.274
		c-8.787-10.115-18.954-19.695-31.724-24.434c-16.962-7.081-36.827-6.053-53.111,2.421c-14.241,7.173-24.642,19.761-34.483,31.958
		c-28.782,37.503-45.991,82.778-55.441,128.808c-1.692,8.019-3.28,16.051-4.048,24.225c-2.838,12.067-1.966,24.59-3.983,36.787
		c-1.211,8.292,0.586,16.806-1.523,25.007c-1.927-5.324-2.135-11.039-2.044-16.636c0.299-7.967,0.312-15.959,1.575-23.848
		c1.211-8.045,0.95-16.233,2.395-24.225c4.022-18.81,7.134-37.829,12.731-56.261c6.04-18.979,12.666-37.933,22.234-55.454
		c8.618-17.873,19.604-34.601,32.57-49.61C940.13,1221.26,949.632,1211.341,962.038,1205.978z"/>
	<path fill="#2B2B2B" stroke="#2B2B2B" d="M1449.79,1375.452c0.755,1.901,1.536,3.814,2.356,5.754
		c-14.059,49.584-30.396,98.868-54.556,144.572c-10.974,20.398-23.51,40.016-38.584,57.655
		c-17.482,19.396-37.816,37.334-62.575,46.641c-13.044,4.374-26.022,9.216-39.677,11.338c-3.671,0.469-7.368,1.783-11.078,1.081
		c-8.032-2.174-16.597-2.59-24.564,0.026c-4.582,1.08-9.138-0.924-13.603-1.666c-21.179-4.829-39.066-19.266-51.367-36.787
		c-14.28-20.854-22.247-45.288-27.623-69.787c-1.263-8.774-3.554-17.352-4.843-26.113c-1.211-11.742-3.944-23.366-3.228-35.251
		c0.664,0.182,1.979,0.573,2.63,0.755c2.695,20.503,4.179,41.226,9.203,61.351c6.066,27.454,15.699,55.116,34.405,76.647
		c14.28,16.845,35.655,26.894,57.511,28.704c23.158,1.653,46.069-4.257,67.639-12.171c39.235-14.58,68.394-47.319,89.834-82.153
		c11.273-17.678,20.75-36.423,28.964-55.689c6.717-13.747,11.455-28.3,17.092-42.489c3.775-9.685,6.535-19.708,9.724-29.589
		C1441.889,1404.104,1446.406,1389.928,1449.79,1375.452z"/>
	<path fill="#6F6F6F" stroke="#6F6F6F" d="M857.638,1465.573c-0.286-8.409,1.015-16.714,2.135-25.02
		c-0.091,5.597,0.117,11.312,2.044,16.636c1.653,4.035,0.104,8.318-0.364,12.432c-1.38,7.654-0.091,15.543-1.757,23.171
		c-1.51,6.73-1.419,13.681-2.786,20.45c-2.356,12.445-4.088,25.137-8.253,37.152c-0.976-0.976-1.94-1.927-2.877-2.851
		c4.647-19.565,8.162-39.404,9.867-59.451C856.87,1480.634,857.911,1473.136,857.638,1465.573 M859.278,1487.767
		c1.12-7.381,0.859-14.892,0.013-22.273C858.08,1472.81,857.39,1480.49,859.278,1487.767 M856.414,1493.977
		c-0.924,4.452-1.341,9.151,0.299,13.512C857.39,1503.011,858.145,1498.298,856.414,1493.977 M853.811,1514.7
		c-1.276,1.901-1.067,4.53-0.508,6.691c1.054,1.822,1.705-1.757,1.653-2.382C854.813,1517.734,855.438,1514.974,853.811,1514.7
		 M851.259,1527.64c-1.237,1.979-1.041,4.621-0.508,6.847c1.054,1.822,1.679-1.862,1.64-2.46
		C852.235,1530.738,852.873,1527.952,851.259,1527.64 M848.513,1540.696c-1.211,1.107-1.315,3.45-0.091,4.634
		C850.465,1545.37,850.608,1540.566,848.513,1540.696z"/>
	<path fill="#2E2E2E" stroke="#2E2E2E" d="M737.512,1451.331c4.569,14.111,8.175,28.508,12.015,42.84
		c2.213,8.461,6.053,16.649,6.027,25.566c-20.854,5.311-41.877,9.906-62.575,15.777c-28.612,6.691-56.991,14.267-85.473,21.388
		c5.754,11.651,14.892,21.153,23.418,30.812c15.426,16.78,34.184,30.695,55.285,39.456c13.772,4.986,27.896,9.112,42.359,11.625
		c21.075,3.918,43.752,1.783,62.783-8.553c17.977-9.75,31.633-26.204,40.25-44.559c6.352-12.041,10.948-24.942,14.176-38.141
		c0.937,0.924,1.901,1.875,2.877,2.851c-6.587,23.496-16.077,46.98-32.908,65.087c-13.903,15.113-33.481,26.374-54.296,26.894
		c-8.084-1.953-16.662-2.538-24.655,0.13c-4.127,1.185-8.292-0.482-12.367-1.054c-24.811-4.543-49.336-12.965-69.852-27.935
		c-17.613-12.965-32.739-29.094-45.522-46.785c-2.018-2.825-3.723-5.923-6.248-8.292c-4.843,0.104-9.321,2.265-13.994,3.267
		c-14.111,3.254-28.183,6.691-42.073,10.766c-18.303,4.322-36.657,8.5-54.752,13.629c-52.291,12.992-104.53,26.23-156.718,39.664
		c-2.239,0.416-4.517,0.534-6.782,0.677c-4.491-19.175-8.5-38.454-12.952-57.628c0.495-0.638,1.484-1.888,1.979-2.512
		c5.663,18.511,8.956,37.66,13.603,56.444c7.524-0.755,14.567-3.684,21.921-5.298c12.067-2.825,24.16-5.598,36.084-9.047
		c29.784-7.55,59.672-14.71,89.352-22.663c31.789-7.394,63.265-16.012,94.963-23.796c56.717-13.773,113.057-29.016,169.839-42.515
		c2.799-0.755,5.572-1.549,8.37-2.291c-1.692-11.221-5.558-21.96-8.227-32.96c-2.877-9.607-5.22-19.37-8.409-28.873
		c0.612-0.013,1.861-0.039,2.473-0.052C737.499,1453.922,737.512,1452.62,737.512,1451.331z"/>
	<path fill="#E3E4E6" stroke="#E3E4E6" d="M718.325,1459.506c5.493-1.64,10.883-4.022,16.688-4.205
		c3.189,9.503,5.532,19.266,8.409,28.873c2.669,11,6.535,21.739,8.227,32.96c-2.799,0.742-5.571,1.536-8.37,2.291
		c-56.782,13.499-113.122,28.743-169.839,42.515c-31.698,7.784-63.174,16.402-94.963,23.796
		c-29.68,7.954-59.568,15.113-89.352,22.663c-11.924,3.45-24.017,6.222-36.084,9.047c-7.355,1.614-14.397,4.543-21.921,5.298
		c-4.647-18.784-7.941-37.933-13.603-56.444c1.614-2.239,3.723-4.231,6.574-4.608c8.644-1.666,17.261-3.476,25.71-5.962
		c44.155-11.039,88.298-22.143,132.583-32.609c10.922-3.202,22.221-4.933,33.038-8.513c13.004-3.215,25.931-6.717,38.974-9.763
		c15.022-4.114,30.005-8.383,45.223-11.716c9.607-2.083,18.849-5.506,28.378-7.954
		C658.171,1476.833,688.306,1468.371,718.325,1459.506z"/>
	<path fill="#0B0607" stroke="#0B0607" d="M859.278,1487.767c-1.887-7.277-1.198-14.957,0.013-22.273
		C860.137,1472.875,860.397,1480.386,859.278,1487.767z"/>
	<path fill="#BF536F" stroke="#BF536F" d="M1235.015,1506.46c2.669-7.928,5.454-15.973,9.854-23.119
		c0.651,8.969,2.343,18.133,7.615,25.657c6.873,10.961,17.821,18.98,29.823,23.536c3.567,1.341,7.095,2.825,10.505,4.582
		c-6.066,6.626-16.454,8.175-24.369,4.166c-8.631-4.439-16.532-10.232-23.627-16.819
		C1240.235,1519.582,1232.971,1513.997,1235.015,1506.46z"/>
	<path fill="#0B0607" stroke="#0B0607" d="M856.414,1493.977c1.731,4.322,0.976,9.034,0.299,13.512
		C855.073,1503.128,855.49,1498.429,856.414,1493.977z"/>
	<path fill="#1E1E1E" stroke="#1E1E1E" d="M853.811,1514.7c1.627,0.273,1.002,3.033,1.146,4.309
		c0.052,0.625-0.599,4.205-1.653,2.382C852.743,1519.23,852.535,1516.601,853.811,1514.7z"/>
	<path fill="#0C0708" stroke="#0C0708" d="M851.259,1527.64c1.614,0.312,0.976,3.098,1.133,4.387c0.039,0.599-0.586,4.283-1.64,2.46
		C850.218,1532.261,850.022,1529.618,851.259,1527.64z"/>
	<path fill="#252525" stroke="#252525" d="M848.513,1540.696c2.096-0.13,1.953,4.673-0.091,4.634
		C847.198,1544.146,847.302,1541.803,848.513,1540.696z"/>
	<path fill="#040404" stroke="#040404" d="M736.796,1642.506c7.993-2.669,16.571-2.083,24.655-0.13
		C753.342,1643.808,744.932,1643.639,736.796,1642.506z"/>
	<path fill="#050505" stroke="#050505" d="M1221.112,1642.519c7.967-2.616,16.532-2.2,24.564-0.026
		C1237.553,1643.691,1229.222,1643.678,1221.112,1642.519z"/>
</g>
</svg>
