<?xml version="1.0" encoding="utf-8"?>

<!DOCTYPE svg PUBLIC "-//W3C//DTD SVG 1.1//EN" "http://www.w3.org/Graphics/SVG/1.1/DTD/svg11.dtd">
<svg version="1.1" id="Layer_1" xmlns="http://www.w3.org/2000/svg" xmlns:xlink="http://www.w3.org/1999/xlink" x="0px" y="0px"
	 viewBox="0 0 1854.073 1678.351" enable-background="new 0 0 1854.073 1678.351" xml:space="preserve">
<g>
	<path fill="#8E4A01" stroke="#8E4A01" stroke-width="0.5" d="M674.935,51.943c0.951-5.814,5.168-11.464,11.311-12.239
		c9.831-1.034,20.085-0.752,29.47,2.678c20.391,7.353,40.253,16.221,61.089,22.317c12.239,3.465,24.173,8.034,36.658,10.595
		c8.516,1.668,16.573,5.791,25.441,5.356c-1.116,0.352-2.208,0.717-3.289,1.081c8.915,0.517,17.501,3.23,26.322,4.487
		c10.7,1.374,21.307,4.24,32.183,3.688c-1.562,0.399-3.124,0.81-4.663,1.245c8.293-0.423,16.479,1.022,24.69,1.997
		c10.994,0.611,21.894,2.373,32.923,2.631c5.814,0.2,11.699-0.153,17.466,0.857c9.831,1.621,19.85,1.022,29.693,2.525
		c11.675,0.364,23.327,1.116,34.991,1.633c14.013,2.138,28.248,1.644,42.285,3.629c10.606,0.54,21.119,2.467,31.784,2.185
		c8.21,0.505,16.421,1.198,24.631,1.95c9.749,0.517,19.545,0.094,29.294,0.599c5.086,0.904,10.137,2.196,15.363,1.879
		c11.64-0.317,23.186,1.468,34.814,1.633c10.324,1.445,20.849-0.012,31.114,2.02c10.066,1.727,20.379,0.329,30.445,2.126
		c7.036,0.787,14.118,1.233,21.119,2.314c8.069,0.493,16.162,0.916,24.161,2.255c6.813,0.576,13.672,0.728,20.414,2.114
		c14.224,1.703,28.542,2.983,42.555,6.108c12.991,1.139,25.641,4.405,38.526,6.237c11.675,2.96,23.562,5.062,35.202,8.163
		c11.252,1.574,21.823,5.814,32.747,8.739c11.617,3.312,23.374,6.331,34.521,11.088c14.506,5.321,29.035,10.63,42.825,17.677
		c20.12,10.794,39.912,22.293,58.834,35.096c7.165,4.781,13.578,10.571,20.449,15.763c17.208,12.768,31.549,28.8,46.736,43.823
		c16.338,18.065,30.797,37.856,43.189,58.822c4.569,7.846,9.291,15.669,12.568,24.173c3.547,8.704,8.269,16.902,11.358,25.805
		c5.403,16.221,11.147,32.43,13.942,49.367c4.322,25.347,7.658,50.976,7.376,76.735c-0.858,26.31-3.7,52.82-11.476,78.074
		c-5.016,13.684-9.173,27.826-16.55,40.499c-1.445,2.678-3.582,5.685-2.126,8.844c4.064,10.853,9.667,21.095,13.39,32.101
		c4.205,9.937,7.094,20.355,11.17,30.339c4.393,11.863,8.703,23.809,11.616,36.141c3.629,14.306,5.544,28.965,7.834,43.53
		c1.315,17.795,2.337,35.695,0.693,53.513c-0.435,5.838,0.294,13.014-4.78,17.137c-2.69,2.936-7.118,2.596-10.677,2.009
		c-2.925-1.539-5.156-4.029-7.529-6.237c-0.458,10.689,4.217,20.743,3.935,31.384c0.388-0.576,0.811-1.139,1.245-1.691
		c0.564,4.51,1.151,9.056,1.128,13.637c0.317-1.116,0.67-2.196,1.034-3.277c2.49,16.35,7.412,32.219,12.145,48.016
		c1.691,9.009,5.521,17.384,8.093,26.146c3.359,11.452,8.269,22.376,12.11,33.675c1.351,4.311,4.276,8.281,4.064,12.991
		c0.047,4.968-3.054,9.678-7.212,12.216c-6.225,2.478-11.816-2.549-17.266-4.745c-0.235,4.17-0.235,8.41,0.834,12.497
		c1.785,6.906,1.562,14.107,2.502,21.154c0.153,6.859,0.54,14.565-3.453,20.52c-2.196,3.594-6.695,3.759-10.371,4.546
		c-0.176,12.016-3.312,23.703-5.262,35.507c-1.75,10.372-5.568,20.191-8.034,30.375c-3.559,9.479-6.46,19.275-11.417,28.154
		c-3.453,6.143-5.685,12.909-9.479,18.875c-2.502,3.958-4.91,7.975-7,12.18c-5.661-1.456-11.194-3.418-16.973-4.252
		c-6.249-0.987-12.58-0.693-18.852-0.799c3.312-5.638,7.447-10.853,9.514-17.137c2.784-8.175,6.495-16.08,8.069-24.619
		c1.433-7.834,3.723-15.551,4.029-23.55c0.211-5.532,2.067-10.841,2.208-16.373c0.117-14.6,2.948-29.294,0.517-43.823
		c-4.945,3.218-8.058,8.433-12.615,12.122c-7.952,6.672-16.009,13.284-24.913,18.652c-9.773,7.036-20.802,12.45-32.512,15.316
		c6.014-10.841,14.024-20.438,20.109-31.232c4.534-8.328,10.019-16.139,13.895-24.807c4.381-8.41,7.611-17.325,11.664-25.876
		c2.349-4.898,3.312-10.289,5.109-15.375c3.583-9.949,5.286-20.449,6.754-30.879c0.728-4.863,0.74-9.796,0.305-14.67
		c-10.219,6.214-18.464,15.669-29.869,19.933c-3.383,0.446-3.794-3.747-4.51-6.084c-3.054-14.847-5.403-29.834-8.539-44.657
		c-3.265-11.323-4.228-23.198-8.304-34.297c-6.237-21.988-14.87-43.189-23.538-64.308c-9.49-21.6-22.47-41.31-34.803-61.313
		c-3.911-6.472-11.205-9.502-16.55-14.529c-12.909,2.619-25.935,4.452-38.89,6.766c-6.683,0.035-13.202,1.257-19.733,2.443
		c-12.298,0.059-24.22,3.7-36.506,3.712c-13.778,0.317-28.648,0.622-40.687-7.13c-6.366-4.334-12.075-10.289-14.776-17.595
		c-0.998-5.333-0.211-10.806-0.775-16.186c-5.72,2.76-11.781,4.604-17.865,6.296c-11.863,4.193-24.044,7.353-36.059,11.041
		c-25.793,8.152-52.574,12.58-79.307,16.362c-31.044,3.301-62.569,3.629-93.554-0.376c-20.508-2.044-41.298-7.212-58.188-19.545
		c-7.623-5.203-13.355-12.556-18.605-20.015c-3.195-4.604-2.619-10.477-2.713-15.786c-0.282-6.883,3.101-13.073,5.051-19.474
		c-9.608,0.317-18.664,3.888-27.814,6.472c-12.815,3.629-24.137,11.205-33.698,20.32c-11.252,9.925-20.672,21.647-31.502,32.007
		c-4.228,3.97-8.245,9.784-14.706,9.608c-5.802,0.752-10.442-3.853-13.496-8.199c-2.537-5.485-1.562-11.969,0.599-17.442
		c2.631-7.905,6.742-15.61,6.46-24.173c0.376,0.576,0.752,1.151,1.151,1.738c2.337-11.992,4.628-24.396,11.1-34.967
		c3.23-5.438,5.638-11.346,9.291-16.526c3.218-5.215,7.529-9.831,9.526-15.716c-9.091-0.411-17.959,1.962-26.956,2.807
		c-11.252,2.208-22.728,3.207-33.839,6.119c-7.13,0.857-14.142,2.666-21.342,2.772c-7.423,0.188-14.846,0.223-22.258,0.07
		c-6.719-0.106-13.226-1.985-19.686-3.641c-4.64-1.034-7.975-5.309-8.751-9.866c-0.987-5.943-1.092-12.627,2.619-17.713
		c7.881-11.123,19.251-18.911,29.928-27.086c1.351-1.128,2.572-2.384,3.829-3.606c-2.713-0.564-5.485-0.54-8.14,0.235
		c-6.354,1.75-13.014,1.456-19.416,2.889c-7.74,1.762-15.704,0.517-23.527,1.386c-12.192,1.515-24.549,1.116-36.729-0.235
		c-9.338-0.141-18.711,0.012-27.908-1.868c-14.835-1.198-29.294-4.863-44.035-6.636c-13.825-3.864-28.26-5.544-41.627-10.935
		c-8.234-3.301-17.031-4.851-25.265-8.151c-8.269-3.254-16.432-6.789-24.748-9.937c-8.328-2.878-15.998-7.271-24.22-10.395
		c-7.2-2.866-13.461-8.34-21.318-9.291c-6.507-0.611-9.866,5.967-14.177,9.608c-7.67,6.495-12.016,15.669-17.278,24.008
		c-6.061,9.467-8.974,20.461-12.122,31.126c-4.099,11.429-4.358,23.797-4.311,35.813c-1.738-0.446-3.453-0.869-5.156-1.351
		c-4.146-3.782-5.567-9.561-9.537-13.484c-0.576,11.252-3.9,22.094-5.685,33.17c-1.527,10.242-5.074,20.003-6.883,30.186
		c-2.502,9.032-3.488,18.429-6.801,27.227c-1.856,7.646-3.559,15.34-5.943,22.857c-4.51,19.193-12.627,37.293-17.654,56.344
		c-1.034,0.2-2.055,0.399-3.077,0.622c-2.983-13.249-8.621-25.676-12.18-38.749c-3.723,3.418-4.334,8.692-5.556,13.32
		c-1.468,7.482-4.745,14.435-6.307,21.894c-3.923,17.043-8.892,33.863-11.534,51.188c-1.351,9.267-4.252,18.312-4.616,27.708
		c-0.305,4.863-0.775,9.725-1.421,14.565c-1.327,8.868-0.552,17.865-0.728,26.792c-4.522-3.641-7.177-8.915-10.783-13.343
		c-4.228-5.203-7.271-11.628-13.214-15.152c-10.184-6.531-21.589-12.991-34.086-12.357c-4.816,0.035-9.878-0.305-14.365,1.762
		c-3.923,1.856-7.529,4.393-10.583,7.482c-0.658-8.727-5.156-16.432-9.103-24.02c-3.982-5.603-9.197-10.242-14.247-14.87
		c-5.427-4.851-12.615-6.813-18.546-10.853c-4.463-3.077-4.816-9.138-4.393-14.036c0.27-4.757,3.547-8.786,7.764-10.759
		c9.197-4.675,17.783-11.076,23.456-19.827c5.415-8.398,11.734-16.503,14.471-26.287c-4.534,0.658-9.373,2.925-13.86,1.104
		c-3.571-2.455-6.202-6.613-6.131-11.029c-1.069-12.274,5.227-23.362,10.09-34.156c6.084-13.449,14.694-25.488,21.753-38.409
		c2.091-4.005,4.992-7.67,6.214-12.051c-2.901-4.076-7.306-7.576-7.529-12.979c-2.819-21.107-0.247-42.919,7.235-62.851
		c5.203-17.971,12.779-35.061,19.251-52.574c5.309-12.016,9.608-24.455,14.929-36.482c2.373-5.791,5.38-11.311,7.705-17.137
		c4.91-12.251,11.558-23.691,17.642-35.378c4.358-8.527,10.548-15.974,14.647-24.643c-2.009-2.854-4.04-5.697-6.307-8.328
		c-7.541-8.903-12.732-19.404-18.828-29.27c-3.453-6.049-5.521-12.744-8.21-19.145c-4.827-10.853-7.623-22.411-10.783-33.816
		c-3.547-11.44-5.274-23.327-7.012-35.143c-2.032-10.43-1.75-21.084-1.762-31.666c-0.141-13.026,2.079-26.475,8.598-37.915
		c3.406-4.616,7.529-8.938,12.544-11.816c4.381-1.081,9.678-1.257,13.378,1.774c14.142,11.652,24.513,27.156,38.702,38.737
		c6.131,5.168,11.076,11.628,17.642,16.291c-5.45-10.548-11.135-21.001-15.692-31.972c-2.807-9.972-6.965-19.803-6.953-30.327
		c0.059-9.937-0.822-20.156,2.243-29.764c1.398-4.757,4.287-9.444,8.938-11.57c3.524-0.728,7.67-1.198,10.783,1.045
		c9.972,6.672,18.758,14.929,27.779,22.798c7.623,7.646,15.727,14.847,24.572,21.048c10.219,6.166,20.191,14.013,32.594,14.847
		c-0.834-20.485-7.576-40.217-8.257-60.714c-2.055-15.175-1.315-30.492-1.374-45.738c0.012-12.674,3.876-24.936,8.797-36.482
		c2.29-5.156,5.027-10.395,9.62-13.883c3.7-3.148,9.044-2.361,13.484-1.68c9.925,4.017,16.785,12.732,25.054,19.192
		c-1.363-6.213-5.321-11.417-6.777-17.583C673.361,70.982,673.29,61.233,674.935,51.943z"/>
	<path fill="#FBE4AE" stroke="#FBE4AE" stroke-width="0.5" d="M641.565,556.808c4.311-3.641,7.67-10.219,14.177-9.608
		c7.858,0.951,14.118,6.425,21.318,9.291c8.222,3.124,15.892,7.517,24.22,10.395c8.316,3.148,16.479,6.683,24.748,9.937
		c8.234,3.301,17.031,4.851,25.265,8.151c13.367,5.391,27.802,7.071,41.627,10.935c15.727,4.827,32.289,6.19,48.51,8.598
		c9.432-0.012,18.605,2.772,28.049,2.502c7.059-0.012,14.118-0.047,21.189-0.023c7.764-0.035,15.634,0.458,23.292-1.222
		c6.859-1.527,14.036-0.446,20.849-2.29c4.604-1.151,9.631-2.161,14.036,0.27c-10.677,8.175-22.047,15.962-29.928,27.086
		c-3.712,5.086-3.606,11.769-2.619,17.713c0.775,4.557,4.111,8.833,8.751,9.866c6.46,1.656,12.967,3.536,19.686,3.641
		c7.412,0.153,14.835,0.117,22.258-0.07c7.2-0.106,14.212-1.915,21.342-2.772c11.111-2.913,22.587-3.911,33.839-6.119
		c8.997-0.846,17.865-3.218,26.956-2.807c-1.997,5.885-6.307,10.501-9.526,15.716c-3.653,5.18-6.061,11.088-9.291,16.526
		c-6.472,10.571-8.762,22.975-11.1,34.967c-0.399-0.587-0.775-1.163-1.151-1.738c0.282,8.563-3.829,16.268-6.46,24.173
		c-2.161,5.474-3.136,11.957-0.599,17.442c3.054,4.346,7.693,8.95,13.496,8.199c6.46,0.176,10.477-5.638,14.706-9.608
		c10.83-10.36,20.25-22.082,31.502-32.007c9.561-9.115,20.884-16.691,33.698-20.32c9.15-2.584,18.206-6.155,27.814-6.472
		c-1.95,6.401-5.333,12.591-5.051,19.474c0.094,5.309-0.481,11.182,2.713,15.786c5.25,7.459,10.982,14.811,18.605,20.015
		c16.89,12.333,37.68,17.501,58.188,19.545c30.985,4.005,62.51,3.676,93.554,0.376c26.733-3.782,53.514-8.21,79.307-16.362
		c12.016-3.688,24.196-6.848,36.059-11.041c6.084-1.691,12.145-3.535,17.865-6.296c0.564,5.38-0.223,10.853,0.775,16.186
		c2.701,7.306,8.41,13.261,14.776,17.595c12.039,7.752,26.91,7.447,40.687,7.13c12.286-0.012,24.208-3.653,36.506-3.712
		c6.531-1.186,13.049-2.408,19.733-2.443c12.955-2.314,25.981-4.146,38.89-6.766c5.344,5.027,12.638,8.058,16.55,14.529
		c12.333,20.003,25.312,39.712,34.803,61.313c8.668,21.119,17.301,42.32,23.538,64.308c4.076,11.1,5.039,22.975,8.304,34.297
		c3.136,14.823,5.485,29.811,8.539,44.657c0.716,2.337,1.128,6.531,4.51,6.084c11.405-4.264,19.651-13.719,29.869-19.933
		c0.435,4.874,0.423,9.808-0.305,14.67c-1.468,10.43-3.171,20.931-6.754,30.879c-1.797,5.086-2.76,10.477-5.109,15.375
		c-4.052,8.551-7.282,17.466-11.664,25.876c-3.876,8.668-9.361,16.479-13.895,24.807c-6.084,10.794-14.095,20.391-20.109,31.232
		c11.71-2.866,22.74-8.281,32.512-15.316c8.903-5.368,16.961-11.981,24.913-18.652c4.557-3.688,7.67-8.903,12.615-12.122
		c2.431,14.53-0.399,29.223-0.517,43.823c-0.141,5.532-1.997,10.841-2.208,16.373c-0.305,7.999-2.596,15.716-4.029,23.55
		c-1.574,8.539-5.286,16.444-8.069,24.619c-2.067,6.284-6.202,11.499-9.514,17.137c6.272,0.106,12.603-0.188,18.852,0.799
		c5.779,0.834,11.311,2.796,16.973,4.252c5.615,4.346,12.133,7.881,16.045,14.048c8.398,12.133,8.199,27.802,5.92,41.791
		c-5.133,24.924-13.39,49.167-23.738,72.401c-8.809,19.345-18.887,38.221-31.655,55.287c-9.314,12.11-19.827,24.02-33.71,30.938
		c-9.244,4.933-20.649,5.039-30.269,1.151c-9.373-3.618-18.77-8.046-26.111-15.046c-3.829-3.43-5.427-8.433-7.353-13.002
		c-2.067,2.091-4.099,4.205-5.931,6.519c-11.628,15.223-24.666,29.306-37.669,43.354c-9.291,8.715-17.748,18.3-27.368,26.663
		c-22.81,21.706-47.417,41.439-73.082,59.656c-15.246,11.335-31.619,21.013-47.758,30.985
		c-81.926,48.181-174.999,78.567-270.151,83.359c-7.811,1.186-15.728,0.2-23.527,1.257c-7.329,0.893-14.729,0.552-22.082,0.528
		c-15.951-1.515-31.995-1.48-47.981-2.267c-18.276-2.702-36.682-4.452-54.852-7.811c-48.216-8.41-95.633-21.729-140.948-40.229
		c-42.801-17.419-83.512-39.935-121.145-66.727c-7.188-5.755-15.211-10.465-21.706-17.043c8.739,3.395,17.09,7.834,26.216,10.231
		c21.471,6.484,44.528,10.63,66.739,5.509c4.228,6.742,9.538,13.073,16.855,16.573c13.472,7.071,29.47,7.435,44.164,4.781
		c5.086-0.775,9.42-3.724,14.259-5.262c3.395,2.267,5.133,6.307,8.128,9.091c7.623,7.623,17.712,12.262,27.849,15.528
		c12.815,2.984,26.087,1.785,39.102,1.198c6.824-0.317,13.378-2.361,19.956-4.029c12.521,11.569,30.269,16.397,47.03,14.388
		c7.435-1.245,14.271-4.628,21.178-7.47c5.544,4.734,10.336,10.395,16.655,14.189c7.13,4.499,14.8,8.152,22.693,11.112
		c13.179,3.712,26.851,5.72,40.523,6.084c7.67-0.763,15.41-1.045,23.022-2.29c20.555-5.027,41.004-12.368,58.094-25.159
		c12.263-8.657,24.173-18.206,33.158-30.374c1.668-2.901,5.109-1.738,7.811-1.644c7.13,0.81,14.154-1.116,21.248-1.539
		c17.865-1.269,35.272-7.458,50.201-17.301c9.432-6.437,17.924-14.67,23.233-24.866c1.316-2.055,2.185-5.462,5.286-4.968
		c17.63,1.139,35.918-6.46,46.724-20.578c3.395-4.816,6.719-10.172,6.93-16.232c0.294-8.551,0.752-17.501-2.937-25.453
		c4.992-1.75,7.952-6.237,11.311-9.996c17.454-18.147,32.923-38.373,44.716-60.678c-6.554-1.433-13.19-2.361-19.885-2.549
		c-7.905-0.2-15.622-2.114-23.515-2.314c-7.094-0.223-14.013-1.997-21.095-2.208c-7.224-0.211-14.306-1.727-21.448-2.572
		c0-9.009-0.059-18.03-0.035-27.039c0.165-8.234-3.066-15.951-5.403-23.691c-7.212-20.884-21.201-39.701-39.783-51.81
		c-19.11-13.214-41.18-21.953-63.908-26.533c-12.638-3.183-25.676-3.125-38.608-2.937c-12.474-0.611-24.854,2.126-36.553,6.249
		c-4.193,1.362-7.952,4.358-12.415,4.663c-3.207-2.737-5.661-6.366-9.455-8.351c-9.303-5.38-20.391-5.532-30.821-5.38
		c-10.912,0.212-21.824,3.054-30.903,9.244c-4.91-8.245-9.15-16.961-15.41-24.29c-4.898-5.673-10.371-10.841-16.303-15.387
		c-10.137-7.611-22.376-11.769-34.615-14.541c-7.846-1.421-15.857-0.435-23.773-0.716c-8.845,0.294-17.889-0.928-26.557,1.339
		c-8.257,2.114-16.726,3.594-24.572,7.047c-7.235,2.749-13.778,6.918-20.508,10.677c-7.365-6.284-15.645-11.863-25.23-14.001
		c-5.885-1.163-11.816-2.749-17.854-2.384c-9.843,1.222-19.827,2.819-28.812,7.247c-4.804,2.302-9.138,5.438-13.625,8.304
		c-17.384-12.955-38.502-19.956-59.68-23.574c-9.843-1.868-19.885-1.198-29.834-1.327c-20.731-0.822-41.744,5.92-58.094,18.688
		c-8.093,6.249-13.672,15.081-16.996,24.666c-7.505-1.292-15.128-2.878-22.74-1.527c-7.846,0.329-15.563,2.044-22.669,5.415
		c-5.732-4.181-12.85-5.38-19.286-8.057c-11.088-3.982-21.753-9.056-32.911-12.862c-0.728,9.878,0.928,19.709,2.02,29.505
		c2.079,16.679,5.896,33.123,10.924,49.144c2.091,5.802,3.019,12.216,6.93,17.196c-8.798,17.748-10.172,39.865-0.646,57.624
		c2.161,4.346,6.061,7.4,8.938,11.241c0.247,2.149-1.092,4.099-1.762,6.096c-3.806,7.741-3.301,16.703-2.267,25.03
		c0.987,5.38,3.348,10.383,4.569,15.728c-3.301,0.117-6.589,0.176-9.866,0.364c-57.272-78.449-96.679-169.807-114.943-265.194
		c-1.292-5.979-1.304-12.18-2.972-18.077c-2.619-0.317-4.146,2.361-6.096,3.653c-8.892,7.776-21.765,8.175-32.759,5.744
		c-13.143-3.418-23.468-13.672-29.423-25.582c-11.006-20.015-14.835-42.907-17.583-65.294c-2.514-32.9-2.126-66.164,3.582-98.711
		c2.96-15.833,6.014-32.665,16.691-45.374c3.054-3.089,6.66-5.626,10.583-7.482c4.487-2.067,9.549-1.727,14.365-1.762
		c12.497-0.634,23.902,5.826,34.086,12.357c5.943,3.524,8.985,9.949,13.214,15.152c3.606,4.428,6.26,9.702,10.783,13.343
		c0.176-8.927-0.599-17.924,0.728-26.792c0.646-4.839,1.116-9.702,1.421-14.565c0.364-9.397,3.265-18.441,4.616-27.708
		c2.643-17.325,7.611-34.145,11.534-51.188c1.562-7.458,4.839-14.412,6.307-21.894c1.222-4.628,1.832-9.902,5.556-13.32
		c3.559,13.073,9.197,25.5,12.18,38.749c1.022-0.223,2.044-0.423,3.077-0.622c5.027-19.052,13.143-37.152,17.654-56.344
		c2.384-7.517,4.088-15.211,5.943-22.857c3.312-8.798,4.299-18.194,6.801-27.227c1.809-10.184,5.356-19.944,6.883-30.186
		c1.785-11.076,5.109-21.918,5.685-33.17c3.97,3.923,5.391,9.702,9.537,13.484c2.067,2.314,5.098,3.289,8.104,2.384
		c-2.42-6.989-0.106-14.236-0.106-21.354c0.094-5.203,0.74-10.36,1.468-15.493c3.148-10.665,6.061-21.659,12.122-31.126
		C629.549,572.477,633.895,563.304,641.565,556.808 M825.115,733.745c-11.123,0.411-22.516-0.928-33.346,2.267
		c-20.285,4.51-40.241,13.801-53.983,29.799c-10.618,11.464-16.749,26.862-17.184,42.473c-1.198,14.377,16.244,25.065,28.93,19.709
		c17.407-11.393,22.939-33.898,40.182-45.491c11.699-8.809,27.027-9.22,41.051-8.727c16.679-0.669,33.405,1.95,50.013-0.305
		c6.672-1.903,8.727-10.501,5.791-16.221c-2.678-8.128-11.158-11.405-18.241-14.682C854.75,736.705,839.95,733.264,825.115,733.745
		 M1345.708,845.435c-16.197,1.727-32.312,6.119-46.49,14.306c-6.871,3.853-10.43,12.58-8.187,20.144
		c1.503,4.275,6.472,6.131,10.677,6.296c15.223,0.071,30.469,0.247,45.656-0.963c13.743,0.047,28.401,0.951,40.217,8.739
		c14.964,9.949,21.307,27.826,33.757,40.217c3.348,3.195,6.918,7.071,11.898,7.235c8.48,1.034,16.796-3.864,21.6-10.63
		c4.405-7.975,1.997-17.395,0.247-25.77c-5.297-20.708-21.448-36.999-40.006-46.689
		C1393.771,847.655,1369.446,842.816,1345.708,845.435 M797.501,877.184c-19.874,18.018-21.929,51.881-4.51,72.236
		c4.839,5.485,10.348,11.205,17.783,12.826c2.443,1.597,4.875,3.242,7.365,4.781c1.75,1.621,4.557,0.716,6.754,0.951
		c7.928-0.493,16.197,0.916,23.82-1.879c3.641-1.069,7.623-1.151,10.841-3.406c20.062-10.618,32.289-35.096,26.933-57.413
		c-2.631-15.222-12.85-28.542-26.134-36.153C840.608,857.803,813.675,861.104,797.501,877.184 M1106.072,866.225
		c-8.927,4.405-14.576,12.909-21.083,20.085c-7.341,9.573-14.741,19.157-21.036,29.482c-13.425,20.672-25.993,41.92-37.07,63.955
		c-9.549,19.122-18.746,38.514-25.829,58.717c-3.441,10.289-7.13,20.696-7.705,31.62c-0.822,4.71-1.069,9.537,0.364,14.177
		c0.763,5.403,5.109,9.115,9.091,12.392c8.774,6.836,19.075,11.957,30.034,14.095c8.422,0.411,16.937,0.716,25.336-0.27
		c9.079-2.232,18.382-5.38,25.465-11.722c3.348-3.218,6.942-7.118,6.836-12.074c0.435-5.192-2.079-10.959-7.188-12.862
		c-8.422-3.852-17.724-0.481-26.076,1.832c-9.62,2.349-19.709,6.413-29.634,3.23c-4.416-1.01-7.435-5.391-7.517-9.784
		c-0.658-8.163,1.891-16.092,3.923-23.879c6.578-21.26,15.81-41.615,25.653-61.536c16.197-32.7,33.863-64.731,54.089-95.117
		c3.136-5.086,7.764-9.209,10.23-14.706C1115.856,869.255,1110.794,863.441,1106.072,866.225 M1216.975,947.799
		c-15.598,12.955-22.376,35.26-16.855,54.735c2.925,9.667,8.057,18.852,15.704,25.594c2.49,2.056,4.886,4.969,8.304,5.333
		l0.505-0.904l-0.552-0.787c4.369,3.97,9.585,7.188,15.399,8.48c9.948,0.623,20.602,1.421,29.587-3.782
		c-2.232,1.727,1.668,2.173,2.737,1.316c19.427-8.081,33.863-28.437,32.559-49.814c0.952-16.573-8.046-32.771-21.107-42.555
		C1264.04,931.014,1234.958,931.672,1216.975,947.799 M672.715,1092.988c-3.441,0.094-6.871,0.622-10.125,1.738
		c-19.275,6.084-34.168,22.728-40.276,41.721c-2.044,9.373-2.455,19.122-0.317,28.53c2.173,4.957,9.972,7.059,13.566,2.502
		c8.21-11.887,5.708-28.518,15.739-39.454c7.271-8.609,18.593-11.393,28.19-16.444c2.678-1.515,5.744-2.795,7.588-5.379
		c1.574-4.158,0.74-9.949-3.582-12.122C680.067,1092.753,676.309,1092.929,672.715,1092.988 M1372.747,1243.544
		c-4.393,0.916-7.917,5.015-7.165,9.643c0.634,9.103,8.445,14.788,14.271,20.813c6.202,5.474,10.289,12.85,13.707,20.285
		c5.462,11.71,0.869,25.429,6.343,37.14c3.007,6.037,13.566,6.495,16.185-0.071c4.933-10.536,5.955-22.693,3.653-34.039
		c-2.079-9.737-5.861-19.099-10.888-27.673c-4.663-7.235-9.667-14.553-16.761-19.615
		C1386.654,1245.87,1379.888,1241.677,1372.747,1243.544z"/>
	<path fill="#C89D5E" stroke="#C89D5E" stroke-width="0.5" d="M792.92,595.91c14.741,1.773,29.2,5.438,44.035,6.636
		c9.197,1.879,18.57,1.727,27.908,1.868c12.18,1.351,24.537,1.75,36.729,0.235c7.823-0.869,15.786,0.376,23.527-1.386
		c6.401-1.433,13.061-1.139,19.416-2.889c2.655-0.775,5.427-0.799,8.14-0.235c-1.257,1.222-2.478,2.478-3.829,3.606
		c-4.405-2.431-9.432-1.421-14.036-0.27c-6.813,1.844-13.989,0.763-20.849,2.29c-7.658,1.68-15.528,1.186-23.292,1.222
		c-7.071-0.023-14.13,0.012-21.189,0.023c-9.444,0.27-18.617-2.514-28.049-2.502C825.209,602.099,808.648,600.737,792.92,595.91z"/>
	<path fill="#CA9E5F" stroke="#CA9E5F" stroke-width="0.5" d="M607.855,647.755c-0.047-12.016,0.211-24.384,4.311-35.813
		c-0.728,5.133-1.374,10.289-1.468,15.493c0,7.118-2.314,14.365,0.106,21.354c-3.007,0.904-6.037-0.07-8.104-2.384
		C604.402,646.886,606.116,647.309,607.855,647.755z"/>
	<path fill="#E1AD5D" stroke="#E1AD5D" stroke-width="0.5" d="M825.115,733.745c14.835-0.482,29.634,2.96,43.212,8.821
		c7.083,3.277,15.563,6.554,18.241,14.682c2.936,5.72,0.881,14.318-5.791,16.221c-16.608,2.255-33.334-0.364-50.013,0.305
		c-14.024-0.493-29.352-0.082-41.051,8.727c-17.243,11.593-22.775,34.098-40.182,45.491c-12.685,5.356-30.128-5.333-28.93-19.709
		c0.435-15.61,6.566-31.009,17.184-42.473c13.742-15.998,33.698-25.288,53.983-29.799
		C802.599,732.818,813.992,734.156,825.115,733.745z"/>
	<path fill="#E1AD5D" stroke="#E1AD5D" stroke-width="0.5" d="M1345.708,845.435c23.738-2.619,48.063,2.22,69.37,12.885
		c18.558,9.69,34.709,25.982,40.006,46.689c1.75,8.375,4.158,17.795-0.247,25.77c-4.804,6.765-13.12,11.663-21.6,10.63
		c-4.98-0.164-8.551-4.04-11.898-7.235c-12.451-12.392-18.793-30.269-33.757-40.217c-11.816-7.787-26.475-8.692-40.217-8.739
		c-15.187,1.21-30.433,1.034-45.656,0.963c-4.205-0.164-9.173-2.02-10.677-6.296c-2.244-7.564,1.316-16.291,8.187-20.144
		C1313.396,851.555,1329.511,847.162,1345.708,845.435z"/>
	<path fill="#FEFEFE" stroke="#FEFEFE" stroke-width="0.5" d="M797.501,877.184c16.174-16.08,43.107-19.38,62.851-8.058
		c13.284,7.611,23.503,20.931,26.134,36.153c5.356,22.317-6.871,46.795-26.933,57.413c-3.218,2.255-7.2,2.337-10.841,3.406
		c-7.623,2.795-15.892,1.386-23.82,1.879c-2.196-0.235-5.004,0.67-6.754-0.951c7.752,0.364,15.516,0.446,23.268,0.611
		c16.785-3.477,29.705-20.073,28.8-37.234c0.482-15.998-11.229-30.468-25.946-35.695c-5.18-3.876-12.051-2.443-18.065-2.349
		c-7.635,1.386-15.305,4.816-20.297,10.935c-7.024,7.177-11.945,16.879-11.205,27.133c-1.01,12.544,5.673,24.96,16.08,31.819
		c-7.435-1.621-12.944-7.341-17.783-12.826C775.572,929.065,777.627,895.202,797.501,877.184z"/>
	<path fill="#E1AD5D" stroke="#E1AD5D" stroke-width="0.5" d="M1106.072,866.225c4.722-2.784,9.784,3.03,7.881,7.635
		c-2.467,5.497-7.094,9.62-10.23,14.706c-20.226,30.386-37.892,62.417-54.089,95.117c-9.843,19.921-19.075,40.276-25.653,61.536
		c-2.032,7.787-4.581,15.716-3.923,23.879c0.082,4.393,3.101,8.774,7.517,9.784c9.925,3.183,20.015-0.881,29.634-3.23
		c8.351-2.314,17.654-5.685,26.076-1.832c5.109,1.903,7.623,7.67,7.188,12.862c0.106,4.957-3.488,8.856-6.836,12.074
		c-7.083,6.343-16.385,9.491-25.465,11.722c-8.398,0.987-16.914,0.681-25.336,0.27c-10.959-2.138-21.26-7.259-30.034-14.095
		c-3.982-3.277-8.328-6.989-9.091-12.392c-1.433-4.64-1.186-9.467-0.364-14.177c0.576-10.924,4.264-21.33,7.705-31.62
		c7.083-20.203,16.28-39.595,25.829-58.717c11.076-22.035,23.644-43.283,37.07-63.955c6.296-10.325,13.695-19.909,21.036-29.482
		C1091.496,879.134,1097.146,870.63,1106.072,866.225z"/>
	<path fill="#8F8F8F" stroke="#8F8F8F" stroke-width="0.5" d="M805.899,903.295c4.992-6.12,12.662-9.549,20.297-10.935
		c6.014-0.094,12.885-1.527,18.065,2.349c-5.215-0.294-10.407-1.926-15.633-0.963c-4.781,0.881-9.761,1.55-14.001,4.099
		C811.666,899.571,808.789,901.45,805.899,903.295z"/>
	<path stroke="#000000" stroke-width="0.5" d="M814.626,897.845c4.24-2.549,9.22-3.218,14.001-4.099
		c5.227-0.963,10.418,0.669,15.633,0.963c14.717,5.227,26.428,19.698,25.946,35.695c0.904,17.16-12.016,33.757-28.8,37.234
		c-7.752-0.164-15.516-0.247-23.268-0.611c-2.49-1.539-4.921-3.183-7.365-4.781c-10.407-6.859-17.09-19.275-16.08-31.819
		c-0.74-10.254,4.181-19.956,11.205-27.133C808.789,901.45,811.666,899.571,814.626,897.845z"/>
	<path fill="#FEFEFE" stroke="#FEFEFE" stroke-width="0.5" d="M1216.975,947.799c17.983-16.127,47.065-16.785,66.281-2.384
		c13.061,9.784,22.058,25.982,21.107,42.555c1.304,21.377-13.132,41.733-32.559,49.814c-1.069,0.857-4.968,0.411-2.737-1.316
		c8.198-5.239,14.776-13.226,17.172-22.763c2.22-10.442,1.198-22-4.968-30.973c-9.537-15.634-31.326-21.354-47.688-13.66
		c-9.925,4.452-17.619,13.425-20.625,23.867c-4.064,13.696,0.27,29.435,11.123,38.831l0.552,0.787l-0.505,0.904
		c-3.418-0.364-5.814-3.277-8.304-5.333c-7.646-6.742-12.779-15.927-15.704-25.594C1194.6,983.06,1201.377,960.755,1216.975,947.799
		z"/>
	<path stroke="#000000" stroke-width="0.5" d="M1233.584,969.071c16.362-7.693,38.15-1.973,47.688,13.66
		c6.167,8.974,7.188,20.531,4.968,30.973c-2.396,9.537-8.974,17.525-17.172,22.763c-8.985,5.203-19.639,4.405-29.587,3.782
		c-5.814-1.292-11.029-4.51-15.399-8.48c-10.853-9.397-15.187-25.136-11.123-38.831
		C1215.965,982.496,1223.659,973.522,1233.584,969.071z"/>
	<path fill="#E1AD5D" stroke="#E1AD5D" stroke-width="0.5" d="M672.715,1092.988c3.594-0.059,7.353-0.235,10.783,1.092
		c4.322,2.173,5.156,7.964,3.582,12.122c-1.844,2.584-4.91,3.864-7.588,5.379c-9.596,5.051-20.919,7.834-28.19,16.444
		c-10.031,10.935-7.529,27.567-15.739,39.454c-3.594,4.557-11.393,2.455-13.566-2.502c-2.138-9.408-1.727-19.157,0.317-28.53
		c6.108-18.993,21.001-35.637,40.276-41.721C665.843,1093.61,669.273,1093.082,672.715,1092.988z"/>
	<path fill="#94C5BE" stroke="#94C5BE" stroke-width="0.5" d="M701.01,1177.709c16.35-12.768,37.363-19.51,58.094-18.688
		c9.949,0.129,19.991-0.54,29.834,1.327c21.177,3.618,42.296,10.618,59.68,23.574c4.487-2.866,8.821-6.002,13.625-8.304
		c8.986-4.428,18.969-6.026,28.812-7.247c6.037-0.364,11.969,1.222,17.854,2.384c9.584,2.138,17.865,7.717,25.23,14.001
		c6.73-3.759,13.273-7.928,20.508-10.677c7.846-3.453,16.315-4.933,24.572-7.047c8.668-2.267,17.712-1.045,26.557-1.339
		c7.917,0.282,15.927-0.705,23.773,0.716c12.239,2.772,24.478,6.93,34.615,14.541c5.932,4.546,11.405,9.714,16.303,15.387
		c6.26,7.329,10.501,16.045,15.41,24.29c9.079-6.19,19.991-9.032,30.903-9.244c10.43-0.153,21.518,0,30.821,5.38
		c3.794,1.985,6.249,5.614,9.455,8.351c4.463-0.305,8.222-3.301,12.415-4.663c11.699-4.123,24.079-6.859,36.553-6.249
		c12.932-0.188,25.97-0.247,38.608,2.937c22.728,4.581,44.798,13.32,63.908,26.533c18.582,12.11,32.571,30.927,39.783,51.81
		c2.337,7.74,5.568,15.457,5.403,23.691c-0.023,9.009,0.035,18.03,0.035,27.039c-0.822,9.209-4.193,17.877-6.39,26.757
		c4.299,4.651,9.596,8.539,12.509,14.365c2.631,4.311,2.854,9.526,4.687,14.154c2.819,2.654,6.589,4.24,8.915,7.458
		c3.994,5.473,7.423,11.381,10.195,17.583c3.688,7.952,3.23,16.902,2.937,25.453c-0.212,6.061-3.536,11.417-6.93,16.232
		c-10.806,14.118-29.094,21.718-46.724,20.578c-3.101-0.493-3.97,2.913-5.286,4.968c-5.309,10.195-13.801,18.429-23.233,24.866
		c-14.929,9.843-32.336,16.033-50.201,17.301c-7.094,0.423-14.118,2.349-21.248,1.539c-2.702-0.094-6.143-1.257-7.811,1.644
		c-8.985,12.168-20.896,21.718-33.158,30.374c-17.09,12.791-37.539,20.132-58.094,25.159c-7.611,1.245-15.352,1.527-23.022,2.29
		c-13.672-0.364-27.344-2.373-40.523-6.084c-7.893-2.96-15.563-6.613-22.693-11.112c-6.319-3.794-11.111-9.455-16.655-14.189
		c-6.906,2.843-13.743,6.225-21.178,7.47c-16.761,2.009-34.509-2.819-47.03-14.388c-6.578,1.668-13.132,3.712-19.956,4.029
		c-13.014,0.587-26.287,1.785-39.102-1.198c-10.137-3.265-20.226-7.905-27.849-15.528c-2.995-2.784-4.734-6.824-8.128-9.091
		c-4.839,1.539-9.173,4.487-14.259,5.262c-14.694,2.655-30.692,2.29-44.164-4.781c-7.318-3.5-12.627-9.831-16.855-16.573
		c-22.211,5.121-45.268,0.975-66.739-5.509c-9.126-2.396-17.478-6.836-26.216-10.231c-7.576-4.44-14.576-9.725-21.929-14.494
		c10.736-0.951,21.542-0.963,32.301-1.727c0,0.693,0,2.067-0.012,2.749c24.114,13.167,51.998,19.944,79.471,17.29
		c0.987-3.207,1.597-6.754,3.9-9.314c2.69-2.008,7.118-1.41,8.88,1.609c4.217,6.084,5.826,13.883,11.382,19.063
		c5.485,4.839,12.779,6.871,19.792,8.328c10.113,2.009,20.508-0.728,29.681-4.992c5.509-2.537,10.195-6.519,15.645-9.126
		c2.114-1.339,4.24,0.787,5.156,2.584c-0.188,3.618-2.455,6.707-3.994,9.89c5.838,5.074,10.689,11.229,16.949,15.833
		c7.177,5.239,16.221,7.024,24.948,7.4c5.074,0.188,10.219,1.316,15.293,0.294c7.165-1.456,14.647-1.233,21.565-3.806
		c0.458-3.289-0.211-8.304,3.876-9.408c2.208-0.951,4.322,0.611,5.885,2.056c5.286,4.886,8.927,11.628,15.446,15.14
		c9.984,5.415,22.54,5.297,32.782,0.634c6.366-2.748,12.955-5.391,18.218-10.043c2.831-2.138,5.814-5.638,9.772-4.475
		c2.878,0.658,2.807,4.181,2.795,6.531c-0.023,3.911-2.96,6.859-4.24,10.383c4.452,4.416,10.442,6.801,15.833,9.866
		c13.977,7.106,29.235,12.133,44.963,13.073c10.348,0.176,20.884,0.623,31.02-1.868c21.083-4.863,40.875-14.764,57.671-28.378
		c5.838-4.98,12.662-9.091,17.078-15.492c-8.41-2.22-17.043-4.393-24.525-8.95c-2.666-1.468-3.9-4.781-2.314-7.482
		c0.998-3.077,4.616-3.606,7.388-3.195c6.859,0.822,13.578,2.572,20.496,3.042c7.083,0.517,13.977,2.666,21.13,2.467
		c11.734-0.223,23.597,0.787,35.19-1.656c12.92-1.809,25.347-7.823,34.309-17.384c11.288-11.112,18.347-25.5,27.497-38.244
		c1.339-2.384,4.205-2.267,6.566-2.608c0.705,4.534,0.54,9.15,0.047,13.731c7.153-0.493,14.083-2.572,20.919-4.651
		c6.589-2.079,12.415-6.883,14.835-13.461c5.215-13.895,1.21-30.797-9.796-40.769c-3.63,5.368-6.777,11.429-12.169,15.281
		c-3.007,2.255-8.21-0.763-7.012-4.639c2.02-8.457,8.703-15.598,8.48-24.631c-1.081-6.366-4.51-12.544-9.596-16.55
		c-1.656-1.292-3.242,0.493-4.475,1.433c-4.205,3.512-9.197,7.505-15.046,6.495c-3.089-2.243-0.752-6.331,1.562-8.175
		c8.492-7.705,13.578-18.488,16.15-29.517c1.539-9.913,2.008-20.015,1.081-30.01c-1.034-24.842-13.778-48.298-32.348-64.519
		c-14.764-12.815-32.183-23.562-51.646-27.109c-14.6-3.336-29.517-5.791-44.516-5.532c-8.245,0.035-16.738-0.799-24.654,2.044
		c-13.601,3.653-25.112,12.016-36.729,19.615c-5.098,3.113-9.725,7.306-15.539,9.021c-3.606,1.022-7.811-3.23-5.532-6.672
		c4.252-7.341,10.465-13.367,16.937-18.77c-6.319-6.719-16.092-8.433-24.924-8.257c-9.561,0.094-19.979,1.609-27.473,8.057
		c-3.442,2.913,0.07,7.787-1.48,11.44c-1.891,1.468-5.156,2.431-6.93,0.305c-3.359-4.405-5.062-9.772-7.846-14.506
		c-9.08-16.021-20.931-31.22-37.281-40.288c-10.771-6.131-23.022-9.091-35.237-10.536c-15.962-1.304-32.442-0.576-47.5,5.333
		c-17.677,6.472-32.254,19.051-44.974,32.594c-2.619,2.408-4.992,5.791-8.715,6.425c-4.405,0.634-7.505-4.992-5.38-8.633
		c4.041-8.152,10.007-15.176,16.115-21.847c-9.032-6.93-20.379-9.995-31.572-10.865c-8.68-1.186-17.818,1.069-24.795,6.401
		c-9.138,6.918-15.469,16.667-23.315,24.866c-2.337,2.713-7.47,4.581-10.054,1.351c-2.208-7.505,2.279-14.635,4.628-21.506
		c-10.16-4.405-20.426-8.633-30.926-12.133c-11.452-3.817-23.303-6.167-35.178-8.187c-10.771-1.151-21.8-0.716-32.195,2.514
		c-16.902,3.911-31.185,15.68-40.264,30.21c-2.843,4.393-4.593,9.361-7.282,13.848c-1.503,2.643-5.309,4.51-8.057,2.631
		c-1.691-2.185-2.49-4.863-3.465-7.376c-10.066-0.388-20.637-1.139-30.081,3.077c-9.126,3.747-18.335,10.806-19.909,21.166
		c-0.74,6.249-1.104,13.202,2.349,18.781c2.443,4.193,6.026,7.646,8.081,12.086c1.821,3.571-0.775,8.445-4.757,8.915
		c-3.03-0.223-5.885-1.468-8.903-1.703c-7.318,5.814-11.111,14.999-13.484,23.82c-1.68,7.811-3.23,16.785,1.21,24.008
		c5.109,8.046,14.236,12.568,19.11,20.813c1.045,1.915,1.116,4.37,0.235,6.39c-2.208,1.844-5.039,2.748-7.306,4.534
		c-1.832,6.531-2.208,13.472-1.809,20.238c0.446,7.682,3.829,14.764,7.858,21.201c-9.937,0.023-19.944,1.233-29.822-0.188l0.2-0.928
		c3.277-0.188,6.566-0.247,9.866-0.364c-1.222-5.344-3.582-10.348-4.569-15.728c-1.034-8.328-1.539-17.29,2.267-25.03
		c0.67-1.997,2.009-3.947,1.762-6.096c-2.878-3.841-6.777-6.895-8.938-11.241c-9.526-17.759-8.152-39.877,0.646-57.624
		c2.596-4.557,6.096-8.527,10.113-11.887c0.975-1.163,3.077-2.15,2.431-3.97c-0.987-4.076-3.277-7.787-3.629-12.016
		c-0.564-7.881-0.716-16.174,2.854-23.444c3.829-10.007,11.393-18.206,20.555-23.609c7.106-3.371,14.823-5.086,22.669-5.415
		c7.611-1.351,15.234,0.235,22.74,1.527C687.338,1192.791,692.917,1183.958,701.01,1177.709z"/>
	<path fill="#DBFCFB" stroke="#DBFCFB" stroke-width="0.5" d="M741.345,1175.748c10.395-3.23,21.424-3.665,32.195-2.514
		c11.875,2.02,23.726,4.369,35.178,8.187c10.501,3.5,20.766,7.729,30.926,12.133c-2.349,6.871-6.836,14.001-4.628,21.506
		c2.584,3.23,7.717,1.363,10.054-1.351c7.846-8.198,14.177-17.947,23.315-24.866c6.977-5.333,16.115-7.588,24.795-6.401
		c11.194,0.869,22.54,3.935,31.572,10.865c-6.108,6.672-12.075,13.696-16.115,21.847c-2.126,3.641,0.975,9.267,5.38,8.633
		c3.723-0.634,6.096-4.017,8.715-6.425c12.721-13.543,27.297-26.122,44.974-32.594c15.058-5.908,31.537-6.636,47.5-5.333
		c12.216,1.445,24.466,4.405,35.237,10.536c16.35,9.068,28.201,24.267,37.281,40.288c2.784,4.734,4.487,10.101,7.846,14.506
		c1.774,2.126,5.039,1.163,6.93-0.305c1.55-3.653-1.962-8.527,1.48-11.44c7.494-6.448,17.912-7.964,27.473-8.057
		c8.833-0.176,18.605,1.539,24.924,8.257c-6.472,5.403-12.685,11.429-16.937,18.77c-2.279,3.441,1.926,7.693,5.532,6.672
		c5.814-1.715,10.442-5.908,15.539-9.021c11.617-7.599,23.127-15.963,36.729-19.615c7.917-2.842,16.409-2.008,24.654-2.044
		c14.999-0.258,29.916,2.196,44.516,5.532c19.463,3.547,36.882,14.294,51.646,27.109c18.57,16.221,31.314,39.677,32.348,64.519
		c0.928,9.995,0.458,20.097-1.081,30.01c-2.572,11.029-7.658,21.812-16.15,29.517c-2.314,1.844-4.651,5.932-1.562,8.175
		c5.849,1.01,10.841-2.983,15.046-6.495c1.233-0.94,2.819-2.725,4.475-1.433c5.086,4.005,8.516,10.184,9.596,16.55
		c0.223,9.032-6.46,16.174-8.48,24.631c-1.198,3.876,4.005,6.895,7.012,4.639c5.391-3.852,8.539-9.913,12.169-15.281
		c11.006,9.972,15.011,26.874,9.796,40.769c-2.42,6.578-8.246,11.382-14.835,13.461c-6.836,2.079-13.766,4.158-20.919,4.651
		c0.493-4.581,0.658-9.197-0.047-13.731c-2.361,0.341-5.227,0.223-6.566,2.608c-9.15,12.744-16.209,27.133-27.497,38.244
		c-8.962,9.561-21.389,15.575-34.309,17.384c-11.593,2.443-23.456,1.433-35.19,1.656c-7.153,0.2-14.048-1.95-21.13-2.467
		c-6.918-0.47-13.637-2.22-20.496-3.042c-2.772-0.411-6.39,0.118-7.388,3.195c-1.586,2.701-0.353,6.014,2.314,7.482
		c7.482,4.557,16.115,6.73,24.525,8.95c-4.416,6.401-11.241,10.512-17.078,15.492c-16.796,13.613-36.588,23.515-57.671,28.378
		c-10.137,2.49-20.672,2.044-31.02,1.868c-15.728-0.94-30.985-5.967-44.963-13.073c-5.391-3.066-11.382-5.45-15.833-9.866
		c1.28-3.524,4.217-6.472,4.24-10.383c0.012-2.349,0.082-5.873-2.795-6.531c-3.958-1.163-6.942,2.337-9.772,4.475
		c-5.262,4.651-11.851,7.294-18.218,10.043c-10.242,4.663-22.798,4.78-32.782-0.634c-6.519-3.512-10.16-10.254-15.446-15.14
		c-1.562-1.445-3.676-3.007-5.885-2.056c-4.088,1.104-3.418,6.12-3.876,9.408c-6.918,2.572-14.4,2.349-21.565,3.806
		c-5.074,1.022-10.219-0.106-15.293-0.294c-8.727-0.376-17.771-2.161-24.948-7.4c-6.26-4.604-11.111-10.759-16.949-15.833
		c1.539-3.183,3.806-6.272,3.994-9.89c-0.916-1.797-3.042-3.923-5.156-2.584c-5.45,2.608-10.137,6.589-15.645,9.126
		c-9.173,4.264-19.568,7-29.681,4.992c-7.012-1.456-14.306-3.488-19.792-8.328c-5.556-5.18-7.165-12.979-11.382-19.063
		c-1.762-3.019-6.19-3.618-8.88-1.609c-2.302,2.56-2.913,6.108-3.9,9.314c-27.473,2.655-55.357-4.123-79.471-17.29
		c0.012-0.681,0.012-2.056,0.012-2.749c4.076-0.529,8.163-1.151,12.286-1.175c8.997-0.164,17.877-1.997,26.862-2.243
		c8.68-0.258,17.184-2.608,25.911-2.314c4.757,0.2,9.385-0.951,14.036-1.785c15.328-1.915,30.645-3.935,45.902-6.26
		c2.831,5.626,5.391,11.675,10.336,15.845c4.863,4.228,10.442,7.552,15.927,10.912c7.13,4.146,15.422,5.286,23.303,7.318
		c11.276,3.195,23.127,2.408,34.685,3.618c17.983,2.49,36.177,2.079,54.277,2.091c12.568,0.223,25.077-1.292,37.645-1.21
		c5.544,0.071,10.97-1.257,16.468-1.797c14.929-0.716,29.67-3.312,44.563-4.428c21.589-2.584,43.436-5.767,63.591-14.341
		c8.022-3.571,15.669-8.093,22.258-13.919c13.049-8.21,24.96-19.463,29.928-34.45c0.176,0.951,0.505,2.831,0.681,3.77
		c6.131-4.851,10.489-11.452,15.011-17.736c3.489-5.521,7.517-12.227,4.992-18.934c-1.092-3.853-5.109-5.403-8.269-7.141
		c3.735-7.658,9.585-14.224,12.462-22.27c2.537-7.118-7.047-14.412-12.885-9.361c-4.722,3.559-11.652,6.484-11.898,13.308
		c-0.764-2.725-1.774-5.368-2.972-7.905c4.252-4.933,6.155-11.264,9.279-16.879c2.373-4.393,3.665-9.819,1.609-14.577
		c-1.762-4.393-7.318-6.601-11.64-4.91c-3.594,2.596-6.413,6.072-9.831,8.891c0.247-5.062,1.985-10.841-1.315-15.281
		c-2.502-3.876-7.823-5.896-12.086-3.759c-5.814,2.748-9.972,7.846-14.107,12.591c-0.259-3.688,0.153-7.494-0.858-11.064
		c-2.138-5.25-9.173-5.838-13.496-3.066c-7.752,4.052-10.688,12.909-17.184,18.288c1.445-5.18,5.462-9.69,4.945-15.305
		c0.012-3.359-2.349-6.319-5.297-7.67c-5.579-1.774-12.016-0.258-16.244,3.782c-3.418,3.277-5.861,7.388-8.797,11.076
		c-0.634-5.203-0.023-10.83-2.373-15.645c-2.713-2.725-7.376-2.831-10.36-0.47c-4.734,3.418-7.999,8.398-11.992,12.591
		c-1.339-4.24-1.609-9.737-5.943-12.122c-4.886-2.913-11.288-0.963-15.035,2.925c-7,7.329-10.665,16.949-15.728,25.558
		c-1.515,2.232-1.762,4.922-1.55,7.553c-13.942-0.164-27.884-0.082-41.826-0.129c-22.293-1.151-44.657-1.163-66.962-0.552
		c9.678-1.832,19.592-0.576,29.376-0.916c14.4-0.329,28.836,0.81,43.212-0.164c3.559-10.031,10.571-18.77,12.098-29.505
		c1.128-6.672-7.036-13.096-13.085-9.444c-5.979,2.725-8.433,9.126-11.722,14.342c-2.878,4.358-5.52,9.208-10.207,11.898
		c1.445-6.39,5.015-12.345,4.839-19.016c-0.024-4.827-5.168-8.469-9.749-7.188c-7.071,1.774-11.064,8.457-16.221,13.049
		c-1.01-4.076-1.257-9.197-5.356-11.464c-4.334-3.218-9.831-0.611-13.672,2.091c-6.672,5.027-9.855,13.19-12.31,20.896
		c-0.681,2.455-2.267,4.475-4.017,6.284c0.117-6.437,1.668-12.744,1.844-19.157c0.235-3.911-2.055-7.975-5.802-9.314
		c-3.207-0.94-6.413,0.787-8.856,2.749c-4.792,3.77-6.824,9.761-9.056,15.211c-3.43-2.666-6.014-8.081-11.029-7.282
		c-7.658,1.785-11.652,9.314-15.363,15.54c-5.791,9.843-10.301,21.906-6.178,33.24c-5.791,6.014-11.417,12.885-12.732,21.412
		c-4.463-0.893-8.011-4.687-12.815-4.005c-10.677,0.341-21.26-1.245-31.866-2.149c-45.785-0.623-91.581-0.106-137.378-0.117
		c-12.486-0.505-24.854,1.668-37.328,1.186c-4.029-6.437-7.412-13.519-7.858-21.201c-0.399-6.766-0.024-13.707,1.809-20.238
		c2.267-1.785,5.098-2.69,7.306-4.534c0.881-2.02,0.81-4.475-0.235-6.39c-4.874-8.245-14.001-12.768-19.11-20.813
		c-4.44-7.224-2.889-16.197-1.21-24.008c2.373-8.821,6.166-18.006,13.484-23.82c3.019,0.235,5.873,1.48,8.903,1.703
		c3.982-0.47,6.578-5.344,4.757-8.915c-2.055-4.44-5.638-7.893-8.081-12.086c-3.453-5.579-3.089-12.533-2.349-18.781
		c1.574-10.36,10.783-17.419,19.909-21.166c9.444-4.217,20.015-3.465,30.081-3.077c0.975,2.514,1.774,5.192,3.465,7.376
		c2.748,1.879,6.554,0.012,8.057-2.631c2.69-4.487,4.44-9.455,7.282-13.848C710.16,1191.428,724.443,1179.659,741.345,1175.748
		 M769.37,1209.975c0.681,3.888,6.049,4.193,6.719,8.187c-3.817,1.327-8.022,0.305-11.816,1.562
		c-4.346,4.804,1.362,10.23,5.861,11.969c8.093,1.903,16.573-4.604,17.983-12.544c0.223-5.274-3.03-10.36-7.506-13.002
		C776.699,1204.278,770.157,1204.689,769.37,1209.975 M983.811,1223.224c-4.299,3.629-6.319,9.408-6.084,14.941
		c-0.023,2.384-0.035,5.544,2.631,6.625c2.009,0.223,5.039,1.01,6.155-1.28c2.314-3.63,3.359-8.046,6.354-11.229
		c6.213-5.109,15.845-6.284,22.563-1.433c8.598,4.322,14.236,13.531,13.273,23.256c4.734,1.327,10.313-1.433,10.912-6.566
		c1.292-7.623-4.005-13.977-8.598-19.369c-5.039-4.933-10.383-10.536-17.665-11.71
		C1003.215,1214.004,991.751,1216.353,983.811,1223.224 M724.302,1222.19c-7.188,0.916-12.732,7.306-13.848,14.283
		c-1.821,7.388,2.807,15.575,9.996,17.983c11.064,4.205,25.101-3.348,26.557-15.363c0-4.698-2.431-9.244-5.72-12.486
		C736.87,1222.273,730.21,1221.11,724.302,1222.19 M938.038,1233.713c-3.7,0.893-7.259,2.807-9.467,6.002
		c-4.052,5.321-7.376,12.92-3.629,19.298c4.181,8.985,16.608,11.581,24.748,6.495c7.071-3.324,9.796-11.252,11.135-18.394
		c0.893-4.851-2.795-9.256-7.024-11.088C948.927,1233.842,943.336,1232.256,938.038,1233.713 M871.111,1239.762
		c-6.143,1.926-9.667,9.972-5.673,15.41c2.549,4.546,8.563,4.769,13.073,3.629c4.346-1.257,6.448-5.955,7-10.078
		C884.701,1242.076,877.548,1237.154,871.111,1239.762 M798.335,1257.322c-10.606,1.997-20.778,7.459-27.367,16.15
		c-8.281,10.137-13.578,23.151-12.791,36.388c0.388,10.606,6.413,21.248,16.15,25.887c3.136,1.621,7.811,0.705,9.667-2.373
		c1.774-3.394-1.163-6.531-2.748-9.302c-4.499-6.707-6.66-14.659-7.623-22.599c-0.388-10.477,5.849-20.578,15.07-25.418
		c4.71-2.29,9.573-5.039,15.011-4.675c7.012,0.411,14.565-1.316,21.06,2.149c8.891,3.582,17.055,9.972,20.99,18.911
		c1.821,3.829,1.95,8.128,3.089,12.157c1.797,3.606,8.14,2.455,8.046-1.856c0.799-9.643-3.03-19.24-8.563-26.992
		C836.72,1261.104,816.623,1253.916,798.335,1257.322 M1194.153,1258.649c-3.653,0.916-7.447,2.314-10.078,5.098
		c-4.64,6.542-4.252,16.632,1.727,22.234c5.192,4.076,13.014,5.074,18.899,1.926c8.657-4.311,10.829-18.77,2.314-24.314
		C1203.268,1260.975,1198.887,1258.167,1194.153,1258.649 M669.766,1268.645c-6.343,4.745-12.215,11.076-13.789,19.11
		c-2.901,11.358,1.903,23.668,10.195,31.584c2.655,2.173,6.096,5.015,9.761,3.618c3.43-0.846,3.324-5.203,2.69-7.928
		c-1.914-4.111-5.145-7.447-7.224-11.452c-4.334-7.4-2.49-17.853,4.346-23.104c3.113-2.396,6.366-4.687,9.984-6.237
		c4.698-0.94,9.62-0.717,14.377-0.235c6.026,2.138,11.781,6.625,13.672,12.979c2.008,5.802-0.622,11.804,0,17.748
		c5.99,1.351,8.504-5.051,9.678-9.679c2.713-7.059-0.082-14.8-3.947-20.825c-6.002-7.529-14.847-14.224-24.971-13.566
		C685.553,1259.859,677.143,1263.982,669.766,1268.645 M976.94,1275.07c-6.049,7.118-3.794,19.404,4.334,23.961
		c4.252,2.42,9.361,1.433,14.001,1.045c2.889,4.816,6.202,9.69,11.241,12.497c10.289,5.885,23.256,7.106,34.403,3.019
		c12.885-4.945,16.468-23.35,8.081-33.71c-1.445-2.467-4.546-1.386-6.824-1.386c-0.106,6.061,2.49,12.826-1.668,18.171
		c-3.089,5.849-10.43,5.156-15.963,4.393c-7.318-0.67-12.944-5.932-17.947-10.806c-0.059-3.853,0.693-8.48-2.525-11.335
		c-4.287-1.785-6.108,3.312-8.915,5.391c-2.243,2.079-5.415,2.138-8.105,1.022c-0.399-3.688,1.257-7.024,2.044-10.512
		c0.118-1.809,0.611-4.487-1.48-5.333C983.776,1269.42,979.395,1272.086,976.94,1275.07 M1268.057,1281.988
		c-4.651,3.512-9.009,8.61-9.173,14.717c-0.129,3.723,4.252,7.188,7.646,4.91c5.497-3.911,9.291-10.477,16.244-12.169
		c10.924-2.067,22.564,5.614,25.324,16.315c0.904,5.239,0.705,11.358-3.242,15.399c-3.571,4.181-9.455,4.417-14.412,5.697
		c0.141,1.633-0.493,3.747,1.034,4.957c5.074,4.698,13.378,4.675,18.864,0.67c6.19-3.512,9.314-10.348,10.959-16.984
		c1.421-7.294,0.916-15.469-3.629-21.635c-5.732-7.999-13.625-15.07-23.409-17.407
		C1285.241,1274.976,1275.657,1276.878,1268.057,1281.988 M918.94,1280.649c0.141,3.582,1.856,6.812,2.455,10.313
		c-0.599,3.571-4.041,6.084-7.447,6.719c-3.524,0.857-7.717,1.151-10.066,4.322c-1.738,2.584-0.294,6.237,2.607,7.212
		c8.986,3.547,19.85-1.339,24.455-9.537c2.349-6.037,2.044-14.212-3.618-18.347C924.954,1279.239,921.653,1279.533,918.94,1280.649
		 M1107.223,1284.231c-5.791,0.775-12.239,3.406-14.377,9.303c-1.175,3.712,0.869,10.031,5.673,9.173
		c4.628-0.2,5.955-6.672,10.653-6.859c2.455-0.153,6.014-0.752,7.188,2.126c1.633,2.643-0.118,5.849,0.693,8.668
		c3.101,4.44,10.277,0.716,10.548-4.005c1.186-6.225-1.621-12.709-6.542-16.538
		C1117.008,1283.432,1111.828,1283.28,1107.223,1284.231 M1179.33,1302.801c-0.963,5.027,0.435,10.313,3.395,14.447
		c5.039,7.693,13.214,12.932,21.964,15.434c4.804,1.116,9.784,0.576,14.67,0.67c1.938,3.207,4.381,6.108,6.096,9.479
		c-0.975,3.747-3.606,6.836-4.557,10.618c-1.985,7.047,0.423,14.811,5.427,20.038c4.804,5.615,13.261,9.42,20.25,5.474
		c0.211-2.431,0.963-5.274-0.834-7.282c-3.312-3.453-8.833-4.252-11.264-8.645c-2.678-4.381-1.01-10.113,2.514-13.484
		c3.089-3.582,8.316-3.852,12.603-2.713c2.572,1.163,4.452,4.005,7.494,4.005c4.146,0.435,6.002-5.485,3.806-8.41
		c-4.71-6.143-13.19-9.514-20.766-7.576c-3.747,0.94-8.363-2.314-8.61-6.143c1.069-3.254,4.346-5.356,5.309-8.715
		c1.269-4.346,1.445-9.502-1.222-13.343c-1.362-2.337-5.509-1.269-5.932,1.304c-0.975,3.136-1.609,6.636-4.252,8.891
		c-4.205,4.792-11.499,4.205-17.102,2.843c-7.282-3.042-13.002-9.033-17.066-15.669c-1.644-2.866-4.464-5.708-8.046-5.215
		C1181.527,1299.595,1179.718,1300.863,1179.33,1302.801 M1029.667,1319.468c-2.29,1.738-3.641,4.369-5.309,6.672
		c-6.472,9.103-13.026,18.394-16.773,29.024c-0.352,1.222-1.809,4.005,0.599,4.088c7.776,0.611,15.645,0.247,23.444,0.2
		c3.148,0.211,3.406-3.5,4.346-5.638c2.232-7.365,5.908-14.248,7.576-21.765C1045.077,1324.484,1037.489,1315.745,1029.667,1319.468
		 M806.592,1338.485c-3.03,2.925-2.701,7.376-2.467,11.241c0.188,3.488,2.009,6.871,4.757,9.044c2.42,1.903,7,1.692,8.246-1.503
		c0.857-3.782-0.282-7.67,0.176-11.476c1.222-3.406,5.532-2.208,8.128-1.363c1.398,3.195,1.398,9.984,6.366,8.88
		c3.994-1.14,3.324-6.237,3.43-9.444c0.364-6.636-6.155-11.053-11.981-12.286C816.87,1329.969,810.75,1334.009,806.592,1338.485
		 M1317.448,1339.683c-8.151,2.972-12.204,14.13-6.953,21.342c3.265,5.544,10.782,6.46,16.374,4.334
		c6.953-3.359,11.088-12.756,7.247-19.815C1330.356,1340.493,1323.556,1337.979,1317.448,1339.683 M697.275,1344.357
		c-6.284,1.879-9.35,10.007-5.955,15.634c0.928,2.702,3.582,4.581,6.495,3.653c5.356-1.362,3.395-8.645,7.47-11.405
		c1.856-1.292,2.161-3.524,1.715-5.579C704.851,1343.57,700.552,1343.899,697.275,1344.357 M752.256,1348.774
		c-4.804,3.23-9.256,9.573-6.495,15.481c1.48,3.829,6.366,2.008,9.385,1.574c1.21-2.643,2.42-5.356,4.452-7.458
		c3.359-1.022,5.262,4.135,8.68,3.007c3.406-0.529,3.195-5.368,2.478-7.928C768.301,1345.978,758.094,1344.498,752.256,1348.774
		 M657.363,1359.686c-6.26,1.903-10.571,8.187-9.949,14.741c-0.482,5.062,3.982,8.621,7.917,10.888
		c4.628,1.468,10.113,1.01,14.036-2.02c7.447-5.262,7.141-18.194-0.634-22.998C665.186,1358.769,661.063,1358.887,657.363,1359.686
		 M721.976,1365.441c-6.437,1.926-10.183,10.078-6.049,15.775c4.041,6.296,14.588,4.405,17.219-2.243
		C736.87,1372.218,728.777,1364.078,721.976,1365.441 M835.851,1368.894c-1.175,0.81-2.337,1.868-2.702,3.324
		c-0.258,2.925,3.571,5.615,1.586,8.422c-4.933,2.784-10.877,0.176-16.08,1.691c-3.535,1.233-5.615,6.249-2.443,8.974
		c3.465,4.487,9.479,4.264,14.565,3.958c4.252-0.059,8.151-2.185,11.429-4.734c4.863-4.017,6.12-11.898,2.326-17.02
		C842.299,1371.067,839.21,1369.082,835.851,1368.894 M1283.385,1374.885c-6.918,2.514-8.422,13.59-2.502,18.053
		c5.391,5.262,15.868,1.503,17.078-5.814c0.153-3.371-1.104-6.73-2.995-9.467C1292.3,1374.203,1287.308,1373.933,1283.385,1374.885
		 M1238.693,1413.364c-5.438,1.515-11.041,3.324-15.41,7.059c-11.746,9.796-14.342,28.836-5.168,41.169
		c4.722,6.848,12.814,11.428,21.213,11.335c3.817-0.024,4.992-4.593,3.054-7.353c-3.03-4.393-7.975-6.942-11.37-11.018
		c-3.5-3.676-6.354-9.056-4.311-14.142c4.557-13.085,22.834-19.38,34.215-11.076c3.747,2.255,4.992,6.742,7.776,9.901
		c2.114,2.479,6.284,0.399,6.319-2.643c0.646-6.789-2.937-13.719-8.598-17.454
		C1258.379,1413.786,1248.219,1411.144,1238.693,1413.364 M1276.373,1454.802c-3.982,0.775-7.717,2.96-10.078,6.284
		c-3.958,5.814-3.571,13.672-0.482,19.768c3.371,4.992,10.336,7.212,16.021,5.168c6.895-1.809,14.154-7.447,13.837-15.234
		c-0.505-4.734-3.23-8.939-5.99-12.662C1286.157,1454.978,1280.931,1453.968,1276.373,1454.802 M1192.955,1483.051
		c-2.854,0.904-6.249,3.124-6.014,6.531c-0.658,3.453,2.537,6.167,5.732,6.519c2.936,0.388,5.309,2.302,8.105,3.148
		c6.014-0.118,7.717-8.821,4.264-12.85C1202.528,1482.229,1197.149,1482.358,1192.955,1483.051 M1138.902,1512.227
		c-1.069,1.128-1.598,2.96-0.54,4.323c2.537,3.406,6.754,5.955,7.282,10.548c1.456,6.648-2.96,13.731-9.49,15.434
		c-6.73,1.01-13.872-1.304-18.57-6.249c-3.43-3.101-6.695-8.069-11.981-7.247c-5.015-0.388-4.968,5.873-4.041,9.291
		c6.813,14.905,26.111,22.657,41.345,16.573c13.425-5.955,18.805-24.267,11.652-36.811
		C1151.141,1513.496,1144.551,1509.561,1138.902,1512.227 M1019.131,1520.531c-3.723,1.292-7.247,3.665-9.303,7.094
		c-2.819,5.38-2.314,13.343,3.442,16.62c5.426,1.245,11.687,0.811,16.045-3.007c3.876-2.525,4.064-7.67,3.465-11.769
		C1031.933,1523.244,1025.438,1517.912,1019.131,1520.531 M1077.859,1524.008c-2.831,1.104-6.178,3.289-6.19,6.683
		c-0.587,3.712,2.854,6.413,5.955,7.635c3.841-0.071,7.153-3.019,7.964-6.73C1087.091,1527.168,1081.935,1523.021,1077.859,1524.008
		z"/>
	<path fill="#FEFEFE" stroke="#FEFEFE" stroke-width="0.5" d="M586.407,1185.344c11.158,3.806,21.823,8.88,32.911,12.862
		c6.437,2.678,13.555,3.876,19.286,8.057c-9.162,5.403-16.726,13.602-20.555,23.609c-3.571,7.271-3.418,15.563-2.854,23.444
		c0.352,4.228,2.643,7.94,3.629,12.016c0.646,1.82-1.456,2.807-2.431,3.97c-4.017,3.359-7.517,7.329-10.113,11.887
		c-3.911-4.98-4.839-11.393-6.93-17.196c-5.027-16.021-8.844-32.465-10.924-49.144
		C587.335,1205.053,585.679,1195.222,586.407,1185.344z"/>
	<path fill="#94C5BF" stroke="#94C5BF" stroke-width="0.5" d="M769.37,1209.975c0.787-5.286,7.329-5.697,11.241-3.829
		c4.475,2.643,7.729,7.729,7.506,13.002c-1.409,7.94-9.89,14.447-17.983,12.544c-4.499-1.738-10.207-7.165-5.861-11.969
		c3.794-1.257,7.999-0.235,11.816-1.562C775.419,1214.168,770.051,1213.863,769.37,1209.975z"/>
	<path fill="#94C5BF" stroke="#94C5BF" stroke-width="0.5" d="M983.811,1223.224c7.94-6.871,19.404-9.22,29.54-6.766
		c7.282,1.175,12.627,6.777,17.665,11.71c4.593,5.391,9.89,11.746,8.598,19.369c-0.599,5.133-6.178,7.893-10.912,6.566
		c0.963-9.725-4.675-18.934-13.273-23.256c-6.719-4.851-16.35-3.677-22.563,1.433c-2.995,3.183-4.041,7.599-6.354,11.229
		c-1.116,2.29-4.146,1.503-6.155,1.28c-2.666-1.081-2.655-4.24-2.631-6.625C977.492,1232.632,979.512,1226.853,983.811,1223.224z"/>
	<path fill="#FDFEFE" stroke="#FDFEFE" stroke-width="0.5" d="M724.302,1222.19c5.908-1.081,12.568,0.082,16.984,4.416
		c3.289,3.242,5.72,7.787,5.72,12.486c-1.456,12.016-15.493,19.568-26.557,15.363c-7.188-2.408-11.816-10.595-9.996-17.983
		C711.569,1229.496,717.113,1223.106,724.302,1222.19 M720.578,1239.327c0.681,2.725,2.549,5.873,5.72,5.955
		c4.628,0.188,9.115-2.267,11.945-5.873c-1.703-3.453-4.369-6.953-8.574-7.141C725.183,1231.317,721.53,1235.334,720.578,1239.327z"
		/>
	<path fill="#DBFBFA" stroke="#DBFBFA" stroke-width="0.5" d="M720.578,1239.327c0.951-3.994,4.604-8.01,9.091-7.059
		c4.205,0.188,6.871,3.688,8.574,7.141c-2.831,3.606-7.318,6.061-11.945,5.873C723.127,1245.2,721.26,1242.052,720.578,1239.327z"/>
	<path fill="#FEFEFE" stroke="#FEFEFE" stroke-width="0.5" d="M938.038,1233.713c5.297-1.456,10.888,0.129,15.763,2.314
		c4.228,1.832,7.917,6.237,7.024,11.088c-1.339,7.141-4.064,15.07-11.135,18.394c-8.14,5.086-20.567,2.49-24.748-6.495
		c-3.747-6.378-0.423-13.977,3.629-19.298C930.779,1236.52,934.338,1234.606,938.038,1233.713 M936.253,1246.14
		c-2.29,2.608-3.195,6.883-1.304,9.96c2.349,3.113,6.989,2.525,10.207,1.257c3.676-1.445,5.015-5.427,6.625-8.68
		c-1.045-1.609-1.527-4.205-3.735-4.522C944.123,1243.521,939.459,1243.415,936.253,1246.14z"/>
	<path fill="#FEFEFE" stroke="#FEFEFE" stroke-width="0.5" d="M871.111,1239.762c6.437-2.608,13.59,2.314,14.4,8.962
		c-0.552,4.123-2.655,8.821-7,10.078c-4.51,1.14-10.524,0.916-13.073-3.629C861.445,1249.734,864.968,1241.688,871.111,1239.762z"/>
	<path fill="#E1AD5D" stroke="#E1AD5D" stroke-width="0.5" d="M1372.747,1243.544c7.141-1.868,13.907,2.326,19.345,6.484
		c7.094,5.062,12.098,12.38,16.761,19.615c5.027,8.574,8.809,17.936,10.888,27.673c2.302,11.346,1.28,23.503-3.653,34.039
		c-2.619,6.566-13.179,6.108-16.185,0.071c-5.474-11.711-0.881-25.429-6.343-37.14c-3.418-7.435-7.505-14.811-13.707-20.285
		c-5.826-6.026-13.637-11.71-14.271-20.813C1364.83,1248.559,1368.354,1244.46,1372.747,1243.544z"/>
	<path fill="#DBFBFB" stroke="#DBFBFB" stroke-width="0.5" d="M936.253,1246.14c3.207-2.725,7.87-2.619,11.793-1.985
		c2.208,0.317,2.69,2.913,3.735,4.522c-1.609,3.254-2.948,7.235-6.625,8.68c-3.218,1.269-7.858,1.856-10.207-1.257
		C933.058,1253.023,933.963,1248.747,936.253,1246.14z"/>
	<path fill="#94C5BF" stroke="#94C5BF" stroke-width="0.5" d="M798.335,1257.322c18.288-3.406,38.385,3.782,49.99,18.429
		c5.532,7.752,9.361,17.348,8.563,26.992c0.094,4.311-6.249,5.462-8.046,1.856c-1.139-4.029-1.269-8.328-3.089-12.157
		c-3.935-8.938-12.098-15.328-20.99-18.911c-6.495-3.465-14.048-1.738-21.06-2.149c-5.438-0.364-10.301,2.384-15.011,4.675
		c-9.22,4.839-15.457,14.941-15.07,25.418c0.963,7.94,3.124,15.892,7.623,22.599c1.586,2.772,4.522,5.908,2.748,9.302
		c-1.856,3.077-6.531,3.994-9.667,2.373c-9.737-4.64-15.763-15.281-16.15-25.887c-0.787-13.237,4.51-26.252,12.791-36.388
		C777.557,1264.78,787.729,1259.319,798.335,1257.322z"/>
	<path fill="#FDFEFE" stroke="#FDFEFE" stroke-width="0.5" d="M1194.153,1258.649c4.734-0.481,9.115,2.326,12.861,4.945
		c8.516,5.544,6.343,20.003-2.314,24.314c-5.885,3.148-13.707,2.149-18.899-1.926c-5.979-5.603-6.366-15.692-1.727-22.234
		C1186.707,1260.963,1190.5,1259.565,1194.153,1258.649 M1194.177,1269.103c-2.96,1.069-3.16,4.745-2.408,7.341
		c2.079,4.839,10.595,3.312,11.123-1.868C1201.624,1271.264,1197.806,1268.386,1194.177,1269.103z"/>
	<path fill="#94C5BF" stroke="#94C5BF" stroke-width="0.5" d="M669.766,1268.645c7.376-4.663,15.786-8.786,24.772-7.987
		c10.125-0.658,18.969,6.037,24.971,13.566c3.864,6.026,6.66,13.766,3.947,20.825c-1.175,4.628-3.688,11.029-9.678,9.679
		c-0.622-5.943,2.008-11.945,0-17.748c-1.891-6.354-7.646-10.841-13.672-12.979c-4.757-0.482-9.678-0.705-14.377,0.235
		c-3.618,1.55-6.871,3.841-9.984,6.237c-6.836,5.25-8.68,15.704-4.346,23.104c2.079,4.005,5.309,7.341,7.224,11.452
		c0.634,2.725,0.74,7.083-2.69,7.928c-3.665,1.398-7.106-1.445-9.761-3.618c-8.292-7.917-13.096-20.226-10.195-31.584
		C657.551,1279.721,663.424,1273.39,669.766,1268.645z"/>
	<path fill="#DBFBFA" stroke="#DBFBFA" stroke-width="0.5" d="M1194.177,1269.103c3.629-0.716,7.447,2.161,8.715,5.474
		c-0.529,5.18-9.044,6.707-11.123,1.868C1191.017,1273.848,1191.217,1270.172,1194.177,1269.103z"/>
	<path fill="#94C5BE" stroke="#94C5BE" stroke-width="0.5" d="M976.94,1275.07c2.455-2.983,6.836-5.65,10.677-3.583
		c2.091,0.846,1.597,3.524,1.48,5.333c-0.787,3.488-2.443,6.824-2.044,10.512c2.69,1.116,5.861,1.057,8.105-1.022
		c2.807-2.079,4.628-7.177,8.915-5.391c3.218,2.854,2.467,7.482,2.525,11.335c5.004,4.874,10.63,10.136,17.947,10.806
		c5.532,0.763,12.873,1.456,15.963-4.393c4.158-5.344,1.562-12.11,1.668-18.171c2.279,0,5.38-1.081,6.824,1.386
		c8.386,10.36,4.804,28.765-8.081,33.71c-11.147,4.087-24.114,2.866-34.403-3.019c-5.039-2.807-8.351-7.682-11.241-12.497
		c-4.64,0.388-9.749,1.374-14.001-1.045C973.146,1294.473,970.891,1282.187,976.94,1275.07z"/>
	<path fill="#94C5BF" stroke="#94C5BF" stroke-width="0.5" d="M1268.057,1281.988c7.599-5.109,17.184-7.012,26.205-5.532
		c9.784,2.337,17.677,9.408,23.409,17.407c4.546,6.167,5.051,14.342,3.629,21.635c-1.644,6.636-4.769,13.472-10.959,16.984
		c-5.485,4.005-13.789,4.029-18.864-0.67c-1.527-1.21-0.893-3.324-1.034-4.957c4.957-1.28,10.841-1.515,14.412-5.697
		c3.947-4.041,4.146-10.16,3.242-15.399c-2.76-10.7-14.4-18.382-25.324-16.315c-6.953,1.691-10.747,8.257-16.244,12.169
		c-3.395,2.279-7.776-1.186-7.646-4.91C1259.048,1290.597,1263.406,1285.5,1268.057,1281.988z"/>
	<path fill="#94C5BF" stroke="#94C5BF" stroke-width="0.5" d="M918.94,1280.649c2.713-1.116,6.014-1.41,8.386,0.681
		c5.661,4.135,5.967,12.31,3.618,18.347c-4.604,8.198-15.469,13.085-24.455,9.537c-2.901-0.975-4.346-4.628-2.607-7.212
		c2.349-3.171,6.542-3.465,10.066-4.322c3.406-0.634,6.848-3.148,7.447-6.719C920.796,1287.461,919.081,1284.231,918.94,1280.649z"
		/>
	<path fill="#94C5BF" stroke="#94C5BF" stroke-width="0.5" d="M1107.223,1284.231c4.604-0.951,9.784-0.799,13.836,1.867
		c4.922,3.829,7.729,10.313,6.542,16.538c-0.27,4.722-7.447,8.445-10.548,4.005c-0.811-2.819,0.94-6.026-0.693-8.668
		c-1.175-2.878-4.734-2.279-7.188-2.126c-4.698,0.188-6.026,6.66-10.653,6.859c-4.804,0.857-6.848-5.462-5.673-9.173
		C1094.984,1287.637,1101.433,1285.006,1107.223,1284.231z"/>
	<path fill="#94C5BF" stroke="#94C5BF" stroke-width="0.5" d="M1179.33,1302.801c0.388-1.938,2.197-3.207,3.876-3.994
		c3.582-0.493,6.401,2.349,8.046,5.215c4.064,6.636,9.784,12.627,17.066,15.669c5.603,1.362,12.897,1.95,17.102-2.843
		c2.643-2.255,3.277-5.755,4.252-8.891c0.423-2.572,4.569-3.641,5.932-1.304c2.666,3.841,2.49,8.997,1.222,13.343
		c-0.963,3.359-4.24,5.462-5.309,8.715c0.247,3.829,4.863,7.083,8.61,6.143c7.576-1.938,16.056,1.433,20.766,7.576
		c2.196,2.925,0.341,8.845-3.806,8.41c-3.042,0-4.921-2.842-7.494-4.005c-4.287-1.139-9.514-0.869-12.603,2.713
		c-3.524,3.371-5.192,9.103-2.514,13.484c2.432,4.393,7.952,5.192,11.264,8.645c1.797,2.009,1.045,4.851,0.834,7.282
		c-6.989,3.947-15.446,0.141-20.25-5.474c-5.004-5.227-7.412-12.991-5.427-20.038c0.951-3.782,3.582-6.871,4.557-10.618
		c-1.715-3.371-4.158-6.272-6.096-9.479c-4.886-0.094-9.866,0.446-14.67-0.67c-8.75-2.502-16.926-7.74-21.964-15.434
		C1179.765,1313.114,1178.367,1307.828,1179.33,1302.801z"/>
	<path fill="#FEFEFE" stroke="#FEFEFE" stroke-width="0.5" d="M999.844,1320.185c6.049-3.653,14.212,2.772,13.085,9.444
		c-1.527,10.736-8.539,19.474-12.098,29.505c-14.377,0.975-28.812-0.164-43.212,0.164c-9.784,0.341-19.698-0.916-29.376,0.916
		c-4.687,0.975-9.42,1.586-14.189,1.715c-4.71,0.141-8.962,2.373-13.508,3.312c-12.439,2.408-24.02,8.551-33.557,16.82
		c-4.123-11.335,0.388-23.397,6.178-33.24c3.712-6.225,7.705-13.754,15.363-15.54c5.015-0.799,7.599,4.616,11.029,7.282
		c2.232-5.45,4.264-11.44,9.056-15.211c2.443-1.962,5.65-3.688,8.856-2.749c3.747,1.339,6.037,5.403,5.802,9.314
		c-0.176,6.413-1.727,12.721-1.844,19.157c1.75-1.809,3.336-3.829,4.017-6.284c2.455-7.705,5.638-15.869,12.31-20.896
		c3.841-2.702,9.338-5.309,13.672-2.091c4.099,2.267,4.346,7.388,5.356,11.464c5.156-4.593,9.15-11.276,16.221-13.049
		c4.581-1.28,9.725,2.361,9.749,7.188c0.176,6.672-3.395,12.627-4.839,19.016c4.687-2.69,7.329-7.541,10.207-11.898
		C991.411,1329.311,993.866,1322.91,999.844,1320.185z"/>
	<path fill="#FEFEFF" stroke="#FEFEFF" stroke-width="0.5" d="M1029.667,1319.468c7.823-3.723,15.41,5.015,13.883,12.58
		c-1.668,7.517-5.344,14.4-7.576,21.765c-0.94,2.138-1.198,5.849-4.346,5.638c-7.799,0.047-15.669,0.411-23.444-0.2
		c-2.408-0.082-0.951-2.866-0.599-4.088c3.747-10.63,10.301-19.921,16.773-29.024
		C1026.025,1323.838,1027.376,1321.207,1029.667,1319.468z"/>
	<path fill="#FEFEFE" stroke="#FEFEFE" stroke-width="0.5" d="M1087.279,1324.39c2.983-2.361,7.646-2.255,10.36,0.47
		c2.349,4.816,1.738,10.442,2.373,15.645c2.936-3.688,5.38-7.799,8.797-11.076c4.229-4.04,10.665-5.556,16.244-3.782
		c2.948,1.351,5.309,4.311,5.297,7.67c0.517,5.615-3.5,10.125-4.945,15.305c6.495-5.38,9.432-14.236,17.184-18.288
		c4.323-2.772,11.358-2.185,13.496,3.066c1.01,3.571,0.599,7.376,0.858,11.064c4.134-4.745,8.292-9.843,14.107-12.591
		c4.264-2.138,9.584-0.118,12.086,3.759c3.301,4.44,1.562,10.219,1.315,15.281c3.418-2.819,6.237-6.296,9.831-8.891
		c4.323-1.692,9.878,0.517,11.64,4.91c2.056,4.757,0.764,10.184-1.609,14.577c-3.124,5.614-5.027,11.945-9.279,16.879
		c-5.333-7.67-15.011-8.774-22.528-13.237c-6.871-3.371-14.706-3.853-22.211-4.252c-37.751-0.012-75.513,0.012-113.264,0
		c-0.211-2.631,0.035-5.321,1.55-7.553c5.063-8.609,8.727-18.229,15.728-25.558c3.747-3.888,10.148-5.838,15.035-2.925
		c4.334,2.384,4.604,7.881,5.943,12.122C1079.28,1332.788,1082.546,1327.808,1087.279,1324.39z"/>
	<path fill="#94C5BE" stroke="#94C5BE" stroke-width="0.5" d="M806.592,1338.485c4.158-4.475,10.277-8.516,16.655-6.906
		c5.826,1.233,12.345,5.65,11.981,12.286c-0.106,3.207,0.564,8.304-3.43,9.444c-4.968,1.104-4.968-5.685-6.366-8.88
		c-2.596-0.846-6.906-2.044-8.128,1.363c-0.458,3.806,0.681,7.693-0.176,11.476c-1.245,3.195-5.826,3.406-8.246,1.503
		c-2.748-2.173-4.569-5.556-4.757-9.044C803.891,1345.861,803.562,1341.409,806.592,1338.485z"/>
	<path fill="#FBE4AE" stroke="#FBE4AE" stroke-width="0.5" d="M144.781,1355.563c12.568-10.653,28.037-18.652,44.669-19.78
		c8.304,0.47,17.489,3.089,22.376,10.371c3.653,4.534,5.368,10.125,6.824,15.669c0.305,0.2,0.94,0.622,1.257,0.822
		c3.864-2.784,7.036-6.472,11.241-8.762c9.866-5.932,21.483-8.668,32.935-8.351c5.051,0.916,10.078,2.267,14.87,4.134
		c5.45,4.111,7.188,10.982,8.997,17.219c3.054-2.925,5.309-6.507,7.987-9.737c4.193-4.722,8.891-9.021,14.165-12.486
		c4.663-3.207,9.843-6.19,15.657-6.307c7.682-0.858,15.105,3.265,19.909,9.021c5.591,7.482,7.599,17.031,7.576,26.24
		c2.196-0.681,4.134-1.95,5.333-3.947c5.156-7.623,11.499-14.964,20.179-18.594c7.752-3.23,16.55-5.521,24.854-3.03
		c10.101,2.349,16.385,12.333,18.253,21.964c1.656,9.608,2.678,19.463,1.644,29.212c-1.01,5.885-1.938,11.863-4.299,17.395
		c-4.369,8.398-6.66,17.713-11.346,25.982c-5.65,9.995-10.137,20.708-17.008,29.987c-4.522,6.307-10.277,11.593-15.681,17.125
		c-7.224,7.141-18.03,11.945-28.201,8.938c-8.21-2.76-14.201-9.69-18.124-17.161c-3.418-5.791-3.794-12.65-5.45-19.016
		c-5.568,7.329-10.066,15.587-17.031,21.765c-5.673,5.015-11.687,10.536-19.451,11.793c-6.495,0.81-13.684,0.305-18.875-4.111
		c-9.855-8.527-15.915-21.142-16.855-34.109c-0.294-6.319,0.059-12.638-0.047-18.946c-6.108,5.979-12.263,11.945-19.439,16.655
		c-10.36,7.881-23.092,13.719-36.4,12.333c-7.952,0.388-14.071-5.521-18.781-11.182c-6.108-7.917-7.682-18.382-6.155-28.072
		c1.75-5.25,3.042-10.783,6.178-15.434c2.502-3.735,5.344-7.294,6.906-11.546c-5.45,2.455-9.772,6.906-15.516,8.809
		c-9.173,3.042-19.134,6.249-28.695,2.831c-6.578-1.069-11.734-5.767-14.506-11.675c-2.408-7.341-2.549-15.563-0.223-22.939
		C128.665,1369.012,137.052,1362.246,144.781,1355.563z"/>
	<path fill="#FCFEFD" stroke="#FCFEFD" stroke-width="0.5" d="M1317.448,1339.683c6.108-1.703,12.909,0.81,16.667,5.861
		c3.841,7.059-0.294,16.456-7.247,19.815c-5.591,2.126-13.108,1.21-16.374-4.334
		C1305.244,1353.813,1309.297,1342.654,1317.448,1339.683z"/>
	<path fill="#94C5BF" stroke="#94C5BF" stroke-width="0.5" d="M697.275,1344.357c3.277-0.458,7.576-0.787,9.725,2.302
		c0.446,2.056,0.141,4.287-1.715,5.579c-4.076,2.76-2.114,10.043-7.47,11.405c-2.913,0.928-5.567-0.951-6.495-3.653
		C687.925,1354.365,690.991,1346.237,697.275,1344.357z"/>
	<path fill="#94C5BF" stroke="#94C5BF" stroke-width="0.5" d="M752.256,1348.774c5.838-4.276,16.045-2.796,18.5,4.675
		c0.716,2.561,0.928,7.4-2.478,7.928c-3.418,1.128-5.321-4.029-8.68-3.007c-2.032,2.103-3.242,4.816-4.452,7.458
		c-3.019,0.435-7.905,2.255-9.385-1.574C743.001,1358.347,747.453,1352.004,752.256,1348.774z"/>
	<path fill="#FFFFFF" stroke="#FFFFFF" stroke-width="0.5" d="M1363.761,1346.213c7.141,0.846,14.224,2.361,21.448,2.572
		c7.083,0.211,14.001,1.985,21.095,2.208c7.893,0.2,15.61,2.114,23.515,2.314c6.695,0.188,13.331,1.116,19.885,2.549
		c-11.793,22.305-27.262,42.531-44.716,60.678c-3.359,3.759-6.319,8.245-11.311,9.996c-2.772-6.202-6.202-12.11-10.195-17.583
		c-2.326-3.218-6.096-4.804-8.915-7.458c-1.832-4.628-2.056-9.843-4.687-14.154c-2.913-5.826-8.21-9.714-12.509-14.365
		C1359.568,1364.09,1362.939,1355.422,1363.761,1346.213z"/>
	<path fill="#FDFEFE" stroke="#FDFEFE" stroke-width="0.5" d="M657.363,1359.686c3.7-0.799,7.823-0.916,11.37,0.611
		c7.776,4.804,8.081,17.736,0.634,22.998c-3.923,3.031-9.408,3.489-14.036,2.02c-3.935-2.267-8.398-5.826-7.917-10.888
		C646.792,1367.872,651.102,1361.588,657.363,1359.686z"/>
	<path fill="#7D95FE" stroke="#7D95FE" stroke-width="0.5" d="M914.054,1361.929c4.769-0.129,9.502-0.74,14.189-1.715
		c22.305-0.611,44.669-0.599,66.962,0.552c13.942,0.047,27.884-0.035,41.826,0.129c37.751,0.012,75.513-0.012,113.264,0
		c7.505,0.399,15.34,0.881,22.211,4.252c7.517,4.463,17.196,5.567,22.528,13.237c1.198,2.537,2.208,5.18,2.972,7.905
		c0.869,11.346,5.791,22.329,4.087,33.828c-1.022,8.234-2.807,16.35-4.182,24.537c-4.968,14.987-16.879,26.24-29.928,34.45
		c2.561-2.901,5.568-5.521,7.365-8.985c4.358-13.496,3.688-27.943,1.785-41.815c-1.715-10.947-2.69-22.105-6.037-32.712
		c-1.809-5.45-7.599-7.87-12.756-9.009c-13.86-3.301-28.143-4.158-42.155-6.531c-12.216,0.035-24.184-2.913-36.4-2.572
		c-11.358,0.012-22.716-0.059-34.074,0.082c-11.006,0.176-21.859,2.537-32.865,2.22c-5.168-0.117-10.301,0.329-15.375,1.198
		c-7.47,1.327-15.105,0.904-22.599,1.985c-7.623,1.057-15.316,1.01-22.963,1.515c-22.904,3.336-46.325,3.535-68.818,9.467
		c-13.86,4.651-27.966,11.135-37.093,23.033c-16.82,0.869-33.64,3.359-50.506,2.067c-12.145-0.811-24.384,0.294-36.494-1.257
		c-6.965-0.846-13.989-0.153-20.978-0.529c-25.488-2.185-50.965,1.092-76.418,2.032c-10.888,0.576-21.8,0.552-32.7,0.388
		c-7.165-0.035-14.071-2.396-21.224-2.49c-13.378-0.188-26.604-2.972-40.006-2.42c-27.414-0.258-54.829-0.235-82.243,0
		c-9.032,0.153-18.112-0.423-27.109,0.728c-7.881,0.975-15.845,0.012-23.715,1.034c-5.109,0.658-10.289,0.763-15.399,0.082
		c2.361-5.532,3.289-11.511,4.299-17.395c0.74-1.503,1.574-2.948,2.384-4.381c12.462-0.822,24.783,1.961,37.246,1.092
		c15.234,1.257,30.515,1.057,45.796,1.21c16.045-0.082,32.101,0.117,48.146-0.035c9.044-0.27,17.983,1.68,27.039,1.233
		c6.977,0.376,13.966-0.822,20.931-0.141c9.878,1.421,19.885,0.211,29.822,0.188c12.474,0.481,24.842-1.691,37.328-1.186
		c45.796,0.012,91.593-0.505,137.378,0.117c10.606,0.904,21.189,2.49,31.866,2.149c4.804-0.681,8.351,3.113,12.815,4.005
		c1.316-8.527,6.942-15.399,12.732-21.412c9.537-8.269,21.119-14.412,33.557-16.82
		C905.092,1364.302,909.344,1362.07,914.054,1361.929z"/>
	<path fill="#FDFEFE" stroke="#FDFEFE" stroke-width="0.5" d="M721.976,1365.441c6.801-1.363,14.894,6.777,11.17,13.531
		c-2.631,6.648-13.179,8.539-17.219,2.243C711.793,1375.519,715.539,1367.367,721.976,1365.441z"/>
	<path fill="#94C5BE" stroke="#94C5BE" stroke-width="0.5" d="M835.851,1368.894c3.359,0.188,6.448,2.173,8.68,4.616
		c3.794,5.121,2.537,13.003-2.326,17.02c-3.277,2.549-7.177,4.675-11.429,4.734c-5.086,0.305-11.1,0.529-14.565-3.958
		c-3.171-2.725-1.092-7.74,2.443-8.974c5.203-1.515,11.147,1.092,16.08-1.691c1.985-2.807-1.844-5.497-1.586-8.422
		C833.513,1370.762,834.676,1369.705,835.851,1368.894z"/>
	<path fill="#FEFEFE" stroke="#FEFEFE" stroke-width="0.5" d="M1209.904,1372.982c5.838-5.051,15.422,2.243,12.885,9.361
		c-2.878,8.046-8.727,14.612-12.462,22.27c3.16,1.738,7.177,3.289,8.269,7.141c2.525,6.707-1.503,13.414-4.992,18.934
		c-4.522,6.284-8.88,12.885-15.011,17.736c-0.176-0.94-0.505-2.819-0.681-3.77c1.374-8.187,3.16-16.303,4.182-24.537
		c1.703-11.499-3.218-22.481-4.087-33.828C1198.253,1379.465,1205.182,1376.541,1209.904,1372.982z"/>
	<path fill="#FEFEFE" stroke="#FEFEFE" stroke-width="0.5" d="M1283.385,1374.885c3.923-0.951,8.915-0.681,11.581,2.772
		c1.891,2.737,3.148,6.096,2.995,9.467c-1.21,7.318-11.687,11.076-17.078,5.814
		C1274.964,1388.474,1276.467,1377.398,1283.385,1374.885z"/>
	<path fill="#2424FF" stroke="#2424FF" stroke-width="0.5" d="M1012.847,1379.782c11.006,0.317,21.859-2.044,32.865-2.22
		c11.358-0.141,22.716-0.07,34.074-0.082c12.215-0.341,24.184,2.607,36.4,2.572c14.013,2.372,28.295,3.23,42.155,6.531
		c5.156,1.139,10.947,3.559,12.756,9.009c3.348,10.606,4.323,21.765,6.037,32.712c1.903,13.872,2.572,28.319-1.785,41.815
		c-1.797,3.465-4.804,6.084-7.365,8.985c-6.589,5.826-14.236,10.348-22.258,13.919c-20.156,8.574-42.003,11.757-63.591,14.341
		c-14.894,1.116-29.634,3.712-44.563,4.428c-5.497,0.54-10.924,1.868-16.468,1.797c-12.568-0.082-25.077,1.433-37.645,1.21
		c-18.1-0.012-36.294,0.399-54.277-2.091c-11.558-1.21-23.409-0.423-34.685-3.618c-7.881-2.032-16.174-3.171-23.303-7.318
		c-5.485-3.359-11.064-6.683-15.927-10.912c-4.945-4.17-7.505-10.219-10.336-15.845c-15.258,2.326-30.574,4.346-45.902,6.26
		c-4.651,0.834-9.279,1.985-14.036,1.785c-8.727-0.294-17.231,2.056-25.911,2.314c-8.985,0.247-17.865,2.079-26.862,2.243
		c-4.123,0.024-8.21,0.646-12.286,1.175c-10.759,0.764-21.565,0.775-32.301,1.727c-8.997,1.527-18.171,0.47-27.227,1.48
		c-9.808-0.012-19.486,1.915-29.306,1.644c-17.607,0.305-35.296,0.094-52.785,2.244c-16.103,0.352-32.254-0.376-48.31,1.092
		c-8.586,0.329-17.184-0.012-25.758,0.576c-12.486,1.339-25.089,0.352-37.598,1.503c-5.614,0.552-11.276-0.294-16.867,0.505
		c2.502,0.176,5.015,0.247,7.529,0.294c-0.27,0.223-0.799,0.681-1.069,0.916c-16.914-0.74-33.828,0.176-50.659,1.762
		c-10.336,0.94-20.778-0.059-31.091,1.092c-12.615,3.019-25.688,0.646-38.42,2.608c-7.329,0.857-14.694,1.445-22.07,1.515
		c-14.095,1.116-28.213,1.938-42.343,2.408c-15.998,1.597-32.101,1.527-48.134,2.643c-9.35,1.374-18.817,0.646-28.213,1.128
		c-11.722,1.057-23.527,0.435-35.214,1.868c-16.973,0.023-34.039,1.045-50.941-0.893c-11.523-1.233-23.08-3.077-33.957-7.212
		c-9.984-3.3-19.604-9.643-24.466-19.204c-3.806-8.68-5.25-18.499-3.019-27.779c2.396-8.386,9.115-14.741,16.55-18.864
		c15.035-8.328,32.324-11.158,49.226-12.662c7.212-1.609,14.6-1.28,21.917-1.68c11.593-1.668,23.256-3.195,34.979-3.536
		c0.012,1.527,0,3.066-0.023,4.628c-1.527,9.69,0.047,20.156,6.155,28.072c4.71,5.661,10.83,11.569,18.781,11.182
		c13.308,1.386,26.04-4.452,36.4-12.333c7.177-4.71,13.331-10.677,19.439-16.655c0.106,6.307-0.247,12.627,0.047,18.946
		c0.94,12.967,7,25.582,16.855,34.109c5.192,4.416,12.38,4.921,18.875,4.111c7.764-1.257,13.778-6.777,19.451-11.793
		c6.965-6.178,11.464-14.436,17.031-21.765c1.656,6.366,2.032,13.226,5.45,19.016c3.923,7.47,9.913,14.4,18.124,17.161
		c10.172,3.007,20.978-1.797,28.201-8.938c5.403-5.532,11.158-10.818,15.681-17.125c6.871-9.279,11.358-19.991,17.008-29.987
		c4.687-8.269,6.977-17.583,11.346-25.982c5.109,0.681,10.289,0.576,15.399-0.082c7.87-1.022,15.833-0.059,23.715-1.034
		c8.997-1.151,18.077-0.575,27.109-0.728c27.414-0.235,54.829-0.258,82.243,0c13.402-0.552,26.628,2.232,40.006,2.42
		c7.153,0.094,14.06,2.455,21.224,2.49c10.9,0.164,21.812,0.188,32.7-0.388c25.453-0.94,50.929-4.217,76.418-2.032
		c6.989,0.376,14.013-0.317,20.978,0.529c12.11,1.551,24.349,0.446,36.494,1.257c16.867,1.292,33.687-1.198,50.506-2.067
		c9.126-11.898,23.233-18.382,37.093-23.033c22.493-5.932,45.914-6.131,68.818-9.467c7.646-0.505,15.34-0.458,22.963-1.515
		c7.494-1.081,15.128-0.658,22.599-1.985C1002.546,1380.111,1007.679,1379.665,1012.847,1379.782z"/>
	<path fill="#7C95FD" stroke="#7C95FD" stroke-width="0.5" d="M110.542,1405.6c4.827-0.94,9.514-2.502,14.189-4.017
		c2.772,5.908,7.928,10.606,14.506,11.675c9.561,3.418,19.521,0.211,28.695-2.831c5.744-1.903,10.066-6.354,15.516-8.809
		c-1.562,4.252-4.405,7.811-6.906,11.546c-3.136,4.651-4.428,10.184-6.178,15.434c0.023-1.562,0.035-3.101,0.023-4.628
		c-11.722,0.341-23.386,1.868-34.979,3.536c-7.318,0.399-14.706,0.071-21.917,1.68c-16.902,1.503-34.192,4.334-49.226,12.662
		c-7.435,4.123-14.154,10.477-16.55,18.864c-2.232,9.279-0.787,19.099,3.019,27.779c-3.559-3.312-4.193-8.433-4.734-12.979
		c-0.54-9.338-4.816-18.664-1.445-27.943c3.23-7.694,8.492-14.635,15.128-19.709c5.556-4.546,11.44-8.774,18.206-11.323
		C88.119,1411.261,99.102,1407.197,110.542,1405.6z"/>
	<path fill="#94C5BF" stroke="#94C5BF" stroke-width="0.5" d="M1238.693,1413.364c9.526-2.22,19.686,0.423,27.72,5.779
		c5.661,3.735,9.244,10.665,8.598,17.454c-0.035,3.042-4.205,5.121-6.319,2.643c-2.784-3.16-4.029-7.646-7.776-9.901
		c-11.382-8.304-29.658-2.009-34.215,11.076c-2.044,5.086,0.811,10.465,4.311,14.142c3.395,4.076,8.339,6.625,11.37,11.018
		c1.938,2.76,0.763,7.329-3.054,7.353c-8.398,0.094-16.491-4.487-21.213-11.335c-9.173-12.333-6.578-31.373,5.168-41.169
		C1227.652,1416.688,1233.255,1414.879,1238.693,1413.364z"/>
	<path fill="#FDFEFE" stroke="#FDFEFE" stroke-width="0.5" d="M1276.373,1454.802c4.557-0.834,9.784,0.176,13.308,3.324
		c2.76,3.723,5.485,7.928,5.99,12.662c0.317,7.787-6.942,13.425-13.837,15.234c-5.685,2.044-12.65-0.176-16.021-5.168
		c-3.089-6.096-3.477-13.954,0.482-19.768C1268.656,1457.762,1272.391,1455.578,1276.373,1454.802 M1276.361,1466.407
		c-1.797,1.045-2.49,3.371-2.666,5.356c0.987,3.042,4.346,5.72,7.658,4.416c3.007-0.834,6.636-3.97,4.828-7.353
		C1283.961,1466.008,1279.639,1464.974,1276.361,1466.407z"/>
	<path fill="#DCFBFB" stroke="#DCFBFB" stroke-width="0.5" d="M1276.361,1466.407c3.277-1.433,7.599-0.399,9.819,2.42
		c1.809,3.383-1.821,6.519-4.828,7.353c-3.312,1.304-6.672-1.374-7.658-4.416
		C1273.871,1469.778,1274.564,1467.452,1276.361,1466.407z"/>
	<path fill="#94C5BF" stroke="#94C5BF" stroke-width="0.5" d="M1192.955,1483.051c4.193-0.693,9.573-0.822,12.086,3.348
		c3.453,4.029,1.75,12.732-4.264,12.85c-2.796-0.846-5.168-2.76-8.105-3.148c-3.195-0.352-6.39-3.066-5.732-6.519
		C1186.707,1486.175,1190.101,1483.955,1192.955,1483.051z"/>
	<path fill="#FBE4AE" stroke="#FBE4AE" stroke-width="0.5" d="M405.582,1502.537c16.832-1.586,33.745-2.502,50.659-1.762
		c-5.18,7.294-11.511,13.719-16.092,21.459c-13.249,20.637-21.812,44.14-36.987,63.568c-11.17,15.375-27.25,26.604-44.563,34.074
		c-17.971,7.177-37.105,11.088-56.321,12.826c-14.576,0.411-29.341,1.139-43.741-1.621c-22.787-3.218-45.55-11.217-62.969-26.698
		c-4.921-4.534-9.279-9.678-12.92-15.281c-6.366-10.031-9.42-21.6-12.674-32.888c-3.512-12.991-5.685-26.346-6.683-39.748
		c-18.323-1.01-36.729,0.317-55.052-0.669l0.916-0.893c16.902,1.938,33.969,0.916,50.941,0.893
		c11.687-1.433,23.491-0.811,35.214-1.868c9.397-0.482,18.864,0.247,28.213-1.128c16.033-1.116,32.136-1.045,48.134-2.643
		c14.13-0.47,28.248-1.292,42.343-2.408c7.376-0.071,14.741-0.658,22.07-1.515c12.732-1.962,25.805,0.411,38.42-2.608
		C384.804,1502.478,395.246,1503.476,405.582,1502.537z"/>
	<path fill="#94C5BF" stroke="#94C5BF" stroke-width="0.5" d="M1138.902,1512.227c5.65-2.666,12.239,1.269,15.657,5.861
		c7.153,12.545,1.774,30.856-11.652,36.811c-15.234,6.084-34.532-1.668-41.345-16.573c-0.928-3.418-0.975-9.679,4.041-9.291
		c5.286-0.822,8.551,4.146,11.981,7.247c4.698,4.945,11.84,7.259,18.57,6.249c6.531-1.703,10.947-8.786,9.49-15.434
		c-0.529-4.593-4.745-7.141-7.282-10.548C1137.304,1515.187,1137.833,1513.355,1138.902,1512.227z"/>
	<path fill="#FEFEFE" stroke="#FEFEFE" stroke-width="0.5" d="M1019.131,1520.531c6.307-2.619,12.803,2.713,13.648,8.938
		c0.599,4.099,0.411,9.244-3.465,11.769c-4.358,3.817-10.618,4.252-16.045,3.007c-5.755-3.277-6.26-11.241-3.442-16.62
		C1011.884,1524.196,1015.407,1521.823,1019.131,1520.531z"/>
	<path fill="#FDFEFE" stroke="#FDFEFE" stroke-width="0.5" d="M1077.859,1524.008c4.076-0.987,9.232,3.16,7.729,7.588
		c-0.81,3.712-4.123,6.66-7.964,6.73c-3.101-1.222-6.542-3.923-5.955-7.635C1071.681,1527.297,1075.028,1525.112,1077.859,1524.008z
		"/>
</g>
</svg>
